IntelOneMono-Regular.ufo
<glyph name="exclam" format="2">
  <advance width="614"/>
  <unicode hex="0021"/>
  <outline>
    <contour>
      <point x="334" y="242" type="line"/>
      <point x="280" y="242" type="line"/>
      <point x="225" y="710" type="line"/>
      <point x="390" y="710" type="line"/>
    </contour>
    <contour>
      <point x="384" y="48" type="qcurve"/>
      <point x="384" y="17"/>
      <point x="343" y="-15"/>
      <point x="304" y="-15" type="qcurve"/>
      <point x="265" y="-15"/>
      <point x="225" y="18"/>
      <point x="225" y="50" type="qcurve"/>
      <point x="225" y="80"/>
      <point x="267" y="113"/>
      <point x="306" y="113" type="qcurve"/>
      <point x="346" y="113"/>
      <point x="384" y="81"/>
    </contour>
  </outline>
</glyph>
<glyph name="numbersign" format="2">
  <advance width="614"/>
  <unicode hex="0023"/>
  <outline>
    <contour>
      <point x="153" y="172" type="line"/>
      <point x="40" y="172" type="line"/>
      <point x="40" y="249" type="line"/>
      <point x="167" y="249" type="line"/>
      <point x="197" y="411" type="line"/>
      <point x="71" y="411" type="line"/>
      <point x="71" y="489" type="line"/>
      <point x="211" y="489" type="line"/>
      <point x="244" y="666" type="line"/>
      <point x="307" y="666" type="line"/>
      <point x="273" y="486" type="line"/>
      <point x="400" y="486" type="line"/>
      <point x="434" y="666" type="line"/>
      <point x="497" y="666" type="line"/>
      <point x="464" y="489" type="line"/>
      <point x="574" y="489" type="line"/>
      <point x="574" y="411" type="line"/>
      <point x="450" y="411" type="line"/>
      <point x="420" y="249" type="line"/>
      <point x="544" y="249" type="line"/>
      <point x="544" y="172" type="line"/>
      <point x="405" y="172" type="line"/>
      <point x="371" y="-12" type="line"/>
      <point x="307" y="-12" type="line"/>
      <point x="342" y="175" type="line"/>
      <point x="216" y="175" type="line"/>
      <point x="181" y="-12" type="line"/>
      <point x="119" y="-12" type="line"/>
    </contour>
    <contour>
      <point x="220" y="229" type="line"/>
      <point x="358" y="229" type="line"/>
      <point x="395" y="431" type="line"/>
      <point x="258" y="431" type="line"/>
    </contour>
  </outline>
</glyph>
<glyph name="parenleft" format="2">
  <advance width="614"/>
  <unicode hex="0028"/>
  <outline>
    <contour>
      <point x="115" y="326" type="qcurve"/>
      <point x="115" y="466"/>
      <point x="299" y="707"/>
      <point x="482" y="805" type="qcurve"/>
      <point x="523" y="747" type="line"/>
      <point x="361" y="656"/>
      <point x="204" y="452"/>
      <point x="204" y="329" type="qcurve"/>
      <point x="204" y="206"/>
      <point x="361" y="2"/>
      <point x="523" y="-89" type="qcurve"/>
      <point x="482" y="-147" type="line"/>
      <point x="298" y="-48"/>
      <point x="115" y="188"/>
    </contour>
  </outline>
</glyph>
<glyph name="asterisk" format="2">
  <advance width="614"/>
  <unicode hex="002A"/>
  <outline>
    <contour>
      <point x="187" y="160" type="qcurve"/>
      <point x="109" y="227" type="line"/>
      <point x="120" y="241"/>
      <point x="155" y="270"/>
      <point x="194" y="300" type="qcurve"/>
      <point x="232" y="328"/>
      <point x="268" y="359"/>
      <point x="281" y="373" type="qcurve"/>
      <point x="262" y="379"/>
      <point x="215" y="388"/>
      <point x="167" y="394" type="qcurve"/>
      <point x="120" y="400"/>
      <point x="76" y="409"/>
      <point x="60" y="415" type="qcurve"/>
      <point x="95" y="513" type="line"/>
      <point x="111" y="507"/>
      <point x="150" y="487"/>
      <point x="190" y="462" type="qcurve"/>
      <point x="230" y="437"/>
      <point x="272" y="415"/>
      <point x="290" y="408" type="qcurve"/>
      <point x="289" y="428"/>
      <point x="282" y="475"/>
      <point x="272" y="522" type="qcurve"/>
      <point x="262" y="569"/>
      <point x="256" y="613"/>
      <point x="256" y="630" type="qcurve"/>
      <point x="360" y="630" type="line"/>
      <point x="360" y="612"/>
      <point x="354" y="568"/>
      <point x="343" y="521" type="qcurve"/>
      <point x="333" y="474"/>
      <point x="326" y="428"/>
      <point x="325" y="409" type="qcurve"/>
      <point x="343" y="416"/>
      <point x="385" y="438"/>
      <point x="425" y="463" type="qcurve"/>
      <point x="465" y="487"/>
      <point x="504" y="507"/>
      <point x="520" y="513" type="qcurve"/>
      <point x="555" y="415" type="line"/>
      <point x="539" y="409"/>
      <point x="495" y="400"/>
      <point x="448" y="394" type="qcurve"/>
      <point x="400" y="388"/>
      <point x="353" y="379"/>
      <point x="334" y="373" type="qcurve"/>
      <point x="347" y="359"/>
      <point x="383" y="328"/>
      <point x="421" y="300" type="qcurve"/>
      <point x="460" y="270"/>
      <point x="495" y="241"/>
      <point x="506" y="227" type="qcurve"/>
      <point x="428" y="160" type="line"/>
      <point x="417" y="173"/>
      <point x="393" y="210"/>
      <point x="369" y="252" type="qcurve"/>
      <point x="345" y="294"/>
      <point x="319" y="335"/>
      <point x="307" y="350" type="qcurve"/>
      <point x="295" y="335"/>
      <point x="269" y="294"/>
      <point x="245" y="252" type="qcurve"/>
      <point x="222" y="210"/>
      <point x="198" y="173"/>
    </contour>
  </outline>
</glyph>
<glyph name="hyphen" format="2">
  <advance width="614"/>
  <unicode hex="002D"/>
  <outline>
    <contour>
      <point x="120" y="286" type="line"/>
      <point x="120" y="369" type="line"/>
      <point x="494" y="369" type="line"/>
      <point x="494" y="286" type="line"/>
    </contour>
  </outline>
</glyph>
<glyph name="period" format="2">
  <advance width="614"/>
  <unicode hex="002E"/>
  <outline>
    <contour>
      <point x="394" y="66" type="qcurve"/>
      <point x="394" y="27"/>
      <point x="349" y="-15"/>
      <point x="307" y="-15" type="qcurve"/>
      <point x="264" y="-15"/>
      <point x="220" y="26"/>
      <point x="220" y="65" type="qcurve"/>
      <point x="220" y="104"/>
      <point x="266" y="147"/>
      <point x="307" y="147" type="qcurve"/>
      <point x="350" y="147"/>
      <point x="394" y="106"/>
    </contour>
  </outline>
</glyph>
<glyph name="one" format="2">
  <advance width="614"/>
  <unicode hex="0031"/>
  <outline>
    <contour>
      <point x="529" y="0" type="line"/>
      <point x="114" y="0" type="line"/>
      <point x="114" y="72" type="line"/>
      <point x="282" y="72" type="line"/>
      <point x="282" y="545" type="line"/>
      <point x="113" y="457" type="line"/>
      <point x="113" y="546" type="line"/>
      <point x="345" y="666" type="line"/>
      <point x="369" y="666" type="line"/>
      <point x="369" y="72" type="line"/>
      <point x="529" y="72" type="line"/>
    </contour>
  </outline>
</glyph>
<glyph name="two" format="2">
  <advance width="614"/>
  <unicode hex="0032"/>
  <outline>
    <contour>
      <point x="545" y="0" type="line"/>
      <point x="85" y="0" type="line"/>
      <point x="85" y="60" type="line"/>
      <point x="296" y="279" type="line"/>
      <point x="383" y="369"/>
      <point x="437" y="448"/>
      <point x="437" y="490" type="qcurve"/>
      <point x="437" y="539"/>
      <point x="378" y="596"/>
      <point x="325" y="596" type="qcurve"/>
      <point x="277" y="596"/>
      <point x="192" y="548"/>
      <point x="119" y="479" type="qcurve"/>
      <point x="71" y="538" type="line"/>
      <point x="147" y="611"/>
      <point x="261" y="670"/>
      <point x="329" y="670" type="qcurve"/>
      <point x="417" y="670"/>
      <point x="526" y="573"/>
      <point x="526" y="493" type="qcurve"/>
      <point x="526" y="439"/>
      <point x="465" y="345"/>
      <point x="361" y="239" type="qcurve"/>
      <point x="199" y="75" type="line"/>
      <point x="199" y="72" type="line"/>
      <point x="545" y="72" type="line"/>
    </contour>
  </outline>
</glyph>
<glyph name="five" format="2">
  <advance width="614"/>
  <unicode hex="0035"/>
  <outline>
    <contour>
      <point x="343" y="421" type="qcurve"/>
      <point x="428" y="421"/>
      <point x="536" y="316"/>
      <point x="536" y="231" type="qcurve"/>
      <point x="536" y="128"/>
      <point x="376" y="14"/>
      <point x="213" y="0" type="qcurve"/>
      <point x="97" y="-10" type="line"/>
      <point x="89" y="65" type="line"/>
      <point x="208" y="76" type="line"/>
      <point x="334" y="88"/>
      <point x="448" y="161"/>
      <point x="448" y="232" type="qcurve"/>
      <point x="448" y="285"/>
      <point x="380" y="351"/>
      <point x="327" y="351" type="qcurve"/>
      <point x="287" y="351"/>
      <point x="206" y="324"/>
      <point x="166" y="298" type="qcurve"/>
      <point x="107" y="307" type="line"/>
      <point x="104" y="312" type="line"/>
      <point x="129" y="655" type="line"/>
      <point x="498" y="655" type="line"/>
      <point x="498" y="583" type="line"/>
      <point x="203" y="583" type="line"/>
      <point x="185" y="373" type="line"/>
      <point x="222" y="397"/>
      <point x="300" y="421"/>
    </contour>
  </outline>
</glyph>
<glyph name="six" format="2">
  <advance width="614"/>
  <unicode hex="0036"/>
  <outline>
    <contour>
      <point x="325" y="426" type="qcurve"/>
      <point x="423" y="426"/>
      <point x="540" y="310"/>
      <point x="540" y="213" type="qcurve"/>
      <point x="540" y="113"/>
      <point x="408" y="-15"/>
      <point x="306" y="-15" type="qcurve"/>
      <point x="206" y="-15"/>
      <point x="76" y="118"/>
      <point x="76" y="227" type="qcurve"/>
      <point x="76" y="325"/>
      <point x="150" y="473"/>
      <point x="245" y="563" type="qcurve"/>
      <point x="342" y="655" type="line"/>
      <point x="461" y="655" type="line"/>
      <point x="462" y="653" type="line"/>
      <point x="323" y="528" type="line"/>
      <point x="288" y="497"/>
      <point x="235" y="438"/>
      <point x="217" y="409" type="qcurve"/>
      <point x="243" y="418"/>
      <point x="295" y="426"/>
    </contour>
    <contour>
      <point x="183" y="341" type="qcurve"/>
      <point x="173" y="314"/>
      <point x="164" y="260"/>
      <point x="164" y="231" type="qcurve"/>
      <point x="164" y="152"/>
      <point x="244" y="56"/>
      <point x="308" y="56" type="qcurve"/>
      <point x="372" y="56"/>
      <point x="451" y="144"/>
      <point x="451" y="215" type="qcurve"/>
      <point x="451" y="282"/>
      <point x="373" y="360"/>
      <point x="305" y="360" type="qcurve"/>
      <point x="274" y="360"/>
      <point x="213" y="351"/>
    </contour>
  </outline>
</glyph>
<glyph name="eight" format="2">
  <advance width="614"/>
  <unicode hex="0038"/>
  <outline>
    <contour>
      <point x="538" y="175" type="qcurve"/>
      <point x="538" y="90"/>
      <point x="409" y="-15"/>
      <point x="306" y="-15" type="qcurve"/>
      <point x="204" y="-15"/>
      <point x="76" y="89"/>
      <point x="76" y="173" type="qcurve"/>
      <point x="76" y="230"/>
      <point x="156" y="319"/>
      <point x="224" y="337" type="qcurve"/>
      <point x="224" y="342" type="line"/>
      <point x="165" y="360"/>
      <point x="96" y="439"/>
      <point x="96" y="490" type="qcurve"/>
      <point x="96" y="570"/>
      <point x="215" y="670"/>
      <point x="309" y="670" type="qcurve"/>
      <point x="402" y="670"/>
      <point x="518" y="572"/>
      <point x="518" y="492" type="qcurve"/>
      <point x="518" y="441"/>
      <point x="450" y="361"/>
      <point x="391" y="342" type="qcurve"/>
      <point x="391" y="337" type="line"/>
      <point x="458" y="319"/>
      <point x="538" y="232"/>
    </contour>
    <contour>
      <point x="182" y="486" type="qcurve"/>
      <point x="182" y="436"/>
      <point x="254" y="370"/>
      <point x="308" y="370" type="qcurve"/>
      <point x="360" y="370"/>
      <point x="432" y="437"/>
      <point x="432" y="488" type="qcurve"/>
      <point x="432" y="539"/>
      <point x="363" y="601"/>
      <point x="307" y="601" type="qcurve"/>
      <point x="251" y="601"/>
      <point x="182" y="538"/>
    </contour>
    <contour>
      <point x="162" y="177" type="qcurve"/>
      <point x="162" y="122"/>
      <point x="243" y="54"/>
      <point x="308" y="54" type="qcurve"/>
      <point x="372" y="54"/>
      <point x="452" y="123"/>
      <point x="452" y="179" type="qcurve"/>
      <point x="452" y="234"/>
      <point x="370" y="305"/>
      <point x="307" y="305" type="qcurve"/>
      <point x="245" y="305"/>
      <point x="162" y="233"/>
    </contour>
  </outline>
</glyph>
<glyph name="colon" format="2">
  <advance width="614"/>
  <unicode hex="003A"/>
  <outline>
    <contour>
      <point x="394" y="399" type="qcurve"/>
      <point x="394" y="362"/>
      <point x="348" y="322"/>
      <point x="306" y="322" type="qcurve"/>
      <point x="265" y="322"/>
      <point x="220" y="363"/>
      <point x="220" y="401" type="qcurve"/>
      <point x="220" y="436"/>
      <point x="268" y="478"/>
      <point x="308" y="478" type="qcurve"/>
      <point x="351" y="478"/>
      <point x="394" y="438"/>
    </contour>
    <contour>
      <point x="394" y="62" type="qcurve"/>
      <point x="394" y="26"/>
      <point x="348" y="-15"/>
      <point x="306" y="-15" type="qcurve"/>
      <point x="265" y="-15"/>
      <point x="220" y="26"/>
      <point x="220" y="64" type="qcurve"/>
      <point x="220" y="99"/>
      <point x="268" y="142"/>
      <point x="308" y="142" type="qcurve"/>
      <point x="350" y="142"/>
      <point x="394" y="101"/>
    </contour>
  </outline>
</glyph>
<glyph name="greater" format="2">
  <advance width="614"/>
  <unicode hex="003E"/>
  <outline>
    <contour>
      <point x="546" y="361" type="line"/>
      <point x="546" y="282" type="line"/>
      <point x="76" y="79" type="line"/>
      <point x="76" y="159" type="line"/>
      <point x="468" y="322" type="line"/>
      <point x="76" y="484" type="line"/>
      <point x="76" y="563" type="line"/>
    </contour>
  </outline>
</glyph>
<glyph name="A" format="2">
  <advance width="614"/>
  <unicode hex="0041"/>
  <outline>
    <contour>
      <point x="184" y="178" type="line"/>
      <point x="128" y="0" type="line"/>
      <point x="40" y="0" type="line"/>
      <point x="254" y="655" type="line"/>
      <point x="361" y="655" type="line"/>
      <point x="574" y="0" type="line"/>
      <point x="483" y="0" type="line"/>
      <point x="425" y="178" type="line"/>
    </contour>
    <contour>
      <point x="304" y="566" type="line"/>
      <point x="206" y="248" type="line"/>
      <point x="404" y="248" type="line"/>
    </contour>
  </outline>
</glyph>
<glyph name="B" format="2">
  <advance width="614"/>
  <unicode hex="0042"/>
  <outline>
    <contour>
      <point x="95" y="0" type="line"/>
      <point x="95" y="655" type="line"/>
      <point x="333" y="655" type="line"/>
      <point x="431" y="655"/>
      <point x="532" y="577"/>
      <point x="532" y="502" type="qcurve"/>
      <point x="532" y="439"/>
      <point x="455" y="357"/>
      <point x="378" y="338" type="qcurve"/>
      <point x="378" y="334" type="line"/>
      <point x="468" y="322"/>
      <point x="564" y="234"/>
      <point x="564" y="163" type="qcurve"/>
      <point x="564" y="83"/>
      <point x="452" y="0"/>
      <point x="343" y="0" type="qcurve"/>
    </contour>
    <contour>
      <point x="444" y="488" type="qcurve"/>
      <point x="444" y="537"/>
      <point x="384" y="587"/>
      <point x="325" y="587" type="qcurve"/>
      <point x="180" y="587" type="line"/>
      <point x="180" y="361" type="line"/>
      <point x="280" y="366" type="line"/>
      <point x="358" y="370"/>
      <point x="444" y="435"/>
    </contour>
    <contour>
      <point x="478" y="172" type="qcurve"/>
      <point x="478" y="227"/>
      <point x="386" y="292"/>
      <point x="301" y="295" type="qcurve"/>
      <point x="180" y="300" type="line"/>
      <point x="180" y="68" type="line"/>
      <point x="342" y="68" type="line"/>
      <point x="408" y="68"/>
      <point x="478" y="122"/>
    </contour>
  </outline>
</glyph>
<glyph name="C" format="2">
  <advance width="614"/>
  <unicode hex="0043"/>
  <outline>
    <contour>
      <point x="324" y="-15" type="qcurve"/>
      <point x="197" y="-15"/>
      <point x="56" y="164"/>
      <point x="56" y="326" type="qcurve"/>
      <point x="56" y="479"/>
      <point x="214" y="670"/>
      <point x="339" y="670" type="qcurve"/>
      <point x="394" y="670"/>
      <point x="489" y="631"/>
      <point x="558" y="580" type="qcurve"/>
      <point x="514" y="517" type="line"/>
      <point x="459" y="560"/>
      <point x="380" y="598"/>
      <point x="340" y="598" type="qcurve"/>
      <point x="253" y="598"/>
      <point x="145" y="451"/>
      <point x="145" y="328" type="qcurve"/>
      <point x="145" y="198"/>
      <point x="246" y="57"/>
      <point x="336" y="57" type="qcurve"/>
      <point x="376" y="57"/>
      <point x="466" y="97"/>
      <point x="523" y="141" type="qcurve"/>
      <point x="564" y="82" type="line"/>
      <point x="498" y="31"/>
      <point x="384" y="-15"/>
    </contour>
  </outline>
</glyph>
<glyph name="E" format="2">
  <advance width="614"/>
  <unicode hex="0045"/>
  <outline>
    <contour>
      <point x="98" y="0" type="line"/>
      <point x="98" y="655" type="line"/>
      <point x="535" y="655" type="line"/>
      <point x="535" y="583" type="line"/>
      <point x="185" y="583" type="line"/>
      <point x="185" y="367" type="line"/>
      <point x="481" y="367" type="line"/>
      <point x="481" y="295" type="line"/>
      <point x="185" y="295" type="line"/>
      <point x="185" y="72" type="line"/>
      <point x="542" y="72" type="line"/>
      <point x="542" y="0" type="line"/>
    </contour>
  </outline>
</glyph>
<glyph name="I" format="2">
  <advance width="614"/>
  <unicode hex="0049"/>
  <outline>
    <contour>
      <point x="131" y="0" type="line"/>
      <point x="131" y="43" type="line"/>
      <point x="264" y="66" type="line"/>
      <point x="264" y="589" type="line"/>
      <point x="131" y="612" type="line"/>
      <point x="131" y="655" type="line"/>
      <point x="483" y="655" type="line"/>
      <point x="483" y="612" type="line"/>
      <point x="351" y="589" type="line"/>
      <point x="351" y="66" type="line"/>
      <point x="483" y="43" type="line"/>
      <point x="483" y="0" type="line"/>
    </contour>
  </outline>
</glyph>
<glyph name="J" format="2">
  <advance width="614"/>
  <unicode hex="004A"/>
  <outline>
    <contour>
      <point x="322" y="-12" type="qcurve"/>
      <point x="254" y="-12"/>
      <point x="138" y="50"/>
      <point x="49" y="132" type="qcurve"/>
      <point x="104" y="193" type="line"/>
      <point x="178" y="123"/>
      <point x="274" y="64"/>
      <point x="320" y="64" type="qcurve"/>
      <point x="374" y="64"/>
      <point x="428" y="127"/>
      <point x="428" y="190" type="qcurve"/>
      <point x="428" y="655" type="line"/>
      <point x="515" y="655" type="line"/>
      <point x="515" y="185" type="line"/>
      <point x="515" y="91"/>
      <point x="415" y="-12"/>
    </contour>
  </outline>
</glyph>
<glyph name="O" format="2">
  <advance width="614"/>
  <unicode hex="004F"/>
  <outline>
    <contour>
      <point x="308" y="670" type="qcurve"/>
      <point x="426" y="670"/>
      <point x="558" y="491"/>
      <point x="558" y="329" type="qcurve"/>
      <point x="558" y="165"/>
      <point x="425" y="-15"/>
      <point x="306" y="-15" type="qcurve"/>
      <point x="187" y="-15"/>
      <point x="56" y="163"/>
      <point x="56" y="325" type="qcurve"/>
      <point x="56" y="488"/>
      <point x="190" y="670"/>
    </contour>
    <contour>
      <point x="307" y="598" type="qcurve"/>
      <point x="228" y="598"/>
      <point x="145" y="460"/>
      <point x="145" y="327" type="qcurve"/>
      <point x="145" y="194"/>
      <point x="228" y="57"/>
      <point x="307" y="57" type="qcurve"/>
      <point x="386" y="57"/>
      <point x="469" y="194"/>
      <point x="469" y="327" type="qcurve"/>
      <point x="469" y="460"/>
      <point x="386" y="598"/>
    </contour>
  </outline>
</glyph>
<glyph name="Q" format="2">
  <advance width="614"/>
  <unicode hex="0051"/>
  <outline>
    <contour>
      <point x="473" y="58" type="qcurve"/>
      <point x="606" y="-106" type="line"/>
      <point x="535" y="-155" type="line"/>
      <point x="419" y="15" type="line"/>
      <point x="394" y="1"/>
      <point x="337" y="-14"/>
      <point x="306" y="-14" type="qcurve"/>
      <point x="187" y="-14"/>
      <point x="56" y="163"/>
      <point x="56" y="325" type="qcurve"/>
      <point x="56" y="488"/>
      <point x="190" y="670"/>
      <point x="308" y="670" type="qcurve"/>
      <point x="427" y="670"/>
      <point x="558" y="491"/>
      <point x="558" y="328" type="qcurve"/>
      <point x="558" y="241"/>
      <point x="514" y="103"/>
    </contour>
    <contour>
      <point x="307" y="598" type="qcurve"/>
      <point x="228" y="598"/>
      <point x="145" y="460"/>
      <point x="145" y="327" type="qcurve"/>
      <point x="145" y="194"/>
      <point x="228" y="56"/>
      <point x="307" y="56" type="qcurve"/>
      <point x="328" y="56"/>
      <point x="365" y="65"/>
      <point x="381" y="74" type="qcurve"/>
      <point x="278" y="209" type="line"/>
      <point x="333" y="247" type="line"/>
      <point x="425" y="116" type="line"/>
      <point x="447" y="149"/>
      <point x="469" y="254"/>
      <point x="469" y="326" type="qcurve"/>
      <point x="469" y="460"/>
      <point x="386" y="598"/>
    </contour>
  </outline>
</glyph>
<glyph name="R" format="2">
  <advance width="614"/>
  <unicode hex="0052"/>
  <outline>
    <contour>
      <point x="424" y="187" type="qcurve"/>
      <point x="581" y="4" type="line"/>
      <point x="581" y="0" type="line"/>
      <point x="471" y="0" type="line"/>
      <point x="332" y="173" type="line"/>
      <point x="295" y="222"/>
      <point x="237" y="255"/>
      <point x="182" y="260" type="qcurve"/>
      <point x="182" y="0" type="line"/>
      <point x="95" y="0" type="line"/>
      <point x="95" y="655" type="line"/>
      <point x="334" y="655" type="line"/>
      <point x="430" y="655"/>
      <point x="540" y="560"/>
      <point x="540" y="477" type="qcurve"/>
      <point x="540" y="389"/>
      <point x="429" y="299"/>
      <point x="309" y="283" type="qcurve"/>
      <point x="309" y="277" type="line"/>
      <point x="345" y="263"/>
      <point x="389" y="227"/>
    </contour>
    <contour>
      <point x="453" y="470" type="qcurve"/>
      <point x="453" y="525"/>
      <point x="384" y="585"/>
      <point x="319" y="585" type="qcurve"/>
      <point x="182" y="585" type="line"/>
      <point x="182" y="319" type="line"/>
      <point x="228" y="325" type="line"/>
      <point x="349" y="339"/>
      <point x="453" y="404"/>
    </contour>
  </outline>
</glyph>
<glyph name="V" format="2">
  <advance width="614"/>
  <unicode hex="0056"/>
  <outline>
    <contour>
      <point x="255" y="0" type="line"/>
      <point x="40" y="655" type="line"/>
      <point x="131" y="655" type="line"/>
      <point x="310" y="98" type="line"/>
      <point x="488" y="655" type="line"/>
      <point x="574" y="655" type="line"/>
      <point x="360" y="0" type="line"/>
    </contour>
  </outline>
</glyph>
<glyph name="W" format="2">
  <advance width="614"/>
  <unicode hex="0057"/>
  <outline>
    <contour>
      <point x="568" y="655" type="line"/>
      <point x="479" y="0" type="line"/>
      <point x="390" y="0" type="line"/>
      <point x="305" y="353" type="line"/>
      <point x="221" y="0" type="line"/>
      <point x="134" y="0" type="line"/>
      <point x="46" y="655" type="line"/>
      <point x="131" y="655" type="line"/>
      <point x="193" y="121" type="line"/>
      <point x="296" y="531" type="line"/>
      <point x="320" y="531" type="line"/>
      <point x="424" y="119" type="line"/>
      <point x="486" y="655" type="line"/>
    </contour>
  </outline>
</glyph>
<glyph name="X" format="2">
  <advance width="614"/>
  <unicode hex="0058"/>
  <outline>
    <contour>
      <point x="141" y="0" type="line"/>
      <point x="46" y="0" type="line"/>
      <point x="257" y="336" type="line"/>
      <point x="60" y="655" type="line"/>
      <point x="161" y="655" type="line"/>
      <point x="307" y="403" type="line"/>
      <point x="452" y="655" type="line"/>
      <point x="550" y="655" type="line"/>
      <point x="354" y="341" type="line"/>
      <point x="568" y="0" type="line"/>
      <point x="465" y="0" type="line"/>
      <point x="304" y="273" type="line"/>
    </contour>
  </outline>
</glyph>
<glyph name="Y" format="2">
  <advance width="614"/>
  <unicode hex="0059"/>
  <outline>
    <contour>
      <point x="476" y="655" type="line"/>
      <point x="573" y="655" type="line"/>
      <point x="351" y="281" type="line"/>
      <point x="351" y="0" type="line"/>
      <point x="264" y="0" type="line"/>
      <point x="264" y="279" type="line"/>
      <point x="41" y="655" type="line"/>
      <point x="141" y="655" type="line"/>
      <point x="309" y="362" type="line"/>
    </contour>
  </outline>
</glyph>
<glyph name="Z" format="2">
  <advance width="614"/>
  <unicode hex="005A"/>
  <outline>
    <contour>
      <point x="548" y="0" type="line"/>
      <point x="67" y="0" type="line"/>
      <point x="67" y="57" type="line"/>
      <point x="417" y="575" type="line"/>
      <point x="417" y="580" type="line"/>
      <point x="83" y="580" type="line"/>
      <point x="83" y="655" type="line"/>
      <point x="533" y="655" type="line"/>
      <point x="533" y="598" type="line"/>
      <point x="180" y="80" type="line"/>
      <point x="180" y="74" type="line"/>
      <point x="548" y="74" type="line"/>
    </contour>
  </outline>
</glyph>
<glyph name="bracketright" format="2">
  <advance width="614"/>
  <unicode hex="005D"/>
  <outline>
    <contour>
      <point x="338" y="715" type="line"/>
      <point x="90" y="715" type="line"/>
      <point x="90" y="787" type="line"/>
      <point x="425" y="787" type="line"/>
      <point x="425" y="-135" type="line"/>
      <point x="90" y="-135" type="line"/>
      <point x="90" y="-63" type="line"/>
      <point x="338" y="-63" type="line"/>
    </contour>
  </outline>
</glyph>
<glyph name="a" format="2">
  <advance width="614"/>
  <unicode hex="0061"/>
  <outline>
    <contour>
      <point x="489" y="321" type="qcurve"/>
      <point x="489" y="117" type="line"/>
      <point x="489" y="87"/>
      <point x="505" y="67"/>
      <point x="530" y="65" type="qcurve"/>
      <point x="575" y="62" type="line"/>
      <point x="569" y="-4" type="line"/>
      <point x="522" y="-2" type="line"/>
      <point x="470" y="0"/>
      <point x="418" y="32"/>
      <point x="408" y="66" type="qcurve"/>
      <point x="399" y="66" type="line"/>
      <point x="353" y="28"/>
      <point x="260" y="-7"/>
      <point x="208" y="-7" type="qcurve"/>
      <point x="143" y="-7"/>
      <point x="67" y="64"/>
      <point x="67" y="125" type="qcurve"/>
      <point x="67" y="194"/>
      <point x="142" y="258"/>
      <point x="232" y="268" type="qcurve"/>
      <point x="405" y="288" type="line"/>
      <point x="405" y="323" type="line"/>
      <point x="405" y="370"/>
      <point x="353" y="403"/>
      <point x="283" y="403" type="qcurve"/>
      <point x="254" y="403"/>
      <point x="165" y="394"/>
      <point x="118" y="386" type="qcurve"/>
      <point x="109" y="455" type="line"/>
      <point x="159" y="464"/>
      <point x="252" y="473"/>
      <point x="286" y="473" type="qcurve"/>
      <point x="396" y="473"/>
      <point x="489" y="405"/>
    </contour>
    <contour>
      <point x="152" y="131" type="qcurve"/>
      <point x="152" y="96"/>
      <point x="190" y="60"/>
      <point x="227" y="60" type="qcurve"/>
      <point x="268" y="60"/>
      <point x="348" y="95"/>
      <point x="405" y="137" type="qcurve"/>
      <point x="405" y="232" type="line"/>
      <point x="247" y="211" type="line"/>
      <point x="196" y="204"/>
      <point x="152" y="169"/>
    </contour>
  </outline>
</glyph>
<glyph name="d" format="2">
  <advance width="614"/>
  <unicode hex="0064"/>
  <outline>
    <contour>
      <point x="266" y="-9" type="qcurve"/>
      <point x="177" y="-9"/>
      <point x="59" y="123"/>
      <point x="59" y="227" type="qcurve"/>
      <point x="59" y="334"/>
      <point x="192" y="472"/>
      <point x="294" y="472" type="qcurve"/>
      <point x="335" y="472"/>
      <point x="404" y="446"/>
      <point x="436" y="419" type="qcurve"/>
      <point x="436" y="710" type="line"/>
      <point x="522" y="710" type="line"/>
      <point x="522" y="0" type="line"/>
      <point x="449" y="0" type="line"/>
      <point x="441" y="77" type="line"/>
      <point x="397" y="31"/>
      <point x="316" y="-9"/>
    </contour>
    <contour>
      <point x="307" y="402" type="qcurve"/>
      <point x="235" y="402"/>
      <point x="147" y="307"/>
      <point x="147" y="230" type="qcurve"/>
      <point x="147" y="156"/>
      <point x="228" y="62"/>
      <point x="290" y="62" type="qcurve"/>
      <point x="327" y="62"/>
      <point x="394" y="100"/>
      <point x="436" y="142" type="qcurve"/>
      <point x="436" y="343" type="line"/>
      <point x="403" y="373"/>
      <point x="340" y="402"/>
    </contour>
  </outline>
</glyph>
<glyph name="e" format="2">
  <advance width="614"/>
  <unicode hex="0065"/>
  <outline>
    <contour>
      <point x="357" y="63" type="qcurve"/>
      <point x="453" y="60" type="line"/>
      <point x="450" y="-7" type="line"/>
      <point x="332" y="-5" type="line"/>
      <point x="203" y="-3"/>
      <point x="75" y="112"/>
      <point x="75" y="225" type="qcurve"/>
      <point x="75" y="336"/>
      <point x="212" y="480"/>
      <point x="317" y="480" type="qcurve"/>
      <point x="422" y="480"/>
      <point x="540" y="353"/>
      <point x="540" y="238" type="qcurve"/>
      <point x="540" y="227"/>
      <point x="538" y="209"/>
      <point x="537" y="202" type="qcurve"/>
      <point x="160" y="202" type="line"/>
      <point x="167" y="132"/>
      <point x="260" y="66"/>
    </contour>
    <contour>
      <point x="317" y="412" type="qcurve"/>
      <point x="256" y="412"/>
      <point x="171" y="333"/>
      <point x="162" y="266" type="qcurve"/>
      <point x="455" y="266" type="line"/>
      <point x="450" y="338"/>
      <point x="380" y="412"/>
    </contour>
  </outline>
</glyph>
<glyph name="f" format="2">
  <advance width="614"/>
  <unicode hex="0066"/>
  <outline>
    <contour>
      <point x="232" y="388" type="line"/>
      <point x="75" y="388" type="line"/>
      <point x="75" y="460" type="line"/>
      <point x="232" y="460" type="line"/>
      <point x="232" y="524" type="line"/>
      <point x="232" y="621"/>
      <point x="315" y="704"/>
      <point x="417" y="711" type="qcurve"/>
      <point x="545" y="719" type="line"/>
      <point x="551" y="646" type="line"/>
      <point x="426" y="637" type="line"/>
      <point x="365" y="633"/>
      <point x="316" y="586"/>
      <point x="316" y="527" type="qcurve"/>
      <point x="316" y="460" type="line"/>
      <point x="511" y="460" type="line"/>
      <point x="511" y="388" type="line"/>
      <point x="317" y="388" type="line"/>
      <point x="317" y="0" type="line"/>
      <point x="232" y="0" type="line"/>
    </contour>
  </outline>
</glyph>
<glyph name="g" format="2">
  <advance width="614"/>
  <unicode hex="0067"/>
  <outline>
    <contour>
      <point x="265" y="15" type="qcurve"/>
      <point x="176" y="15"/>
      <point x="59" y="141"/>
      <point x="59" y="240" type="qcurve"/>
      <point x="59" y="340"/>
      <point x="201" y="475"/>
      <point x="310" y="475" type="qcurve"/>
      <point x="348" y="475"/>
      <point x="418" y="457"/>
      <point x="451" y="439" type="qcurve"/>
      <point x="499" y="469" type="line"/>
      <point x="522" y="469" type="line"/>
      <point x="522" y="-9" type="line"/>
      <point x="522" y="-122"/>
      <point x="424" y="-224"/>
      <point x="310" y="-230" type="qcurve"/>
      <point x="138" y="-239" type="line"/>
      <point x="135" y="-166" type="line"/>
      <point x="299" y="-157" type="line"/>
      <point x="373" y="-153"/>
      <point x="437" y="-86"/>
      <point x="437" y="-12" type="qcurve"/>
      <point x="437" y="97" type="line"/>
      <point x="396" y="53"/>
      <point x="316" y="15"/>
    </contour>
    <contour>
      <point x="322" y="403" type="qcurve"/>
      <point x="243" y="403"/>
      <point x="147" y="312"/>
      <point x="147" y="242" type="qcurve"/>
      <point x="147" y="174"/>
      <point x="229" y="86"/>
      <point x="290" y="86" type="qcurve"/>
      <point x="327" y="86"/>
      <point x="394" y="124"/>
      <point x="437" y="167" type="qcurve"/>
      <point x="437" y="365" type="line"/>
      <point x="407" y="384"/>
      <point x="350" y="403"/>
    </contour>
  </outline>
</glyph>
<glyph name="i" format="2">
  <advance width="614"/>
  <unicode hex="0069"/>
  <outline>
    <contour>
      <point x="385" y="665" type="qcurve"/>
      <point x="385" y="636"/>
      <point x="345" y="603"/>
      <point x="310" y="603" type="qcurve"/>
      <point x="276" y="603"/>
      <point x="237" y="637"/>
      <point x="237" y="667" type="qcurve"/>
      <point x="237" y="695"/>
      <point x="278" y="730"/>
      <point x="312" y="730" type="qcurve"/>
      <point x="348" y="730"/>
      <point x="385" y="697"/>
    </contour>
    <contour>
      <point x="114" y="0" type="line"/>
      <point x="114" y="72" type="line"/>
      <point x="279" y="72" type="line"/>
      <point x="279" y="393" type="line"/>
      <point x="134" y="393" type="line"/>
      <point x="134" y="465" type="line"/>
      <point x="365" y="465" type="line"/>
      <point x="365" y="72" type="line"/>
      <point x="531" y="72" type="line"/>
      <point x="531" y="0" type="line"/>
    </contour>
  </outline>
</glyph>
<glyph name="j" format="2">
  <advance width="614"/>
  <unicode hex="006A"/>
  <outline>
    <contour>
      <point x="437" y="665" type="qcurve"/>
      <point x="437" y="636"/>
      <point x="397" y="603"/>
      <point x="362" y="603" type="qcurve"/>
      <point x="327" y="603"/>
      <point x="288" y="637"/>
      <point x="288" y="667" type="qcurve"/>
      <point x="288" y="694"/>
      <point x="330" y="729"/>
      <point x="363" y="729" type="qcurve"/>
      <point x="399" y="729"/>
      <point x="437" y="696"/>
    </contour>
    <contour>
      <point x="418" y="465" type="line"/>
      <point x="418" y="-49" type="line"/>
      <point x="418" y="-142"/>
      <point x="335" y="-224"/>
      <point x="234" y="-230" type="qcurve"/>
      <point x="103" y="-238" type="line"/>
      <point x="100" y="-164" type="line"/>
      <point x="228" y="-155" type="line"/>
      <point x="285" y="-150"/>
      <point x="332" y="-103"/>
      <point x="332" y="-50" type="qcurve"/>
      <point x="332" y="393" type="line"/>
      <point x="119" y="393" type="line"/>
      <point x="119" y="465" type="line"/>
    </contour>
  </outline>
</glyph>
<glyph name="k" format="2">
  <advance width="614"/>
  <unicode hex="006B"/>
  <outline>
    <contour>
      <point x="111" y="710" type="line"/>
      <point x="196" y="710" type="line"/>
      <point x="196" y="257" type="line"/>
      <point x="443" y="465" type="line"/>
      <point x="553" y="465" type="line"/>
      <point x="553" y="463" type="line"/>
      <point x="289" y="245" type="line"/>
      <point x="554" y="2" type="line"/>
      <point x="554" y="0" type="line"/>
      <point x="439" y="0" type="line"/>
      <point x="196" y="229" type="line"/>
      <point x="196" y="0" type="line"/>
      <point x="111" y="0" type="line"/>
    </contour>
  </outline>
</glyph>
<glyph name="l" format="2">
  <advance width="614"/>
  <unicode hex="006C"/>
  <outline>
    <contour>
      <point x="242" y="165" type="qcurve"/>
      <point x="242" y="638" type="line"/>
      <point x="59" y="638" type="line"/>
      <point x="59" y="710" type="line"/>
      <point x="327" y="710" type="line"/>
      <point x="327" y="174" type="line"/>
      <point x="327" y="121"/>
      <point x="368" y="76"/>
      <point x="419" y="74" type="qcurve"/>
      <point x="528" y="67" type="line"/>
      <point x="523" y="-7" type="line"/>
      <point x="404" y="0" type="line"/>
      <point x="312" y="5"/>
      <point x="242" y="77"/>
    </contour>
  </outline>
</glyph>
<glyph name="p" format="2">
  <advance width="614"/>
  <unicode hex="0070"/>
  <outline>
    <contour>
      <point x="178" y="-230" type="line"/>
      <point x="92" y="-230" type="line"/>
      <point x="92" y="465" type="line"/>
      <point x="165" y="465" type="line"/>
      <point x="173" y="384" type="line"/>
      <point x="217" y="432"/>
      <point x="298" y="474"/>
      <point x="349" y="474" type="qcurve"/>
      <point x="437" y="474"/>
      <point x="555" y="341"/>
      <point x="555" y="238" type="qcurve"/>
      <point x="555" y="132"/>
      <point x="424" y="-7"/>
      <point x="326" y="-7" type="qcurve"/>
      <point x="284" y="-7"/>
      <point x="213" y="23"/>
      <point x="178" y="55" type="qcurve"/>
    </contour>
    <contour>
      <point x="467" y="236" type="qcurve"/>
      <point x="467" y="309"/>
      <point x="385" y="403"/>
      <point x="324" y="403" type="qcurve"/>
      <point x="287" y="403"/>
      <point x="220" y="365"/>
      <point x="178" y="323" type="qcurve"/>
      <point x="178" y="123" type="line"/>
      <point x="211" y="93"/>
      <point x="274" y="64"/>
      <point x="306" y="64" type="qcurve"/>
      <point x="379" y="64"/>
      <point x="467" y="159"/>
    </contour>
  </outline>
</glyph>
<glyph name="r" format="2">
  <advance width="614"/>
  <unicode hex="0072"/>
  <outline>
    <contour>
      <point x="51" y="0" type="line"/>
      <point x="51" y="72" type="line"/>
      <point x="173" y="72" type="line"/>
      <point x="173" y="393" type="line"/>
      <point x="71" y="393" type="line"/>
      <point x="71" y="465" type="line"/>
      <point x="249" y="465" type="line"/>
      <point x="254" y="303" type="line"/>
      <point x="317" y="392"/>
      <point x="397" y="459"/>
      <point x="458" y="463" type="qcurve"/>
      <point x="556" y="469" type="line"/>
      <point x="562" y="384" type="line"/>
      <point x="467" y="376" type="line"/>
      <point x="419" y="373"/>
      <point x="373" y="352"/>
      <point x="347" y="327" type="qcurve"/>
      <point x="332" y="314"/>
      <point x="293" y="269"/>
      <point x="258" y="227" type="qcurve"/>
      <point x="258" y="72" type="line"/>
      <point x="407" y="72" type="line"/>
      <point x="407" y="0" type="line"/>
    </contour>
  </outline>
</glyph>
<glyph name="v" format="2">
  <advance width="614"/>
  <unicode hex="0076"/>
  <outline>
    <contour>
      <point x="257" y="0" type="line"/>
      <point x="55" y="465" type="line"/>
      <point x="151" y="465" type="line"/>
      <point x="309" y="77" type="line"/>
      <point x="468" y="465" type="line"/>
      <point x="559" y="465" type="line"/>
      <point x="358" y="0" type="line"/>
    </contour>
  </outline>
</glyph>
<glyph name="y" format="2">
  <advance width="614"/>
  <unicode hex="0079"/>
  <outline>
    <contour>
      <point x="560" y="465" type="line"/>
      <point x="311" y="-123" type="line"/>
      <point x="288" y="-177"/>
      <point x="220" y="-226"/>
      <point x="158" y="-229" type="qcurve"/>
      <point x="47" y="-234" type="line"/>
      <point x="45" y="-161" type="line"/>
      <point x="139" y="-156" type="line"/>
      <point x="181" y="-154"/>
      <point x="218" y="-132"/>
      <point x="232" y="-103" type="qcurve"/>
      <point x="266" y="-26" type="line"/>
      <point x="57" y="465" type="line"/>
      <point x="153" y="465" type="line"/>
      <point x="313" y="73" type="line"/>
      <point x="469" y="465" type="line"/>
    </contour>
  </outline>
</glyph>
<glyph name="z" format="2">
  <advance width="614"/>
  <unicode hex="007A"/>
  <outline>
    <contour>
      <point x="539" y="0" type="line"/>
      <point x="86" y="0" type="line"/>
      <point x="86" y="59" type="line"/>
      <point x="404" y="393" type="line"/>
      <point x="404" y="396" type="line"/>
      <point x="98" y="396" type="line"/>
      <point x="98" y="465" type="line"/>
      <point x="523" y="465" type="line"/>
      <point x="523" y="405" type="line"/>
      <point x="209" y="73" type="line"/>
      <point x="209" y="70" type="line"/>
      <point x="539" y="70" type="line"/>
    </contour>
  </outline>
</glyph>
<glyph name="braceleft" format="2">
  <advance width="614"/>
  <unicode hex="007B"/>
  <outline>
    <contour>
      <point x="195" y="-17" type="qcurve"/>
      <point x="195" y="4"/>
      <point x="220" y="50"/>
      <point x="247" y="79" type="qcurve"/>
      <point x="295" y="134" type="line"/>
      <point x="314" y="156"/>
      <point x="328" y="178"/>
      <point x="328" y="188" type="qcurve"/>
      <point x="328" y="206"/>
      <point x="274" y="234"/>
      <point x="211" y="254" type="qcurve"/>
      <point x="184" y="262"/>
      <point x="116" y="281"/>
      <point x="74" y="292" type="qcurve"/>
      <point x="74" y="370" type="line"/>
      <point x="116" y="381"/>
      <point x="184" y="400"/>
      <point x="211" y="408" type="qcurve"/>
      <point x="274" y="427"/>
      <point x="328" y="455"/>
      <point x="328" y="474" type="qcurve"/>
      <point x="328" y="484"/>
      <point x="314" y="506"/>
      <point x="295" y="529" type="qcurve"/>
      <point x="247" y="583" type="line"/>
      <point x="220" y="612"/>
      <point x="195" y="658"/>
      <point x="195" y="679" type="qcurve"/>
      <point x="195" y="717"/>
      <point x="248" y="759"/>
      <point x="305" y="768" type="qcurve"/>
      <point x="537" y="801" type="line"/>
      <point x="547" y="730" type="line"/>
      <point x="326" y="699" type="line"/>
      <point x="306" y="696"/>
      <point x="287" y="682"/>
      <point x="287" y="670" type="qcurve"/>
      <point x="287" y="662"/>
      <point x="301" y="640"/>
      <point x="318" y="620" type="qcurve"/>
      <point x="367" y="565" type="line"/>
      <point x="398" y="530"/>
      <point x="423" y="490"/>
      <point x="423" y="470" type="qcurve"/>
      <point x="423" y="439"/>
      <point x="367" y="399"/>
      <point x="302" y="377" type="qcurve"/>
      <point x="272" y="367"/>
      <point x="193" y="345"/>
      <point x="144" y="333" type="qcurve"/>
      <point x="144" y="329" type="line"/>
      <point x="193" y="317"/>
      <point x="272" y="295"/>
      <point x="302" y="285" type="qcurve"/>
      <point x="367" y="263"/>
      <point x="423" y="223"/>
      <point x="423" y="192" type="qcurve"/>
      <point x="423" y="172"/>
      <point x="398" y="132"/>
      <point x="367" y="97" type="qcurve"/>
      <point x="318" y="42" type="line"/>
      <point x="301" y="22"/>
      <point x="287" y="0"/>
      <point x="287" y="-8" type="qcurve"/>
      <point x="287" y="-20"/>
      <point x="306" y="-34"/>
      <point x="326" y="-37" type="qcurve"/>
      <point x="547" y="-68" type="line"/>
      <point x="537" y="-139" type="line"/>
      <point x="305" y="-106" type="line"/>
      <point x="248" y="-97"/>
      <point x="195" y="-55"/>
    </contour>
  </outline>
</glyph>
<glyph name="braceright" format="2">
  <advance width="614"/>
  <unicode hex="007D"/>
  <outline>
    <contour>
      <point x="419" y="-17" type="qcurve"/>
      <point x="419" y="-55"/>
      <point x="366" y="-97"/>
      <point x="309" y="-106" type="qcurve"/>
      <point x="77" y="-139" type="line"/>
      <point x="67" y="-68" type="line"/>
      <point x="288" y="-37" type="line"/>
      <point x="308" y="-34"/>
      <point x="327" y="-20"/>
      <point x="327" y="-8" type="qcurve"/>
      <point x="327" y="0"/>
      <point x="313" y="22"/>
      <point x="296" y="42" type="qcurve"/>
      <point x="247" y="97" type="line"/>
      <point x="216" y="132"/>
      <point x="191" y="172"/>
      <point x="191" y="192" type="qcurve"/>
      <point x="191" y="223"/>
      <point x="247" y="263"/>
      <point x="312" y="285" type="qcurve"/>
      <point x="342" y="295"/>
      <point x="421" y="317"/>
      <point x="470" y="329" type="qcurve"/>
      <point x="470" y="333" type="line"/>
      <point x="421" y="345"/>
      <point x="342" y="367"/>
      <point x="312" y="377" type="qcurve"/>
      <point x="247" y="399"/>
      <point x="191" y="439"/>
      <point x="191" y="470" type="qcurve"/>
      <point x="191" y="490"/>
      <point x="216" y="530"/>
      <point x="247" y="565" type="qcurve"/>
      <point x="296" y="620" type="line"/>
      <point x="313" y="640"/>
      <point x="327" y="662"/>
      <point x="327" y="670" type="qcurve"/>
      <point x="327" y="682"/>
      <point x="308" y="696"/>
      <point x="288" y="699" type="qcurve"/>
      <point x="67" y="730" type="line"/>
      <point x="77" y="801" type="line"/>
      <point x="309" y="768" type="line"/>
      <point x="366" y="759"/>
      <point x="419" y="717"/>
      <point x="419" y="679" type="qcurve"/>
      <point x="419" y="658"/>
      <point x="394" y="612"/>
      <point x="367" y="583" type="qcurve"/>
      <point x="319" y="529" type="line"/>
      <point x="300" y="506"/>
      <point x="286" y="484"/>
      <point x="286" y="474" type="qcurve"/>
      <point x="286" y="456"/>
      <point x="340" y="428"/>
      <point x="403" y="408" type="qcurve"/>
      <point x="430" y="400"/>
      <point x="498" y="381"/>
      <point x="540" y="370" type="qcurve"/>
      <point x="540" y="292" type="line"/>
      <point x="498" y="281"/>
      <point x="430" y="262"/>
      <point x="403" y="254" type="qcurve"/>
      <point x="340" y="234"/>
      <point x="286" y="206"/>
      <point x="286" y="188" type="qcurve"/>
      <point x="286" y="178"/>
      <point x="300" y="156"/>
      <point x="319" y="134" type="qcurve"/>
      <point x="367" y="79" type="line"/>
      <point x="394" y="50"/>
      <point x="419" y="4"/>
    </contour>
  </outline>
</glyph>
<glyph name="asciitilde" format="2">
  <advance width="614"/>
  <unicode hex="007E"/>
  <outline>
    <contour>
      <point x="507" y="447" type="qcurve"/>
      <point x="574" y="424" type="line"/>
      <point x="537" y="313"/>
      <point x="473" y="222"/>
      <point x="426" y="222" type="qcurve"/>
      <point x="404" y="222"/>
      <point x="357" y="247"/>
      <point x="295" y="294" type="qcurve"/>
      <point x="244" y="333"/>
      <point x="204" y="357"/>
      <point x="188" y="357" type="qcurve"/>
      <point x="173" y="357"/>
      <point x="145" y="310"/>
      <point x="107" y="215" type="qcurve"/>
      <point x="40" y="238" type="line"/>
      <point x="77" y="350"/>
      <point x="141" y="441"/>
      <point x="188" y="441" type="qcurve"/>
      <point x="210" y="441"/>
      <point x="257" y="416"/>
      <point x="319" y="369" type="qcurve"/>
      <point x="370" y="330"/>
      <point x="410" y="306"/>
      <point x="426" y="306" type="qcurve"/>
      <point x="441" y="306"/>
      <point x="469" y="352"/>
    </contour>
  </outline>
</glyph>
<glyph name="exclamdown" format="2">
  <advance width="614"/>
  <unicode hex="00A1"/>
  <outline>
    <contour>
      <point x="230" y="662" type="qcurve"/>
      <point x="230" y="693"/>
      <point x="271" y="725"/>
      <point x="310" y="725" type="qcurve"/>
      <point x="349" y="725"/>
      <point x="389" y="692"/>
      <point x="389" y="660" type="qcurve"/>
      <point x="389" y="630"/>
      <point x="347" y="597"/>
      <point x="308" y="597" type="qcurve"/>
      <point x="268" y="597"/>
      <point x="230" y="629"/>
    </contour>
    <contour>
      <point x="280" y="468" type="line"/>
      <point x="334" y="468" type="line"/>
      <point x="389" y="0" type="line"/>
      <point x="225" y="0" type="line"/>
    </contour>
  </outline>
</glyph>
<glyph name="sterling" format="2">
  <advance width="614"/>
  <unicode hex="00A3"/>
  <outline>
    <contour>
      <point x="551" y="0" type="line"/>
      <point x="74" y="0" type="line"/>
      <point x="74" y="70" type="line"/>
      <point x="153" y="145"/>
      <point x="224" y="225"/>
      <point x="232" y="249" type="qcurve"/>
      <point x="82" y="249" type="line"/>
      <point x="82" y="305" type="line"/>
      <point x="230" y="305" type="line"/>
      <point x="225" y="314"/>
      <point x="202" y="339"/>
      <point x="168" y="372" type="qcurve"/>
      <point x="128" y="410"/>
      <point x="98" y="468"/>
      <point x="98" y="509" type="qcurve"/>
      <point x="98" y="577"/>
      <point x="214" y="670"/>
      <point x="304" y="670" type="qcurve"/>
      <point x="374" y="670"/>
      <point x="491" y="610"/>
      <point x="544" y="547" type="qcurve"/>
      <point x="488" y="493" type="line"/>
      <point x="440" y="549"/>
      <point x="356" y="598"/>
      <point x="307" y="598" type="qcurve"/>
      <point x="254" y="598"/>
      <point x="187" y="546"/>
      <point x="187" y="507" type="qcurve"/>
      <point x="187" y="479"/>
      <point x="210" y="435"/>
      <point x="237" y="409" type="qcurve"/>
      <point x="273" y="374"/>
      <point x="307" y="329"/>
      <point x="312" y="309" type="qcurve"/>
      <point x="505" y="309" type="line"/>
      <point x="505" y="252" type="line"/>
      <point x="313" y="252" type="line"/>
      <point x="308" y="222"/>
      <point x="247" y="143"/>
      <point x="176" y="72" type="qcurve"/>
      <point x="551" y="72" type="line"/>
    </contour>
  </outline>
</glyph>
<glyph name="copyright" format="2">
  <advance width="614"/>
  <unicode hex="00A9"/>
  <outline>
    <contour>
      <point x="307" y="725" type="qcurve"/>
      <point x="438" y="725"/>
      <point x="557" y="533"/>
      <point x="557" y="328" type="qcurve"/>
      <point x="557" y="123"/>
      <point x="437" y="-70"/>
      <point x="307" y="-70" type="qcurve"/>
      <point x="177" y="-70"/>
      <point x="57" y="123"/>
      <point x="57" y="328" type="qcurve"/>
      <point x="57" y="532"/>
      <point x="177" y="725"/>
    </contour>
    <contour>
      <point x="307" y="680" type="qcurve"/>
      <point x="199" y="680"/>
      <point x="105" y="512"/>
      <point x="105" y="328" type="qcurve"/>
      <point x="105" y="144"/>
      <point x="199" y="-25"/>
      <point x="307" y="-25" type="qcurve"/>
      <point x="415" y="-25"/>
      <point x="509" y="143"/>
      <point x="509" y="328" type="qcurve"/>
      <point x="509" y="513"/>
      <point x="415" y="680"/>
    </contour>
    <contour>
      <point x="309" y="97" type="qcurve"/>
      <point x="248" y="97"/>
      <point x="181" y="217"/>
      <point x="181" y="326" type="qcurve"/>
      <point x="181" y="429"/>
      <point x="257" y="558"/>
      <point x="318" y="558" type="qcurve"/>
      <point x="356" y="558"/>
      <point x="407" y="519"/>
      <point x="440" y="469" type="qcurve"/>
      <point x="398" y="436" type="line"/>
      <point x="370" y="476"/>
      <point x="338" y="504"/>
      <point x="318" y="504" type="qcurve"/>
      <point x="284" y="504"/>
      <point x="243" y="408"/>
      <point x="243" y="328" type="qcurve"/>
      <point x="243" y="244"/>
      <point x="281" y="151"/>
      <point x="315" y="151" type="qcurve"/>
      <point x="340" y="151"/>
      <point x="379" y="181"/>
      <point x="404" y="216" type="qcurve"/>
      <point x="444" y="186" type="line"/>
      <point x="411" y="139"/>
      <point x="351" y="97"/>
    </contour>
  </outline>
</glyph>
<glyph name="plusminus" format="2">
  <advance width="614"/>
  <unicode hex="00B1"/>
  <outline>
    <contour>
      <point x="266" y="400" type="line"/>
      <point x="70" y="400" type="line"/>
      <point x="70" y="471" type="line"/>
      <point x="266" y="471" type="line"/>
      <point x="266" y="655" type="line"/>
      <point x="347" y="655" type="line"/>
      <point x="347" y="471" type="line"/>
      <point x="544" y="471" type="line"/>
      <point x="544" y="400" type="line"/>
      <point x="347" y="400" type="line"/>
      <point x="347" y="214" type="line"/>
      <point x="266" y="214" type="line"/>
    </contour>
    <contour>
      <point x="544" y="71" type="line"/>
      <point x="544" y="0" type="line"/>
      <point x="70" y="0" type="line"/>
      <point x="70" y="71" type="line"/>
    </contour>
  </outline>
</glyph>
<glyph name="paragraph" format="2">
  <advance width="614"/>
  <unicode hex="00B6"/>
  <outline>
    <contour>
      <point x="329" y="604" type="line"/>
      <point x="329" y="285" type="line"/>
      <point x="325" y="285" type="line"/>
      <point x="200" y="285"/>
      <point x="75" y="384"/>
      <point x="75" y="482" type="qcurve"/>
      <point x="75" y="576"/>
      <point x="198" y="670"/>
      <point x="321" y="670" type="qcurve"/>
      <point x="518" y="670" type="line"/>
      <point x="518" y="0" type="line"/>
      <point x="433" y="0" type="line"/>
      <point x="433" y="604" type="line"/>
    </contour>
  </outline>
</glyph>
<glyph name="questiondown" format="2">
  <advance width="614"/>
  <unicode hex="00BF"/>
  <outline>
    <contour>
      <point x="292" y="662" type="qcurve"/>
      <point x="292" y="693"/>
      <point x="333" y="725"/>
      <point x="372" y="725" type="qcurve"/>
      <point x="411" y="725"/>
      <point x="451" y="692"/>
      <point x="451" y="660" type="qcurve"/>
      <point x="451" y="630"/>
      <point x="409" y="597"/>
      <point x="370" y="597" type="qcurve"/>
      <point x="330" y="597"/>
      <point x="292" y="629"/>
    </contour>
    <contour>
      <point x="339" y="468" type="qcurve"/>
      <point x="394" y="468" type="line"/>
      <point x="402" y="423"/>
      <point x="408" y="378"/>
      <point x="408" y="367" type="qcurve"/>
      <point x="408" y="349"/>
      <point x="389" y="328"/>
      <point x="358" y="313" type="qcurve"/>
      <point x="263" y="267" type="line"/>
      <point x="209" y="240"/>
      <point x="167" y="193"/>
      <point x="167" y="156" type="qcurve"/>
      <point x="167" y="107"/>
      <point x="229" y="57"/>
      <point x="290" y="57" type="qcurve"/>
      <point x="333" y="57"/>
      <point x="443" y="85"/>
      <point x="527" y="117" type="qcurve"/>
      <point x="550" y="44" type="line"/>
      <point x="460" y="11"/>
      <point x="344" y="-15"/>
      <point x="280" y="-15" type="qcurve"/>
      <point x="182" y="-15"/>
      <point x="77" y="74"/>
      <point x="77" y="157" type="qcurve"/>
      <point x="77" y="214"/>
      <point x="133" y="285"/>
      <point x="214" y="327" type="qcurve"/>
      <point x="297" y="370" type="line"/>
      <point x="320" y="382"/>
      <point x="333" y="413"/>
    </contour>
  </outline>
</glyph>
<glyph name="Aring" format="2">
  <advance width="614"/>
  <unicode hex="00C5"/>
  <outline>
    <contour>
      <point x="184" y="178" type="line"/>
      <point x="128" y="0" type="line"/>
      <point x="40" y="0" type="line"/>
      <point x="236" y="599" type="line"/>
      <point x="196" y="612"/>
      <point x="152" y="669"/>
      <point x="152" y="708" type="qcurve"/>
      <point x="152" y="763"/>
      <point x="236" y="829"/>
      <point x="307" y="829" type="qcurve"/>
      <point x="377" y="829"/>
      <point x="460" y="765"/>
      <point x="460" y="710" type="qcurve"/>
      <point x="460" y="671"/>
      <point x="418" y="615"/>
      <point x="379" y="601" type="qcurve"/>
      <point x="574" y="0" type="line"/>
      <point x="483" y="0" type="line"/>
      <point x="425" y="178" type="line"/>
    </contour>
    <contour>
      <point x="214" y="707" type="qcurve"/>
      <point x="214" y="676"/>
      <point x="261" y="643"/>
      <point x="306" y="643" type="qcurve"/>
      <point x="352" y="643"/>
      <point x="397" y="676"/>
      <point x="397" y="711" type="qcurve"/>
      <point x="397" y="742"/>
      <point x="351" y="775"/>
      <point x="306" y="775" type="qcurve"/>
      <point x="260" y="775"/>
      <point x="214" y="741"/>
    </contour>
    <contour>
      <point x="304" y="566" type="line"/>
      <point x="206" y="248" type="line"/>
      <point x="404" y="248" type="line"/>
    </contour>
  </outline>
</glyph>
<glyph name="Ccedilla" format="2">
  <advance width="614"/>
  <unicode hex="00C7"/>
  <outline>
    <contour>
      <point x="487" y="-153" type="qcurve"/>
      <point x="487" y="-192"/>
      <point x="439" y="-234"/>
      <point x="386" y="-247" type="qcurve"/>
      <point x="357" y="-255"/>
      <point x="282" y="-266"/>
      <point x="234" y="-270" type="qcurve"/>
      <point x="217" y="-215" type="line"/>
      <point x="325" y="-206"/>
      <point x="417" y="-181"/>
      <point x="417" y="-155" type="qcurve"/>
      <point x="417" y="-132"/>
      <point x="353" y="-113"/>
      <point x="278" y="-111" type="qcurve"/>
      <point x="272" y="-101" type="line"/>
      <point x="302" y="-14" type="line"/>
      <point x="185" y="-7"/>
      <point x="56" y="171"/>
      <point x="56" y="326" type="qcurve"/>
      <point x="56" y="479"/>
      <point x="214" y="670"/>
      <point x="339" y="670" type="qcurve"/>
      <point x="394" y="670"/>
      <point x="489" y="631"/>
      <point x="558" y="580" type="qcurve"/>
      <point x="514" y="517" type="line"/>
      <point x="459" y="560"/>
      <point x="380" y="598"/>
      <point x="340" y="598" type="qcurve"/>
      <point x="253" y="598"/>
      <point x="145" y="451"/>
      <point x="145" y="328" type="qcurve"/>
      <point x="145" y="198"/>
      <point x="246" y="57"/>
      <point x="336" y="57" type="qcurve"/>
      <point x="376" y="57"/>
      <point x="466" y="97"/>
      <point x="523" y="141" type="qcurve"/>
      <point x="564" y="82" type="line"/>
      <point x="506" y="37"/>
      <point x="403" y="-9"/>
      <point x="352" y="-14" type="qcurve"/>
      <point x="336" y="-64" type="line"/>
      <point x="417" y="-72"/>
      <point x="487" y="-112"/>
    </contour>
  </outline>
</glyph>
<glyph name="Eth" format="2">
  <advance width="614"/>
  <unicode hex="00D0"/>
  <outline>
    <contour>
      <point x="113" y="303" type="line"/>
      <point x="30" y="303" type="line"/>
      <point x="30" y="357" type="line"/>
      <point x="113" y="357" type="line"/>
      <point x="113" y="655" type="line"/>
      <point x="200" y="655" type="line"/>
      <point x="372" y="655"/>
      <point x="562" y="488"/>
      <point x="562" y="336" type="qcurve"/>
      <point x="562" y="175"/>
      <point x="356" y="0"/>
      <point x="166" y="0" type="qcurve"/>
      <point x="113" y="0" type="line"/>
    </contour>
    <contour>
      <point x="322" y="357" type="line"/>
      <point x="322" y="303" type="line"/>
      <point x="198" y="303" type="line"/>
      <point x="198" y="71" type="line"/>
      <point x="334" y="74"/>
      <point x="474" y="208"/>
      <point x="474" y="334" type="qcurve"/>
      <point x="474" y="458"/>
      <point x="334" y="585"/>
      <point x="198" y="585" type="qcurve"/>
      <point x="198" y="357" type="line"/>
    </contour>
  </outline>
</glyph>
<glyph name="multiply" format="2">
  <advance width="614"/>
  <unicode hex="00D7"/>
  <outline>
    <contour>
      <point x="304" y="276" type="line"/>
      <point x="135" y="105" type="line"/>
      <point x="83" y="157" type="line"/>
      <point x="254" y="326" type="line"/>
      <point x="85" y="492" type="line"/>
      <point x="142" y="548" type="line"/>
      <point x="308" y="380" type="line"/>
      <point x="478" y="551" type="line"/>
      <point x="530" y="499" type="line"/>
      <point x="358" y="330" type="line"/>
      <point x="528" y="163" type="line"/>
      <point x="471" y="107" type="line"/>
    </contour>
  </outline>
</glyph>
<glyph name="Oslash" format="2">
  <advance width="614"/>
  <unicode hex="00D8"/>
  <outline>
    <contour>
      <point x="558" y="329" type="qcurve"/>
      <point x="558" y="165"/>
      <point x="425" y="-15"/>
      <point x="306" y="-15" type="qcurve"/>
      <point x="266" y="-15"/>
      <point x="195" y="9"/>
      <point x="166" y="32" type="qcurve"/>
      <point x="109" y="-71" type="line"/>
      <point x="31" y="-71" type="line"/>
      <point x="125" y="75" type="line"/>
      <point x="91" y="120"/>
      <point x="56" y="246"/>
      <point x="56" y="325" type="qcurve"/>
      <point x="56" y="488"/>
      <point x="190" y="670"/>
      <point x="308" y="670" type="qcurve"/>
      <point x="348" y="670"/>
      <point x="418" y="646"/>
      <point x="447" y="623" type="qcurve"/>
      <point x="504" y="726" type="line"/>
      <point x="583" y="726" type="line"/>
      <point x="489" y="579" type="line"/>
      <point x="523" y="533"/>
      <point x="558" y="406"/>
    </contour>
    <contour>
      <point x="307" y="598" type="qcurve"/>
      <point x="228" y="598"/>
      <point x="145" y="460"/>
      <point x="145" y="327" type="qcurve"/>
      <point x="145" y="270"/>
      <point x="159" y="180"/>
      <point x="173" y="147" type="qcurve"/>
      <point x="410" y="556" type="line"/>
      <point x="390" y="577"/>
      <point x="339" y="598"/>
    </contour>
    <contour>
      <point x="307" y="57" type="qcurve"/>
      <point x="386" y="57"/>
      <point x="469" y="194"/>
      <point x="469" y="327" type="qcurve"/>
      <point x="469" y="385"/>
      <point x="454" y="475"/>
      <point x="440" y="508" type="qcurve"/>
      <point x="204" y="99" type="line"/>
      <point x="224" y="78"/>
      <point x="275" y="57"/>
    </contour>
  </outline>
</glyph>
<glyph name="Thorn" format="2">
  <advance width="614"/>
  <unicode hex="00DE"/>
  <outline>
    <contour>
      <point x="95" y="0" type="line"/>
      <point x="95" y="655" type="line"/>
      <point x="182" y="655" type="line"/>
      <point x="182" y="507" type="line"/>
      <point x="350" y="507" type="line"/>
      <point x="453" y="507"/>
      <point x="569" y="413"/>
      <point x="569" y="330" type="qcurve"/>
      <point x="569" y="245"/>
      <point x="445" y="148"/>
      <point x="338" y="148" type="qcurve"/>
      <point x="182" y="148" type="line"/>
      <point x="182" y="0" type="line"/>
    </contour>
    <contour>
      <point x="481" y="328" type="qcurve"/>
      <point x="481" y="379"/>
      <point x="414" y="434"/>
      <point x="351" y="434" type="qcurve"/>
      <point x="182" y="434" type="line"/>
      <point x="182" y="219" type="line"/>
      <point x="344" y="219" type="line"/>
      <point x="409" y="219"/>
      <point x="481" y="277"/>
    </contour>
  </outline>
</glyph>
<glyph name="germandbls" format="2">
  <advance width="614"/>
  <unicode hex="00DF"/>
  <outline>
    <contour>
      <point x="474" y="140" type="qcurve"/>
      <point x="474" y="182"/>
      <point x="399" y="270"/>
      <point x="308" y="343" type="qcurve"/>
      <point x="308" y="378" type="line"/>
      <point x="376" y="445"/>
      <point x="433" y="527"/>
      <point x="433" y="566" type="qcurve"/>
      <point x="433" y="605"/>
      <point x="374" y="653"/>
      <point x="326" y="653" type="qcurve"/>
      <point x="255" y="653"/>
      <point x="177" y="565"/>
      <point x="177" y="485" type="qcurve"/>
      <point x="177" y="0" type="line"/>
      <point x="91" y="0" type="line"/>
      <point x="91" y="485" type="line"/>
      <point x="91" y="594"/>
      <point x="219" y="725"/>
      <point x="327" y="725" type="qcurve"/>
      <point x="415" y="725"/>
      <point x="522" y="641"/>
      <point x="522" y="573" type="qcurve"/>
      <point x="522" y="520"/>
      <point x="468" y="435"/>
      <point x="398" y="367" type="qcurve"/>
      <point x="490" y="293"/>
      <point x="564" y="195"/>
      <point x="564" y="136" type="qcurve"/>
      <point x="564" y="73"/>
      <point x="484" y="4"/>
      <point x="406" y="0" type="qcurve"/>
      <point x="322" y="-5" type="line"/>
      <point x="317" y="69" type="line"/>
      <point x="398" y="75" type="line"/>
      <point x="436" y="78"/>
      <point x="474" y="110"/>
    </contour>
  </outline>
</glyph>
<glyph name="ccedilla" format="2">
  <advance width="614"/>
  <unicode hex="00E7"/>
  <outline>
    <contour>
      <point x="328" y="407" type="qcurve"/>
      <point x="253" y="407"/>
      <point x="159" y="311"/>
      <point x="159" y="235" type="qcurve"/>
      <point x="159" y="157"/>
      <point x="249" y="58"/>
      <point x="319" y="58" type="qcurve"/>
      <point x="364" y="58"/>
      <point x="451" y="86"/>
      <point x="508" y="118" type="qcurve"/>
      <point x="545" y="58" type="line"/>
      <point x="482" y="21"/>
      <point x="381" y="-13"/>
      <point x="327" y="-15" type="qcurve"/>
      <point x="311" y="-64" type="line"/>
      <point x="392" y="-72"/>
      <point x="462" y="-112"/>
      <point x="462" y="-153" type="qcurve"/>
      <point x="462" y="-192"/>
      <point x="414" y="-234"/>
      <point x="361" y="-247" type="qcurve"/>
      <point x="332" y="-255"/>
      <point x="257" y="-266"/>
      <point x="209" y="-270" type="qcurve"/>
      <point x="192" y="-215" type="line"/>
      <point x="300" y="-206"/>
      <point x="392" y="-181"/>
      <point x="392" y="-155" type="qcurve"/>
      <point x="392" y="-132"/>
      <point x="328" y="-113"/>
      <point x="253" y="-111" type="qcurve"/>
      <point x="247" y="-101" type="line"/>
      <point x="278" y="-13" type="line"/>
      <point x="182" y="-1"/>
      <point x="70" y="132"/>
      <point x="70" y="236" type="qcurve"/>
      <point x="70" y="339"/>
      <point x="218" y="480"/>
      <point x="327" y="480" type="qcurve"/>
      <point x="383" y="480"/>
      <point x="483" y="445"/>
      <point x="543" y="405" type="qcurve"/>
      <point x="503" y="342" type="line"/>
      <point x="449" y="377"/>
      <point x="371" y="407"/>
    </contour>
  </outline>
</glyph>
<glyph name="eth" format="2">
  <advance width="614"/>
  <unicode hex="00F0"/>
  <outline>
    <contour>
      <point x="346" y="669" type="qcurve"/>
      <point x="427" y="748" type="line"/>
      <point x="468" y="710" type="line"/>
      <point x="393" y="640" type="line"/>
      <point x="473" y="582"/>
      <point x="550" y="428"/>
      <point x="550" y="323" type="qcurve"/>
      <point x="550" y="164"/>
      <point x="411" y="-15"/>
      <point x="289" y="-15" type="qcurve"/>
      <point x="187" y="-15"/>
      <point x="64" y="109"/>
      <point x="64" y="212" type="qcurve"/>
      <point x="64" y="303"/>
      <point x="193" y="424"/>
      <point x="293" y="424" type="qcurve"/>
      <point x="341" y="424"/>
      <point x="423" y="402"/>
      <point x="463" y="379" type="qcurve"/>
      <point x="455" y="449"/>
      <point x="397" y="545"/>
      <point x="339" y="583" type="qcurve"/>
      <point x="235" y="483" type="line"/>
      <point x="195" y="522" type="line"/>
      <point x="292" y="612" type="line"/>
      <point x="268" y="626"/>
      <point x="209" y="647"/>
      <point x="169" y="655" type="qcurve"/>
      <point x="191" y="725" type="line"/>
      <point x="238" y="715"/>
      <point x="314" y="687"/>
    </contour>
    <contour>
      <point x="306" y="357" type="qcurve"/>
      <point x="234" y="357"/>
      <point x="151" y="279"/>
      <point x="151" y="211" type="qcurve"/>
      <point x="151" y="142"/>
      <point x="230" y="57"/>
      <point x="293" y="57" type="qcurve"/>
      <point x="373" y="57"/>
      <point x="461" y="187"/>
      <point x="464" y="311" type="qcurve"/>
      <point x="419" y="336"/>
      <point x="347" y="357"/>
    </contour>
  </outline>
</glyph>
<glyph name="Hbar" format="2">
  <advance width="614"/>
  <unicode hex="0126"/>
  <outline>
    <contour>
      <point x="113" y="473" type="line"/>
      <point x="30" y="473" type="line"/>
      <point x="30" y="526" type="line"/>
      <point x="113" y="526" type="line"/>
      <point x="113" y="655" type="line"/>
      <point x="198" y="655" type="line"/>
      <point x="198" y="524" type="line"/>
      <point x="416" y="524" type="line"/>
      <point x="416" y="655" type="line"/>
      <point x="501" y="655" type="line"/>
      <point x="501" y="526" type="line"/>
      <point x="584" y="526" type="line"/>
      <point x="584" y="473" type="line"/>
      <point x="501" y="473" type="line"/>
      <point x="501" y="0" type="line"/>
      <point x="416" y="0" type="line"/>
      <point x="416" y="266" type="line"/>
      <point x="198" y="266" type="line"/>
      <point x="198" y="0" type="line"/>
      <point x="113" y="0" type="line"/>
    </contour>
    <contour>
      <point x="198" y="474" type="line"/>
      <point x="198" y="336" type="line"/>
      <point x="416" y="336" type="line"/>
      <point x="416" y="474" type="line"/>
    </contour>
  </outline>
</glyph>
<glyph name="Iogonek" format="2">
  <advance width="614"/>
  <unicode hex="012E"/>
  <outline>
    <contour>
      <point x="131" y="0" type="line"/>
      <point x="131" y="43" type="line"/>
      <point x="264" y="66" type="line"/>
      <point x="264" y="589" type="line"/>
      <point x="131" y="612" type="line"/>
      <point x="131" y="655" type="line"/>
      <point x="483" y="655" type="line"/>
      <point x="483" y="612" type="line"/>
      <point x="351" y="589" type="line"/>
      <point x="351" y="66" type="line"/>
      <point x="483" y="43" type="line"/>
      <point x="483" y="0" type="line"/>
      <point x="332" y="0" type="line"/>
      <point x="300" y="-44"/>
      <point x="270" y="-105"/>
      <point x="270" y="-128" type="qcurve"/>
      <point x="270" y="-150"/>
      <point x="292" y="-170"/>
      <point x="316" y="-171" type="qcurve"/>
      <point x="392" y="-176" type="line"/>
      <point x="386" y="-234" type="line"/>
      <point x="291" y="-229" type="line"/>
      <point x="243" y="-227"/>
      <point x="200" y="-192"/>
      <point x="200" y="-155" type="qcurve"/>
      <point x="200" y="-127"/>
      <point x="240" y="-56"/>
      <point x="285" y="0" type="qcurve"/>
    </contour>
  </outline>
</glyph>
<glyph name="dotlessi" format="2">
  <advance width="614"/>
  <unicode hex="0131"/>
  <outline>
    <contour>
      <point x="114" y="0" type="line"/>
      <point x="114" y="72" type="line"/>
      <point x="279" y="72" type="line"/>
      <point x="279" y="393" type="line"/>
      <point x="134" y="393" type="line"/>
      <point x="134" y="465" type="line"/>
      <point x="365" y="465" type="line"/>
      <point x="365" y="72" type="line"/>
      <point x="531" y="72" type="line"/>
      <point x="531" y="0" type="line"/>
    </contour>
  </outline>
</glyph>
<glyph name="Eng" format="2">
  <advance width="614"/>
  <unicode hex="014A"/>
  <outline>
    <contour>
      <point x="166" y="550" type="line"/>
      <point x="171" y="0" type="line"/>
      <point x="90" y="0" type="line"/>
      <point x="90" y="655" type="line"/>
      <point x="201" y="655" type="line"/>
      <point x="447" y="132" type="line"/>
      <point x="443" y="655" type="line"/>
      <point x="524" y="655" type="line"/>
      <point x="524" y="-49" type="line"/>
      <point x="524" y="-141"/>
      <point x="440" y="-224"/>
      <point x="340" y="-230" type="qcurve"/>
      <point x="216" y="-238" type="line"/>
      <point x="212" y="-169" type="line"/>
      <point x="335" y="-160" type="line"/>
      <point x="397" y="-155"/>
      <point x="449" y="-106"/>
      <point x="449" y="-53" type="qcurve"/>
    </contour>
  </outline>
</glyph>
<glyph name="scedilla" format="2">
  <advance width="614"/>
  <unicode hex="015F"/>
  <outline>
    <contour>
      <point x="522" y="130" type="qcurve"/>
      <point x="522" y="68"/>
      <point x="418" y="-7"/>
      <point x="323" y="-12" type="qcurve"/>
      <point x="306" y="-64" type="line"/>
      <point x="387" y="-72"/>
      <point x="457" y="-112"/>
      <point x="457" y="-153" type="qcurve"/>
      <point x="457" y="-192"/>
      <point x="409" y="-234"/>
      <point x="356" y="-247" type="qcurve"/>
      <point x="327" y="-255"/>
      <point x="252" y="-266"/>
      <point x="204" y="-270" type="qcurve"/>
      <point x="187" y="-215" type="line"/>
      <point x="295" y="-206"/>
      <point x="387" y="-181"/>
      <point x="387" y="-155" type="qcurve"/>
      <point x="387" y="-132"/>
      <point x="323" y="-113"/>
      <point x="248" y="-111" type="qcurve"/>
      <point x="242" y="-101" type="line"/>
      <point x="273" y="-13" type="line"/>
      <point x="227" y="-12"/>
      <point x="140" y="-2"/>
      <point x="94" y="7" type="qcurve"/>
      <point x="107" y="80" type="line"/>
      <point x="156" y="70"/>
      <point x="255" y="58"/>
      <point x="291" y="58" type="qcurve"/>
      <point x="364" y="58"/>
      <point x="435" y="91"/>
      <point x="435" y="124" type="qcurve"/>
      <point x="435" y="151"/>
      <point x="396" y="180"/>
      <point x="346" y="192" type="qcurve"/>
      <point x="259" y="212" type="line"/>
      <point x="174" y="233"/>
      <point x="106" y="289"/>
      <point x="106" y="345" type="qcurve"/>
      <point x="106" y="410"/>
      <point x="220" y="478"/>
      <point x="330" y="478" type="qcurve"/>
      <point x="364" y="478"/>
      <point x="460" y="468"/>
      <point x="503" y="460" type="qcurve"/>
      <point x="491" y="387" type="line"/>
      <point x="446" y="397"/>
      <point x="361" y="408"/>
      <point x="329" y="408" type="qcurve"/>
      <point x="260" y="408"/>
      <point x="194" y="381"/>
      <point x="194" y="352" type="qcurve"/>
      <point x="194" y="326"/>
      <point x="233" y="299"/>
      <point x="282" y="286" type="qcurve"/>
      <point x="368" y="266" type="line"/>
      <point x="454" y="246"/>
      <point x="522" y="188"/>
    </contour>
  </outline>
</glyph>
<glyph name="Tcedilla" format="2">
  <advance width="614"/>
  <unicode hex="0162"/>
  <outline>
    <contour>
      <point x="264" y="583" type="line"/>
      <point x="51" y="583" type="line"/>
      <point x="51" y="655" type="line"/>
      <point x="563" y="655" type="line"/>
      <point x="563" y="583" type="line"/>
      <point x="351" y="583" type="line"/>
      <point x="351" y="0" type="line"/>
      <point x="330" y="0" type="line"/>
      <point x="311" y="-59" type="line"/>
      <point x="392" y="-67"/>
      <point x="462" y="-106"/>
      <point x="462" y="-148" type="qcurve"/>
      <point x="462" y="-187"/>
      <point x="414" y="-229"/>
      <point x="361" y="-242" type="qcurve"/>
      <point x="332" y="-250"/>
      <point x="257" y="-261"/>
      <point x="209" y="-265" type="qcurve"/>
      <point x="193" y="-209" type="line"/>
      <point x="302" y="-200"/>
      <point x="393" y="-175"/>
      <point x="393" y="-150" type="qcurve"/>
      <point x="393" y="-127"/>
      <point x="329" y="-108"/>
      <point x="253" y="-105" type="qcurve"/>
      <point x="247" y="-95" type="line"/>
      <point x="281" y="0" type="line"/>
      <point x="264" y="0" type="line"/>
    </contour>
  </outline>
</glyph>
<glyph name="Tbar" format="2">
  <advance width="614"/>
  <unicode hex="0166"/>
  <outline>
    <contour>
      <point x="264" y="294" type="line"/>
      <point x="118" y="294" type="line"/>
      <point x="118" y="348" type="line"/>
      <point x="264" y="348" type="line"/>
      <point x="264" y="583" type="line"/>
      <point x="51" y="583" type="line"/>
      <point x="51" y="655" type="line"/>
      <point x="563" y="655" type="line"/>
      <point x="563" y="583" type="line"/>
      <point x="351" y="583" type="line"/>
      <point x="351" y="348" type="line"/>
      <point x="497" y="348" type="line"/>
      <point x="497" y="294" type="line"/>
      <point x="351" y="294" type="line"/>
      <point x="351" y="0" type="line"/>
      <point x="264" y="0" type="line"/>
    </contour>
  </outline>
</glyph>
<glyph name="Uogonek" format="2">
  <advance width="614"/>
  <unicode hex="0172"/>
  <outline>
    <contour>
      <point x="214" y="-160" type="qcurve"/>
      <point x="214" y="-134"/>
      <point x="250" y="-67"/>
      <point x="291" y="-15" type="qcurve"/>
      <point x="185" y="-11"/>
      <point x="77" y="113"/>
      <point x="77" y="232" type="qcurve"/>
      <point x="77" y="655" type="line"/>
      <point x="164" y="655" type="line"/>
      <point x="164" y="232" type="line"/>
      <point x="164" y="146"/>
      <point x="235" y="61"/>
      <point x="307" y="61" type="qcurve"/>
      <point x="380" y="61"/>
      <point x="451" y="145"/>
      <point x="451" y="232" type="qcurve"/>
      <point x="451" y="655" type="line"/>
      <point x="537" y="655" type="line"/>
      <point x="537" y="232" type="line"/>
      <point x="537" y="119"/>
      <point x="439" y="-4"/>
      <point x="341" y="-13" type="qcurve"/>
      <point x="312" y="-55"/>
      <point x="284" y="-112"/>
      <point x="284" y="-134" type="qcurve"/>
      <point x="284" y="-156"/>
      <point x="306" y="-176"/>
      <point x="330" y="-177" type="qcurve"/>
      <point x="406" y="-181" type="line"/>
      <point x="400" y="-240" type="line"/>
      <point x="305" y="-235" type="line"/>
      <point x="257" y="-232"/>
      <point x="214" y="-197"/>
    </contour>
  </outline>
</glyph>
<glyph name="Schwa" format="2">
  <advance width="614"/>
  <unicode hex="018F"/>
  <outline>
    <contour>
      <point x="263" y="664" type="qcurve"/>
      <point x="415" y="664"/>
      <point x="552" y="503"/>
      <point x="552" y="327" type="qcurve"/>
      <point x="552" y="157"/>
      <point x="424" y="-15"/>
      <point x="299" y="-15" type="qcurve"/>
      <point x="179" y="-15"/>
      <point x="63" y="145"/>
      <point x="63" y="311" type="qcurve"/>
      <point x="63" y="326"/>
      <point x="65" y="358"/>
      <point x="68" y="375" type="qcurve"/>
      <point x="462" y="375" type="line"/>
      <point x="455" y="491"/>
      <point x="365" y="592"/>
      <point x="262" y="592" type="qcurve"/>
      <point x="235" y="592"/>
      <point x="179" y="587"/>
      <point x="152" y="582" type="qcurve"/>
      <point x="144" y="655" type="line"/>
      <point x="174" y="660"/>
      <point x="232" y="664"/>
    </contour>
    <contour>
      <point x="299" y="57" type="qcurve"/>
      <point x="384" y="57"/>
      <point x="460" y="176"/>
      <point x="463" y="306" type="qcurve"/>
      <point x="149" y="306" type="line"/>
      <point x="151" y="176"/>
      <point x="221" y="57"/>
    </contour>
  </outline>
</glyph>
<glyph name="Ohorn" format="2">
  <advance width="614"/>
  <unicode hex="01A0"/>
  <outline>
    <contour>
      <point x="56" y="323" type="qcurve"/>
      <point x="56" y="479"/>
      <point x="189" y="655"/>
      <point x="306" y="655" type="qcurve"/>
      <point x="429" y="655" type="line"/>
      <point x="486" y="655"/>
      <point x="526" y="697"/>
      <point x="529" y="768" type="qcurve"/>
      <point x="611" y="768" type="line"/>
      <point x="609" y="682"/>
      <point x="546" y="603"/>
      <point x="479" y="603" type="qcurve"/>
      <point x="470" y="603"/>
      <point x="444" y="606"/>
      <point x="425" y="609" type="qcurve"/>
      <point x="423" y="603" type="line"/>
      <point x="492" y="567"/>
      <point x="558" y="431"/>
      <point x="558" y="326" type="qcurve"/>
      <point x="558" y="164"/>
      <point x="425" y="-15"/>
      <point x="306" y="-15" type="qcurve"/>
      <point x="187" y="-15"/>
      <point x="56" y="162"/>
    </contour>
    <contour>
      <point x="307" y="583" type="qcurve"/>
      <point x="228" y="583"/>
      <point x="145" y="452"/>
      <point x="145" y="325" type="qcurve"/>
      <point x="145" y="193"/>
      <point x="228" y="57"/>
      <point x="307" y="57" type="qcurve"/>
      <point x="386" y="57"/>
      <point x="469" y="193"/>
      <point x="469" y="324" type="qcurve"/>
      <point x="469" y="451"/>
      <point x="386" y="583"/>
    </contour>
  </outline>
</glyph>
<glyph name="ohorn" format="2">
  <advance width="614"/>
  <unicode hex="01A1"/>
  <outline>
    <contour>
      <point x="464" y="414" type="qcurve"/>
      <point x="459" y="414"/>
      <point x="447" y="415"/>
      <point x="435" y="416" type="qcurve"/>
      <point x="433" y="410" type="line"/>
      <point x="492" y="376"/>
      <point x="550" y="283"/>
      <point x="550" y="223" type="qcurve"/>
      <point x="550" y="118"/>
      <point x="413" y="-15"/>
      <point x="305" y="-15" type="qcurve"/>
      <point x="198" y="-15"/>
      <point x="64" y="120"/>
      <point x="64" y="229" type="qcurve"/>
      <point x="64" y="332"/>
      <point x="202" y="465"/>
      <point x="309" y="465" type="qcurve"/>
      <point x="415" y="465" type="line"/>
      <point x="467" y="465"/>
      <point x="504" y="508"/>
      <point x="507" y="577" type="qcurve"/>
      <point x="588" y="577" type="line"/>
      <point x="584" y="492"/>
      <point x="525" y="414"/>
    </contour>
    <contour>
      <point x="151" y="228" type="qcurve"/>
      <point x="151" y="149"/>
      <point x="236" y="57"/>
      <point x="307" y="57" type="qcurve"/>
      <point x="379" y="57"/>
      <point x="463" y="148"/>
      <point x="463" y="228" type="qcurve"/>
      <point x="463" y="304"/>
      <point x="377" y="398"/>
      <point x="307" y="398" type="qcurve"/>
      <point x="237" y="398"/>
      <point x="151" y="305"/>
    </contour>
  </outline>
</glyph>
<glyph name="Uhorn" format="2">
  <advance width="614"/>
  <unicode hex="01AF"/>
  <outline>
    <contour>
      <point x="307" y="61" type="qcurve"/>
      <point x="380" y="61"/>
      <point x="451" y="145"/>
      <point x="451" y="232" type="qcurve"/>
      <point x="451" y="655" type="line"/>
      <point x="492" y="655" type="line"/>
      <point x="551" y="655"/>
      <point x="590" y="697"/>
      <point x="593" y="768" type="qcurve"/>
      <point x="674" y="768" type="line"/>
      <point x="672" y="679"/>
      <point x="608" y="599"/>
      <point x="537" y="599" type="qcurve"/>
      <point x="537" y="232" type="line"/>
      <point x="537" y="109"/>
      <point x="421" y="-15"/>
      <point x="305" y="-15" type="qcurve"/>
      <point x="192" y="-15"/>
      <point x="77" y="110"/>
      <point x="77" y="232" type="qcurve"/>
      <point x="77" y="655" type="line"/>
      <point x="164" y="655" type="line"/>
      <point x="164" y="232" type="line"/>
      <point x="164" y="146"/>
      <point x="235" y="61"/>
    </contour>
  </outline>
</glyph>
<glyph name="oogonek" format="2">
  <advance width="614"/>
  <unicode hex="01EB"/>
  <outline>
    <contour>
      <point x="207" y="-160" type="qcurve"/>
      <point x="207" y="-134"/>
      <point x="244" y="-66"/>
      <point x="285" y="-14" type="qcurve"/>
      <point x="186" y="-7"/>
      <point x="64" y="129"/>
      <point x="64" y="234" type="qcurve"/>
      <point x="64" y="342"/>
      <point x="202" y="480"/>
      <point x="309" y="480" type="qcurve"/>
      <point x="415" y="480"/>
      <point x="550" y="341"/>
      <point x="550" y="231" type="qcurve"/>
      <point x="550" y="130"/>
      <point x="431" y="-4"/>
      <point x="334" y="-14" type="qcurve"/>
      <point x="305" y="-55"/>
      <point x="277" y="-112"/>
      <point x="277" y="-134" type="qcurve"/>
      <point x="277" y="-156"/>
      <point x="299" y="-176"/>
      <point x="323" y="-177" type="qcurve"/>
      <point x="399" y="-181" type="line"/>
      <point x="393" y="-240" type="line"/>
      <point x="299" y="-235" type="line"/>
      <point x="251" y="-232"/>
      <point x="207" y="-197"/>
    </contour>
    <contour>
      <point x="151" y="233" type="qcurve"/>
      <point x="151" y="152"/>
      <point x="236" y="57"/>
      <point x="307" y="57" type="qcurve"/>
      <point x="379" y="57"/>
      <point x="463" y="151"/>
      <point x="463" y="232" type="qcurve"/>
      <point x="463" y="311"/>
      <point x="377" y="409"/>
      <point x="307" y="409" type="qcurve"/>
      <point x="237" y="409"/>
      <point x="151" y="313"/>
    </contour>
  </outline>
</glyph>
<glyph name="schwa" format="2">
  <advance width="614"/>
  <unicode hex="0259"/>
  <outline>
    <contour>
      <point x="257" y="403" type="qcurve"/>
      <point x="161" y="405" type="line"/>
      <point x="164" y="473" type="line"/>
      <point x="282" y="471" type="line"/>
      <point x="411" y="469"/>
      <point x="539" y="354"/>
      <point x="539" y="241" type="qcurve"/>
      <point x="539" y="130"/>
      <point x="402" y="-14"/>
      <point x="297" y="-14" type="qcurve"/>
      <point x="192" y="-14"/>
      <point x="74" y="113"/>
      <point x="74" y="228" type="qcurve"/>
      <point x="74" y="239"/>
      <point x="76" y="257"/>
      <point x="77" y="264" type="qcurve"/>
      <point x="454" y="264" type="line"/>
      <point x="447" y="334"/>
      <point x="354" y="400"/>
    </contour>
    <contour>
      <point x="297" y="54" type="qcurve"/>
      <point x="358" y="54"/>
      <point x="443" y="133"/>
      <point x="452" y="200" type="qcurve"/>
      <point x="159" y="200" type="line"/>
      <point x="164" y="128"/>
      <point x="234" y="54"/>
    </contour>
  </outline>
</glyph>
<glyph name="ringhalfright" format="2">
  <advance width="614"/>
  <unicode hex="02BE"/>
  <outline>
    <contour>
      <point x="431" y="522" type="qcurve"/>
      <point x="431" y="423"/>
      <point x="295" y="315"/>
      <point x="167" y="315" type="qcurve"/>
      <point x="167" y="389" type="line"/>
      <point x="257" y="389"/>
      <point x="343" y="453"/>
      <point x="343" y="522" type="qcurve"/>
      <point x="343" y="589"/>
      <point x="258" y="651"/>
      <point x="167" y="651" type="qcurve"/>
      <point x="167" y="725" type="line"/>
      <point x="295" y="725"/>
      <point x="431" y="619"/>
    </contour>
  </outline>
</glyph>
<glyph name="acutecmb" format="2">
  <unicode hex="0301"/>
  <outline>
    <contour>
      <point x="-56" y="541" type="line"/>
      <point x="-88" y="587" type="line"/>
      <point x="122" y="745" type="line"/>
      <point x="164" y="687" type="line"/>
    </contour>
  </outline>
</glyph>
<glyph name="dotaccentcmb" format="2">
  <unicode hex="0307"/>
  <outline>
    <contour>
      <point x="62" y="620" type="qcurve"/>
      <point x="62" y="592"/>
      <point x="29" y="561"/>
      <point x="-1" y="561" type="qcurve"/>
      <point x="-30" y="561"/>
      <point x="-61" y="591"/>
      <point x="-61" y="620" type="qcurve"/>
      <point x="-61" y="647"/>
      <point x="-28" y="680"/>
      <point x="0" y="680" type="qcurve"/>
      <point x="30" y="680"/>
      <point x="62" y="649"/>
    </contour>
  </outline>
</glyph>
<glyph name="ringcmb" format="2">
  <unicode hex="030A"/>
  <outline>
    <contour>
      <point x="143" y="666" type="qcurve"/>
      <point x="143" y="609"/>
      <point x="64" y="541"/>
      <point x="-1" y="541" type="qcurve"/>
      <point x="-66" y="541"/>
      <point x="-143" y="608"/>
      <point x="-143" y="665" type="qcurve"/>
      <point x="-143" y="722"/>
      <point x="-64" y="790"/>
      <point x="1" y="790" type="qcurve"/>
      <point x="66" y="790"/>
      <point x="143" y="723"/>
    </contour>
    <contour>
      <point x="-84" y="664" type="qcurve"/>
      <point x="-84" y="630"/>
      <point x="-42" y="596"/>
      <point x="0" y="596" type="qcurve"/>
      <point x="41" y="596"/>
      <point x="83" y="632"/>
      <point x="83" y="667" type="qcurve"/>
      <point x="83" y="701"/>
      <point x="41" y="735"/>
      <point x="0" y="735" type="qcurve"/>
      <point x="-42" y="735"/>
      <point x="-84" y="700"/>
    </contour>
  </outline>
</glyph>
<glyph name="commaturnedabovecmb" format="2">
  <unicode hex="0312"/>
  <outline>
    <contour>
      <point x="-111" y="648" type="qcurve"/>
      <point x="-111" y="692"/>
      <point x="-7" y="754"/>
      <point x="89" y="762" type="qcurve"/>
      <point x="108" y="722" type="line"/>
      <point x="108" y="720" type="line"/>
      <point x="36" y="710"/>
      <point x="-33" y="679"/>
      <point x="-33" y="655" type="qcurve"/>
      <point x="-33" y="631"/>
      <point x="36" y="602"/>
      <point x="114" y="590" type="qcurve"/>
      <point x="114" y="587" type="line"/>
      <point x="75" y="541" type="line"/>
      <point x="-24" y="555"/>
      <point x="-111" y="603"/>
    </contour>
  </outline>
</glyph>
<glyph name="commaaboverightcmb" format="2">
  <unicode hex="0315"/>
  <outline>
    <contour>
      <point x="57" y="486" type="line"/>
      <point x="0" y="486" type="line"/>
      <point x="0" y="710" type="line"/>
      <point x="85" y="710" type="line"/>
    </contour>
  </outline>
</glyph>
<glyph name="dotbelowcmb" format="2">
  <unicode hex="0323"/>
  <outline>
    <contour>
      <point x="62" y="-156" type="qcurve"/>
      <point x="62" y="-184"/>
      <point x="29" y="-214"/>
      <point x="-1" y="-214" type="qcurve"/>
      <point x="-30" y="-214"/>
      <point x="-61" y="-184"/>
      <point x="-61" y="-156" type="qcurve"/>
      <point x="-61" y="-129"/>
      <point x="-28" y="-96"/>
      <point x="0" y="-96" type="qcurve"/>
      <point x="31" y="-96"/>
      <point x="62" y="-127"/>
    </contour>
  </outline>
</glyph>
<glyph name="dieresisbelowcmb" format="2">
  <unicode hex="0324"/>
  <outline>
    <contour>
      <point x="-58" y="-153" type="qcurve"/>
      <point x="-58" y="-179"/>
      <point x="-90" y="-209"/>
      <point x="-118" y="-209" type="qcurve"/>
      <point x="-145" y="-209"/>
      <point x="-176" y="-180"/>
      <point x="-176" y="-153" type="qcurve"/>
      <point x="-176" y="-127"/>
      <point x="-144" y="-96"/>
      <point x="-117" y="-96" type="qcurve"/>
      <point x="-88" y="-96"/>
      <point x="-58" y="-125"/>
    </contour>
    <contour>
      <point x="176" y="-153" type="qcurve"/>
      <point x="176" y="-179"/>
      <point x="144" y="-209"/>
      <point x="116" y="-209" type="qcurve"/>
      <point x="89" y="-209"/>
      <point x="59" y="-180"/>
      <point x="59" y="-153" type="qcurve"/>
      <point x="59" y="-127"/>
      <point x="90" y="-96"/>
      <point x="117" y="-96" type="qcurve"/>
      <point x="146" y="-96"/>
      <point x="176" y="-125"/>
    </contour>
  </outline>
</glyph>
<glyph name="uni0326" format="2">
  <unicode hex="0326"/>
  <outline>
    <contour>
      <point x="108" y="-182" type="qcurve"/>
      <point x="108" y="-227"/>
      <point x="5" y="-288"/>
      <point x="-92" y="-297" type="qcurve"/>
      <point x="-111" y="-257" type="line"/>
      <point x="-111" y="-255" type="line"/>
      <point x="-39" y="-245"/>
      <point x="30" y="-213"/>
      <point x="30" y="-189" type="qcurve"/>
      <point x="30" y="-166"/>
      <point x="-39" y="-137"/>
      <point x="-116" y="-125" type="qcurve"/>
      <point x="-116" y="-122" type="line"/>
      <point x="-78" y="-76" type="line"/>
      <point x="21" y="-90"/>
      <point x="108" y="-138"/>
    </contour>
  </outline>
</glyph>
<glyph name="ogonekcmb" format="2">
  <unicode hex="0328"/>
  <outline>
    <contour>
      <point x="-107" y="-155" type="qcurve"/>
      <point x="-107" y="-127"/>
      <point x="-62" y="-49"/>
      <point x="-12" y="12" type="qcurve"/>
      <point x="33" y="10" type="line"/>
      <point x="-3" y="-39"/>
      <point x="-37" y="-105"/>
      <point x="-37" y="-129" type="qcurve"/>
      <point x="-37" y="-151"/>
      <point x="-15" y="-171"/>
      <point x="9" y="-172" type="qcurve"/>
      <point x="85" y="-176" type="line"/>
      <point x="79" y="-235" type="line"/>
      <point x="-16" y="-230" type="line"/>
      <point x="-64" y="-227"/>
      <point x="-107" y="-192"/>
    </contour>
  </outline>
</glyph>
<glyph name="circumflexbelowcmb" format="2">
  <unicode hex="032D"/>
  <outline>
    <contour>
      <point x="-149" y="-281" type="line"/>
      <point x="-185" y="-243" type="line"/>
      <point x="-22" y="-76" type="line"/>
      <point x="22" y="-76" type="line"/>
      <point x="185" y="-243" type="line"/>
      <point x="149" y="-281" type="line"/>
      <point x="0" y="-149" type="line"/>
    </contour>
  </outline>
</glyph>
<glyph name="macronbelowcmb" format="2">
  <unicode hex="0331"/>
  <outline>
    <contour>
      <point x="166" y="-181" type="line"/>
      <point x="-166" y="-181" type="line"/>
      <point x="-166" y="-116" type="line"/>
      <point x="166" y="-116" type="line"/>
    </contour>
  </outline>
</glyph>
<glyph name="bahtthai" format="2">
  <advance width="614"/>
  <unicode hex="0E3F"/>
  <outline>
    <contour>
      <point x="347" y="0" type="qcurve"/>
      <point x="347" y="-142" type="line"/>
      <point x="280" y="-142" type="line"/>
      <point x="280" y="0" type="line"/>
      <point x="95" y="0" type="line"/>
      <point x="95" y="655" type="line"/>
      <point x="280" y="655" type="line"/>
      <point x="280" y="797" type="line"/>
      <point x="347" y="797" type="line"/>
      <point x="347" y="655" type="line"/>
      <point x="354" y="655" type="line"/>
      <point x="451" y="655"/>
      <point x="552" y="577"/>
      <point x="552" y="502" type="qcurve"/>
      <point x="552" y="435"/>
      <point x="466" y="351"/>
      <point x="383" y="337" type="qcurve"/>
      <point x="383" y="333" type="line"/>
      <point x="470" y="321"/>
      <point x="564" y="233"/>
      <point x="564" y="163" type="qcurve"/>
      <point x="564" y="84"/>
      <point x="454" y="0"/>
    </contour>
    <contour>
      <point x="288" y="587" type="line"/>
      <point x="180" y="587" type="line"/>
      <point x="180" y="360" type="line"/>
      <point x="288" y="365" type="line"/>
    </contour>
    <contour>
      <point x="465" y="488" type="qcurve"/>
      <point x="465" y="538"/>
      <point x="405" y="587"/>
      <point x="345" y="587" type="qcurve"/>
      <point x="339" y="587" type="line"/>
      <point x="339" y="370" type="line"/>
      <point x="400" y="380"/>
      <point x="465" y="442"/>
    </contour>
    <contour>
      <point x="288" y="68" type="line"/>
      <point x="288" y="296" type="line"/>
      <point x="180" y="300" type="line"/>
      <point x="180" y="68" type="line"/>
    </contour>
    <contour>
      <point x="478" y="172" type="qcurve"/>
      <point x="478" y="221"/>
      <point x="406" y="283"/>
      <point x="339" y="292" type="qcurve"/>
      <point x="339" y="68" type="line"/>
      <point x="342" y="68" type="line"/>
      <point x="408" y="68"/>
      <point x="478" y="122"/>
    </contour>
  </outline>
</glyph>
<glyph name="Hcedilla" format="2">
  <advance width="614"/>
  <unicode hex="1E28"/>
  <outline>
    <contour>
      <point x="92" y="0" type="line"/>
      <point x="92" y="655" type="line"/>
      <point x="179" y="655" type="line"/>
      <point x="179" y="367" type="line"/>
      <point x="435" y="367" type="line"/>
      <point x="435" y="655" type="line"/>
      <point x="522" y="655" type="line"/>
      <point x="522" y="0" type="line"/>
      <point x="435" y="0" type="line"/>
      <point x="435" y="294" type="line"/>
      <point x="179" y="294" type="line"/>
      <point x="179" y="0" type="line"/>
      <point x="160" y="0" type="line"/>
      <point x="141" y="-59" type="line"/>
      <point x="222" y="-67"/>
      <point x="292" y="-107"/>
      <point x="292" y="-148" type="qcurve"/>
      <point x="292" y="-187"/>
      <point x="244" y="-229"/>
      <point x="191" y="-242" type="qcurve"/>
      <point x="162" y="-250"/>
      <point x="87" y="-261"/>
      <point x="39" y="-265" type="qcurve"/>
      <point x="23" y="-210" type="line"/>
      <point x="131" y="-201"/>
      <point x="223" y="-175"/>
      <point x="223" y="-150" type="qcurve"/>
      <point x="223" y="-127"/>
      <point x="159" y="-108"/>
      <point x="83" y="-106" type="qcurve"/>
      <point x="77" y="-96" type="line"/>
      <point x="111" y="0" type="line"/>
    </contour>
  </outline>
</glyph>
<glyph name="quoteleft" format="2">
  <advance width="614"/>
  <unicode hex="2018"/>
  <outline>
    <contour>
      <point x="362" y="710" type="qcurve"/>
      <point x="446" y="710" type="line"/>
      <point x="446" y="708" type="line"/>
      <point x="384" y="627"/>
      <point x="335" y="510"/>
      <point x="331" y="433" type="qcurve"/>
      <point x="199" y="433" type="line"/>
      <point x="205" y="521"/>
      <point x="275" y="641"/>
    </contour>
  </outline>
</glyph>
<glyph name="quoteright" format="2">
  <advance width="614"/>
  <unicode hex="2019"/>
  <outline>
    <contour>
      <point x="252" y="433" type="qcurve"/>
      <point x="168" y="433" type="line"/>
      <point x="168" y="435" type="line"/>
      <point x="230" y="516"/>
      <point x="279" y="633"/>
      <point x="283" y="710" type="qcurve"/>
      <point x="415" y="710" type="line"/>
      <point x="409" y="622"/>
      <point x="339" y="502"/>
    </contour>
  </outline>
</glyph>
<glyph name="quotedblleft" format="2">
  <advance width="614"/>
  <unicode hex="201C"/>
  <outline>
    <contour>
      <point x="233" y="710" type="qcurve"/>
      <point x="309" y="710" type="line"/>
      <point x="309" y="708" type="line"/>
      <point x="246" y="611"/>
      <point x="207" y="514"/>
      <point x="196" y="425" type="qcurve"/>
      <point x="74" y="425" type="line"/>
      <point x="91" y="529"/>
      <point x="151" y="637"/>
    </contour>
    <contour>
      <point x="483" y="710" type="qcurve"/>
      <point x="560" y="710" type="line"/>
      <point x="560" y="708" type="line"/>
      <point x="498" y="614"/>
      <point x="458" y="516"/>
      <point x="447" y="425" type="qcurve"/>
      <point x="324" y="425" type="line"/>
      <point x="341" y="529"/>
      <point x="401" y="637"/>
    </contour>
  </outline>
</glyph>
<glyph name="ellipsis" format="2">
  <advance width="614"/>
  <unicode hex="2026"/>
  <outline>
    <contour>
      <point x="368" y="61" type="qcurve"/>
      <point x="368" y="22"/>
      <point x="338" y="-15"/>
      <point x="307" y="-15" type="qcurve"/>
      <point x="276" y="-15"/>
      <point x="246" y="23"/>
      <point x="246" y="61" type="qcurve"/>
      <point x="246" y="96"/>
      <point x="279" y="134"/>
      <point x="309" y="134" type="qcurve"/>
      <point x="340" y="134"/>
      <point x="368" y="99"/>
    </contour>
    <contour>
      <point x="573" y="61" type="qcurve"/>
      <point x="573" y="22"/>
      <point x="543" y="-15"/>
      <point x="512" y="-15" type="qcurve"/>
      <point x="481" y="-15"/>
      <point x="451" y="23"/>
      <point x="451" y="61" type="qcurve"/>
      <point x="451" y="96"/>
      <point x="484" y="134"/>
      <point x="514" y="134" type="qcurve"/>
      <point x="545" y="134"/>
      <point x="573" y="99"/>
    </contour>
    <contour>
      <point x="163" y="61" type="qcurve"/>
      <point x="163" y="22"/>
      <point x="133" y="-15"/>
      <point x="102" y="-15" type="qcurve"/>
      <point x="71" y="-15"/>
      <point x="41" y="23"/>
      <point x="41" y="61" type="qcurve"/>
      <point x="41" y="96"/>
      <point x="74" y="134"/>
      <point x="104" y="134" type="qcurve"/>
      <point x="135" y="134"/>
      <point x="163" y="99"/>
    </contour>
  </outline>
</glyph>
<glyph name="guilsinglleft" format="2">
  <advance width="614"/>
  <unicode hex="2039"/>
  <outline>
    <contour>
      <point x="442" y="72" type="line"/>
      <point x="442" y="-15" type="line"/>
      <point x="151" y="196" type="line"/>
      <point x="151" y="267" type="line"/>
      <point x="442" y="478" type="line"/>
      <point x="442" y="393" type="line"/>
      <point x="246" y="235" type="line"/>
    </contour>
  </outline>
</glyph>
<glyph name="guilsinglright" format="2">
  <advance width="614"/>
  <unicode hex="203A"/>
  <outline>
    <contour>
      <point x="172" y="390" type="line"/>
      <point x="172" y="478" type="line"/>
      <point x="463" y="266" type="line"/>
      <point x="463" y="195" type="line"/>
      <point x="172" y="-15" type="line"/>
      <point x="172" y="70" type="line"/>
      <point x="368" y="227" type="line"/>
    </contour>
  </outline>
</glyph>
<glyph name="uni20B9" format="2">
  <advance width="614"/>
  <unicode hex="20B9"/>
  <outline>
    <contour>
      <point x="363" y="410" type="qcurve"/>
      <point x="67" y="410" type="line"/>
      <point x="67" y="469" type="line"/>
      <point x="363" y="469" type="line"/>
      <point x="363" y="598" type="line"/>
      <point x="67" y="598" type="line"/>
      <point x="67" y="655" type="line"/>
      <point x="552" y="655" type="line"/>
      <point x="552" y="598" type="line"/>
      <point x="451" y="598" type="line"/>
      <point x="451" y="469" type="line"/>
      <point x="552" y="469" type="line"/>
      <point x="552" y="410" type="line"/>
      <point x="451" y="410" type="line"/>
      <point x="446" y="311"/>
      <point x="333" y="213"/>
      <point x="223" y="213" type="qcurve"/>
      <point x="212" y="213" type="line"/>
      <point x="212" y="211" type="line"/>
      <point x="533" y="2" type="line"/>
      <point x="533" y="0" type="line"/>
      <point x="399" y="0" type="line"/>
      <point x="67" y="219" type="line"/>
      <point x="67" y="280" type="line"/>
      <point x="226" y="280" type="line"/>
      <point x="294" y="280"/>
      <point x="360" y="342"/>
    </contour>
  </outline>
</glyph>
<glyph name="uni20BA" format="2">
  <advance width="614"/>
  <unicode hex="20BA"/>
  <outline>
    <contour>
      <point x="120" y="188" type="line"/>
      <point x="24" y="133" type="line"/>
      <point x="24" y="197" type="line"/>
      <point x="120" y="252" type="line"/>
      <point x="120" y="350" type="line"/>
      <point x="24" y="295" type="line"/>
      <point x="24" y="361" type="line"/>
      <point x="120" y="416" type="line"/>
      <point x="120" y="655" type="line"/>
      <point x="207" y="655" type="line"/>
      <point x="207" y="463" type="line"/>
      <point x="392" y="569" type="line"/>
      <point x="392" y="503" type="line"/>
      <point x="207" y="397" type="line"/>
      <point x="207" y="299" type="line"/>
      <point x="392" y="405" type="line"/>
      <point x="392" y="339" type="line"/>
      <point x="207" y="235" type="line"/>
      <point x="207" y="71" type="line"/>
      <point x="266" y="71" type="line"/>
      <point x="366" y="71"/>
      <point x="479" y="184"/>
      <point x="489" y="293" type="qcurve"/>
      <point x="572" y="282" type="line"/>
      <point x="561" y="146"/>
      <point x="403" y="0"/>
      <point x="268" y="0" type="qcurve"/>
      <point x="120" y="0" type="line"/>
    </contour>
  </outline>
</glyph>
<glyph name="published" format="2">
  <advance width="614"/>
  <unicode hex="2117"/>
  <outline>
    <contour>
      <point x="307" y="725" type="qcurve"/>
      <point x="438" y="725"/>
      <point x="557" y="533"/>
      <point x="557" y="328" type="qcurve"/>
      <point x="557" y="123"/>
      <point x="437" y="-70"/>
      <point x="307" y="-70" type="qcurve"/>
      <point x="177" y="-70"/>
      <point x="57" y="123"/>
      <point x="57" y="328" type="qcurve"/>
      <point x="57" y="532"/>
      <point x="177" y="725"/>
    </contour>
    <contour>
      <point x="307" y="680" type="qcurve"/>
      <point x="199" y="680"/>
      <point x="105" y="512"/>
      <point x="105" y="328" type="qcurve"/>
      <point x="105" y="144"/>
      <point x="199" y="-25"/>
      <point x="307" y="-25" type="qcurve"/>
      <point x="415" y="-25"/>
      <point x="509" y="143"/>
      <point x="509" y="328" type="qcurve"/>
      <point x="509" y="513"/>
      <point x="415" y="680"/>
    </contour>
    <contour>
      <point x="209" y="105" type="line"/>
      <point x="209" y="550" type="line"/>
      <point x="310" y="550" type="line"/>
      <point x="380" y="550"/>
      <point x="441" y="480"/>
      <point x="441" y="402" type="qcurve"/>
      <point x="441" y="327"/>
      <point x="373" y="257"/>
      <point x="299" y="257" type="qcurve"/>
      <point x="271" y="257" type="line"/>
      <point x="271" y="105" type="line"/>
    </contour>
    <contour>
      <point x="378" y="400" type="qcurve"/>
      <point x="378" y="453"/>
      <point x="348" y="495"/>
      <point x="308" y="495" type="qcurve"/>
      <point x="271" y="495" type="line"/>
      <point x="271" y="315" type="line"/>
      <point x="304" y="315" type="line"/>
      <point x="346" y="315"/>
      <point x="378" y="353"/>
    </contour>
  </outline>
</glyph>
<glyph name="lessequal" format="2">
  <advance width="614"/>
  <unicode hex="2264"/>
  <outline>
    <contour>
      <point x="518" y="284" type="line"/>
      <point x="518" y="204" type="line"/>
      <point x="88" y="398" type="line"/>
      <point x="88" y="476" type="line"/>
      <point x="518" y="670" type="line"/>
      <point x="518" y="590" type="line"/>
      <point x="162" y="437" type="line"/>
    </contour>
    <contour>
      <point x="518" y="0" type="line"/>
      <point x="88" y="0" type="line"/>
      <point x="88" y="71" type="line"/>
      <point x="518" y="71" type="line"/>
    </contour>
  </outline>
</glyph>
<glyph name="lightvertbxd" format="2">
  <advance width="614"/>
  <unicode hex="2502"/>
  <outline>
    <contour>
      <point x="351" y="-420" type="line"/>
      <point x="264" y="-420" type="line"/>
      <point x="264" y="1080" type="line"/>
      <point x="351" y="1080" type="line"/>
    </contour>
  </outline>
</glyph>
<glyph name="lighttrpldashvertbxd" format="2">
  <advance width="614"/>
  <unicode hex="2506"/>
  <outline>
    <contour>
      <point x="351" y="552" type="line"/>
      <point x="264" y="552" type="line"/>
      <point x="264" y="774" type="line"/>
      <point x="351" y="774" type="line"/>
    </contour>
    <contour>
      <point x="351" y="219" type="line"/>
      <point x="264" y="219" type="line"/>
      <point x="264" y="441" type="line"/>
      <point x="351" y="441" type="line"/>
    </contour>
    <contour>
      <point x="351" y="-114" type="line"/>
      <point x="264" y="-114" type="line"/>
      <point x="264" y="108" type="line"/>
      <point x="351" y="108" type="line"/>
    </contour>
  </outline>
</glyph>
<glyph name="heavytrpldashvertbxd" format="2">
  <advance width="614"/>
  <unicode hex="2507"/>
  <outline>
    <contour>
      <point x="393" y="552" type="line"/>
      <point x="221" y="552" type="line"/>
      <point x="221" y="774" type="line"/>
      <point x="393" y="774" type="line"/>
    </contour>
    <contour>
      <point x="393" y="219" type="line"/>
      <point x="221" y="219" type="line"/>
      <point x="221" y="441" type="line"/>
      <point x="393" y="441" type="line"/>
    </contour>
    <contour>
      <point x="393" y="-114" type="line"/>
      <point x="221" y="-114" type="line"/>
      <point x="221" y="108" type="line"/>
      <point x="393" y="108" type="line"/>
    </contour>
  </outline>
</glyph>
<glyph name="lightquaddashhorzbxd" format="2">
  <advance width="614"/>
  <unicode hex="2508"/>
  <outline>
    <contour>
      <point x="134" y="287" type="line"/>
      <point x="19" y="287" type="line"/>
      <point x="19" y="374" type="line"/>
      <point x="134" y="374" type="line"/>
    </contour>
    <contour>
      <point x="288" y="287" type="line"/>
      <point x="173" y="287" type="line"/>
      <point x="173" y="374" type="line"/>
      <point x="288" y="374" type="line"/>
    </contour>
    <contour>
      <point x="441" y="287" type="line"/>
      <point x="326" y="287" type="line"/>
      <point x="326" y="374" type="line"/>
      <point x="441" y="374" type="line"/>
    </contour>
    <contour>
      <point x="595" y="287" type="line"/>
      <point x="480" y="287" type="line"/>
      <point x="480" y="374" type="line"/>
      <point x="595" y="374" type="line"/>
    </contour>
  </outline>
</glyph>
<glyph name="heavyuprightbxd" format="2">
  <advance width="614"/>
  <unicode hex="2517"/>
  <outline>
    <contour>
      <point x="634" y="244" type="line"/>
      <point x="221" y="244" type="line"/>
      <point x="221" y="1080" type="line"/>
      <point x="393" y="1080" type="line"/>
      <point x="393" y="416" type="line"/>
      <point x="634" y="416" type="line"/>
    </contour>
  </outline>
</glyph>
<glyph name="dblhorzbxd" format="2">
  <advance width="614"/>
  <unicode hex="2550"/>
  <outline>
    <contour>
      <point x="634" y="374" type="line"/>
      <point x="-20" y="374" type="line"/>
      <point x="-20" y="460" type="line"/>
      <point x="634" y="460" type="line"/>
    </contour>
    <contour>
      <point x="634" y="200" type="line"/>
      <point x="-20" y="200" type="line"/>
      <point x="-20" y="287" type="line"/>
      <point x="634" y="287" type="line"/>
    </contour>
  </outline>
</glyph>
<glyph name="dnsngleftdblbxd" format="2">
  <advance width="614"/>
  <unicode hex="2555"/>
  <outline>
    <contour>
      <point x="264" y="200" type="line"/>
      <point x="-20" y="200" type="line"/>
      <point x="-20" y="287" type="line"/>
      <point x="264" y="287" type="line"/>
      <point x="264" y="374" type="line"/>
      <point x="-20" y="374" type="line"/>
      <point x="-20" y="460" type="line"/>
      <point x="351" y="460" type="line"/>
      <point x="351" y="-420" type="line"/>
      <point x="264" y="-420" type="line"/>
    </contour>
  </outline>
</glyph>
<glyph name="upsnghorzdblbxd" format="2">
  <advance width="614"/>
  <unicode hex="2567"/>
  <outline>
    <contour>
      <point x="634" y="374" type="line"/>
      <point x="-20" y="374" type="line"/>
      <point x="-20" y="460" type="line"/>
      <point x="264" y="460" type="line"/>
      <point x="264" y="1080" type="line"/>
      <point x="351" y="1080" type="line"/>
      <point x="351" y="460" type="line"/>
      <point x="634" y="460" type="line"/>
    </contour>
    <contour>
      <point x="634" y="200" type="line"/>
      <point x="-20" y="200" type="line"/>
      <point x="-20" y="287" type="line"/>
      <point x="634" y="287" type="line"/>
    </contour>
  </outline>
</glyph>
<glyph name="lightarcdnrightbxd" format="2">
  <advance width="614"/>
  <unicode hex="256D"/>
  <outline>
    <contour>
      <point x="351" y="-420" type="line"/>
      <point x="264" y="-420" type="line"/>
      <point x="264" y="23" type="line" smooth="yes"/>
      <point x="264" y="205"/>
      <point x="433" y="374"/>
      <point x="614" y="374" type="qcurve" smooth="yes"/>
      <point x="634" y="374" type="line"/>
      <point x="634" y="287" type="line"/>
      <point x="614" y="287" type="line" smooth="yes"/>
      <point x="478" y="287"/>
      <point x="351" y="160"/>
      <point x="351" y="23" type="qcurve" smooth="yes"/>
    </contour>
  </outline>
</glyph>
<glyph name="lightupbxd" format="2">
  <advance width="614"/>
  <unicode hex="2575"/>
  <outline>
    <contour>
      <point x="351" y="287" type="line"/>
      <point x="264" y="287" type="line"/>
      <point x="264" y="1080" type="line"/>
      <point x="351" y="1080" type="line"/>
    </contour>
  </outline>
</glyph>
<glyph name="lightupheavydnbxd" format="2">
  <advance width="614"/>
  <unicode hex="257D"/>
  <outline>
    <contour>
      <point x="393" y="-420" type="line"/>
      <point x="221" y="-420" type="line"/>
      <point x="221" y="374" type="line"/>
      <point x="264" y="374" type="line"/>
      <point x="264" y="1080" type="line"/>
      <point x="351" y="1080" type="line"/>
      <point x="351" y="374" type="line"/>
      <point x="393" y="374" type="line"/>
    </contour>
  </outline>
</glyph>
<glyph name="uni2611" format="2">
  <advance width="614"/>
  <unicode hex="2611"/>
  <outline>
    <contour>
      <point x="470" y="732" type="line"/>
      <point x="538" y="732" type="line"/>
      <point x="484" y="585" type="line"/>
      <point x="564" y="585" type="line"/>
      <point x="564" y="70" type="line"/>
      <point x="50" y="70" type="line"/>
      <point x="50" y="585" type="line"/>
      <point x="420" y="585" type="line"/>
    </contour>
    <contour>
      <point x="464" y="531" type="line"/>
      <point x="338" y="191" type="line"/>
      <point x="280" y="191" type="line"/>
      <point x="170" y="430" type="line"/>
      <point x="236" y="430" type="line"/>
      <point x="309" y="262" type="line"/>
      <point x="401" y="531" type="line"/>
      <point x="114" y="531" type="line"/>
      <point x="114" y="124" type="line"/>
      <point x="500" y="124" type="line"/>
      <point x="500" y="531" type="line"/>
    </contour>
  </outline>
</glyph>
<glyph name="uni2612" format="2">
  <advance width="614"/>
  <unicode hex="2612"/>
  <outline>
    <contour>
      <point x="564" y="70" type="line"/>
      <point x="50" y="70" type="line"/>
      <point x="50" y="585" type="line"/>
      <point x="564" y="585" type="line"/>
    </contour>
    <contour>
      <point x="467" y="531" type="line"/>
      <point x="153" y="531" type="line"/>
      <point x="310" y="361" type="line"/>
    </contour>
    <contour>
      <point x="272" y="327" type="line"/>
      <point x="114" y="494" type="line"/>
      <point x="114" y="161" type="line"/>
    </contour>
    <contour>
      <point x="500" y="493" type="line"/>
      <point x="346" y="327" type="line"/>
      <point x="500" y="162" type="line"/>
    </contour>
    <contour>
      <point x="308" y="292" type="line"/>
      <point x="148" y="124" type="line"/>
      <point x="462" y="124" type="line"/>
    </contour>
  </outline>
</glyph>
<glyph name="uniE0A0" format="2">
  <advance width="614"/>
  <unicode hex="E0A0"/>
  <outline>
    <contour>
      <point x="46" y="234" type="line"/>
      <point x="46" y="1020" type="line"/>
      <point x="122" y="1020" type="line"/>
      <point x="122" y="295" type="line"/>
    </contour>
    <contour>
      <point x="47" y="-360" type="line"/>
      <point x="47" y="-198" type="line" smooth="yes"/>
      <point x="47" y="-107"/>
      <point x="61" y="-4"/>
      <point x="76" y="32" type="qcurve" smooth="yes"/>
      <point x="95" y="73"/>
      <point x="169" y="139"/>
      <point x="247" y="182" type="qcurve" smooth="yes"/>
      <point x="325.0" y="224.0"/>
      <point x="370.0" y="299.0"/>
      <point x="370" y="396" type="qcurve" smooth="yes"/>
      <point x="370" y="522" type="line"/>
      <point x="214" y="522" type="line"/>
      <point x="214" y="526" type="line"/>
      <point x="407" y="737" type="line"/>
      <point x="411" y="737" type="line"/>
      <point x="603" y="526" type="line"/>
      <point x="603" y="522" type="line"/>
      <point x="447" y="522" type="line"/>
      <point x="447.0" y="364" type="line" smooth="yes"/>
      <point x="447.0" y="273.0"/>
      <point x="390.0" y="174"/>
      <point x="278" y="114" type="qcurve" smooth="yes"/>
      <point x="212" y="79"/>
      <point x="152" y="22"/>
      <point x="140" y="-15" type="qcurve" smooth="yes"/>
      <point x="131" y="-41"/>
      <point x="124.0" y="-118.0"/>
      <point x="124" y="-209" type="qcurve" smooth="yes"/>
      <point x="124" y="-360" type="line"/>
    </contour>
  </outline>
</glyph>
<glyph name="uniE0A1" format="2">
  <advance width="614"/>
  <unicode hex="E0A1"/>
  <outline>
    <contour>
      <point x="147" y="373" type="line"/>
      <point x="147" y="808" type="line"/>
      <point x="223" y="808" type="line"/>
      <point x="223" y="438" type="line"/>
      <point x="467" y="438" type="line"/>
      <point x="467" y="373" type="line"/>
    </contour>
    <contour>
      <point x="207" y="221" type="line"/>
      <point x="214" y="-163" type="line"/>
      <point x="147" y="-163" type="line"/>
      <point x="147" y="272" type="line"/>
      <point x="261" y="272" type="line"/>
      <point x="407" y="-94" type="line"/>
      <point x="400" y="272" type="line"/>
      <point x="467" y="272" type="line"/>
      <point x="467" y="-163" type="line"/>
      <point x="361" y="-163" type="line"/>
    </contour>
  </outline>
</glyph>
<glyph name="uniE0A2" format="2">
  <advance width="614"/>
  <unicode hex="E0A2"/>
  <outline>
    <contour>
      <point x="434" y="-7" type="qcurve" smooth="yes"/>
      <point x="180" y="-7" type="line" smooth="yes"/>
      <point x="122" y="-7"/>
      <point x="70" y="48"/>
      <point x="70" y="107" type="qcurve" smooth="yes"/>
      <point x="70" y="311" type="line" smooth="yes"/>
      <point x="70" y="370"/>
      <point x="122" y="425"/>
      <point x="180" y="425" type="qcurve" smooth="yes"/>
      <point x="184" y="425" type="line"/>
      <point x="184" y="560" type="line" smooth="yes"/>
      <point x="184" y="618"/>
      <point x="239" y="670"/>
      <point x="298" y="670" type="qcurve" smooth="yes"/>
      <point x="315" y="670" type="line" smooth="yes"/>
      <point x="374" y="670"/>
      <point x="429" y="618"/>
      <point x="429" y="560" type="qcurve" smooth="yes"/>
      <point x="429" y="425" type="line"/>
      <point x="434" y="425" type="line" smooth="yes"/>
      <point x="492" y="425"/>
      <point x="544" y="370"/>
      <point x="544" y="311" type="qcurve" smooth="yes"/>
      <point x="544" y="107" type="line" smooth="yes"/>
      <point x="544" y="48"/>
      <point x="492" y="-7"/>
    </contour>
    <contour>
      <point x="239" y="556" type="qcurve" smooth="yes"/>
      <point x="239" y="425" type="line"/>
      <point x="374" y="425" type="line"/>
      <point x="374" y="556" type="line" smooth="yes"/>
      <point x="374" y="593"/>
      <point x="347" y="624"/>
      <point x="316" y="624" type="qcurve" smooth="yes"/>
      <point x="297" y="624" type="line" smooth="yes"/>
      <point x="266" y="624"/>
      <point x="239" y="593"/>
    </contour>
    <contour>
      <point x="369" y="273" type="qcurve" smooth="yes"/>
      <point x="369" y="297"/>
      <point x="336" y="325"/>
      <point x="307" y="325" type="qcurve" smooth="yes"/>
      <point x="280" y="325"/>
      <point x="247" y="296"/>
      <point x="247" y="270" type="qcurve" smooth="yes"/>
      <point x="247" y="254"/>
      <point x="266" y="229"/>
      <point x="282" y="223" type="qcurve"/>
      <point x="249" y="99" type="line"/>
      <point x="368" y="99" type="line"/>
      <point x="334" y="222" type="line"/>
      <point x="351" y="227"/>
      <point x="369" y="253"/>
    </contour>
  </outline>
</glyph>
<glyph name="uniE0B3" format="2">
  <advance width="614"/>
  <unicode hex="E0B3"/>
  <outline>
    <contour>
      <point x="56" y="325" type="line"/>
      <point x="56" y="329" type="line"/>
      <point x="427" y="655" type="line"/>
      <point x="538" y="655" type="line"/>
      <point x="538" y="651" type="line"/>
      <point x="173" y="328" type="line"/>
      <point x="538" y="4" type="line"/>
      <point x="538" y="0" type="line"/>
      <point x="427" y="0" type="line"/>
    </contour>
  </outline>
</glyph>
<glyph name="ampersand_ampersand.liga" format="2">
  <advance width="614"/>
  <outline>
    <contour>
      <point x="-232" y="669" type="qcurve" smooth="yes"/>
      <point x="-206" y="669"/>
      <point x="-135" y="660"/>
      <point x="-79" y="649" type="qcurve"/>
      <point x="-90" y="581" type="line"/>
      <point x="-142" y="591"/>
      <point x="-208" y="600"/>
      <point x="-234" y="600" type="qcurve" smooth="yes"/>
      <point x="-276" y="600"/>
      <point x="-325" y="564"/>
      <point x="-325" y="533" type="qcurve" smooth="yes"/>
      <point x="-325" y="511"/>
      <point x="-303" y="458"/>
      <point x="-278" y="416" type="qcurve" smooth="yes"/>
      <point x="-181" y="258" type="line"/>
      <point x="-117" y="429" type="line"/>
      <point x="-50" y="403" type="line"/>
      <point x="-135" y="192" type="line"/>
      <point x="-15" y="0" type="line"/>
      <point x="-113" y="0" type="line"/>
      <point x="-178" y="115" type="line"/>
      <point x="-215" y="46"/>
      <point x="-298" y="-8"/>
      <point x="-368" y="-8" type="qcurve" smooth="yes"/>
      <point x="-443" y="-8"/>
      <point x="-534" y="86"/>
      <point x="-534" y="165" type="qcurve" smooth="yes"/>
      <point x="-534" y="252"/>
      <point x="-450" y="340"/>
      <point x="-342" y="371" type="qcurve"/>
      <point x="-376" y="422"/>
      <point x="-406" y="496"/>
      <point x="-406" y="529" type="qcurve" smooth="yes"/>
      <point x="-406" y="592"/>
      <point x="-312" y="669"/>
    </contour>
    <contour>
      <point x="294" y="669" type="qcurve" smooth="yes"/>
      <point x="319" y="669"/>
      <point x="390" y="660"/>
      <point x="447" y="649" type="qcurve"/>
      <point x="435" y="581" type="line"/>
      <point x="383" y="591"/>
      <point x="318" y="600"/>
      <point x="291" y="600" type="qcurve" smooth="yes"/>
      <point x="252" y="600"/>
      <point x="207" y="564"/>
      <point x="207" y="533" type="qcurve" smooth="yes"/>
      <point x="207" y="513"/>
      <point x="228" y="466"/>
      <point x="252" y="432" type="qcurve" smooth="yes"/>
      <point x="382" y="246" type="line"/>
      <point x="454" y="429" type="line"/>
      <point x="521" y="403" type="line"/>
      <point x="428" y="186" type="line"/>
      <point x="559" y="0" type="line"/>
      <point x="461" y="0" type="line"/>
      <point x="385" y="111" type="line"/>
      <point x="349" y="45"/>
      <point x="264" y="-8"/>
      <point x="193" y="-8" type="qcurve" smooth="yes"/>
      <point x="118" y="-8"/>
      <point x="26" y="86"/>
      <point x="26" y="165" type="qcurve" smooth="yes"/>
      <point x="26" y="250"/>
      <point x="104" y="336"/>
      <point x="203" y="367" type="qcurve"/>
      <point x="161" y="427"/>
      <point x="127" y="499"/>
      <point x="127" y="529" type="qcurve" smooth="yes"/>
      <point x="127" y="591"/>
      <point x="218" y="669"/>
    </contour>
    <contour>
      <point x="-453" y="173" type="qcurve" smooth="yes"/>
      <point x="-453" y="122"/>
      <point x="-400" y="65"/>
      <point x="-355" y="65" type="qcurve" smooth="yes"/>
      <point x="-306" y="65"/>
      <point x="-247" y="114"/>
      <point x="-220" y="175" type="qcurve"/>
      <point x="-309" y="319" type="line"/>
      <point x="-394" y="292"/>
      <point x="-453" y="237"/>
    </contour>
    <contour>
      <point x="107" y="173" type="qcurve" smooth="yes"/>
      <point x="107" y="122"/>
      <point x="160" y="65"/>
      <point x="206" y="65" type="qcurve" smooth="yes"/>
      <point x="257" y="65"/>
      <point x="317" y="110"/>
      <point x="343" y="165" type="qcurve"/>
      <point x="240" y="314" type="line"/>
      <point x="162" y="289"/>
      <point x="107" y="235"/>
    </contour>
  </outline>
</glyph>
<glyph name="asciitilde_asciitilde.liga" format="2">
  <advance width="614"/>
  <outline>
    <contour>
      <point x="121" y="353" type="qcurve" smooth="yes"/>
      <point x="105" y="353"/>
      <point x="66" y="331"/>
      <point x="21" y="298" type="qcurve" smooth="yes"/>
      <point x="-43" y="251"/>
      <point x="-102" y="219"/>
      <point x="-126" y="219" type="qcurve" smooth="yes"/>
      <point x="-149" y="219"/>
      <point x="-202" y="247"/>
      <point x="-261" y="291" type="qcurve" smooth="yes"/>
      <point x="-307" y="325"/>
      <point x="-349" y="350"/>
      <point x="-366" y="350" type="qcurve" smooth="yes"/>
      <point x="-382" y="350"/>
      <point x="-413" y="302"/>
      <point x="-452" y="214" type="qcurve"/>
      <point x="-517" y="243" type="line"/>
      <point x="-476" y="345"/>
      <point x="-408" y="434"/>
      <point x="-365" y="434" type="qcurve" smooth="yes"/>
      <point x="-344" y="434"/>
      <point x="-294" y="408"/>
      <point x="-233" y="364" type="qcurve" smooth="yes"/>
      <point x="-184" y="328"/>
      <point x="-139" y="303"/>
      <point x="-121" y="303" type="qcurve" smooth="yes"/>
      <point x="-103" y="303"/>
      <point x="-63" y="325"/>
      <point x="-18" y="358" type="qcurve" smooth="yes"/>
      <point x="46" y="406"/>
      <point x="104" y="437"/>
      <point x="127" y="437" type="qcurve" smooth="yes"/>
      <point x="149" y="437"/>
      <point x="202" y="409"/>
      <point x="262" y="365" type="qcurve" smooth="yes"/>
      <point x="307" y="331"/>
      <point x="349" y="306"/>
      <point x="366" y="306" type="qcurve" smooth="yes"/>
      <point x="383" y="306"/>
      <point x="414" y="354"/>
      <point x="452" y="441" type="qcurve"/>
      <point x="518" y="413" type="line"/>
      <point x="476" y="310"/>
      <point x="408" y="222"/>
      <point x="366" y="222" type="qcurve" smooth="yes"/>
      <point x="345" y="222"/>
      <point x="294" y="248"/>
      <point x="234" y="292" type="qcurve" smooth="yes"/>
      <point x="185" y="328"/>
      <point x="139" y="353"/>
    </contour>
  </outline>
</glyph>
<glyph name="asciitilde_asciitilde_greater" format="2">
  <advance width="614"/>
  <outline>
    <contour>
      <point x="166" y="367" type="qcurve" smooth="yes"/>
      <point x="197" y="340"/>
      <point x="225" y="322"/>
      <point x="239" y="322" type="qcurve" smooth="yes"/>
      <point x="253" y="322"/>
      <point x="316" y="338"/>
      <point x="387" y="359" type="qcurve"/>
      <point x="94" y="613" type="line"/>
      <point x="142" y="665" type="line"/>
      <point x="528" y="329" type="line"/>
      <point x="528" y="325" type="line"/>
      <point x="142" y="-11" type="line"/>
      <point x="94" y="41" type="line"/>
      <point x="381" y="290" type="line"/>
      <point x="311" y="266"/>
      <point x="249" y="249"/>
      <point x="232" y="249" type="qcurve" smooth="yes"/>
      <point x="210" y="249"/>
      <point x="168" y="272"/>
      <point x="132" y="303" type="qcurve" smooth="yes"/>
      <point x="103" y="327"/>
      <point x="69" y="346"/>
      <point x="52" y="346" type="qcurve" smooth="yes"/>
      <point x="35" y="346"/>
      <point x="-1" y="326"/>
      <point x="-41" y="295" type="qcurve" smooth="yes"/>
      <point x="-100" y="250"/>
      <point x="-157" y="219"/>
      <point x="-182" y="219" type="qcurve" smooth="yes"/>
      <point x="-203" y="219"/>
      <point x="-257" y="248"/>
      <point x="-310" y="289" type="qcurve" smooth="yes"/>
      <point x="-352" y="321"/>
      <point x="-395" y="346"/>
      <point x="-413" y="346" type="qcurve" smooth="yes"/>
      <point x="-430" y="346"/>
      <point x="-466" y="326"/>
      <point x="-506" y="295" type="qcurve" smooth="yes"/>
      <point x="-565" y="250"/>
      <point x="-622" y="219"/>
      <point x="-647" y="219" type="qcurve" smooth="yes"/>
      <point x="-669" y="219"/>
      <point x="-723" y="249"/>
      <point x="-778" y="291" type="qcurve" smooth="yes"/>
      <point x="-824" y="327"/>
      <point x="-863" y="350"/>
      <point x="-878" y="350" type="qcurve" smooth="yes"/>
      <point x="-893" y="350"/>
      <point x="-923" y="305"/>
      <point x="-963" y="214" type="qcurve"/>
      <point x="-1028" y="243" type="line"/>
      <point x="-986" y="347"/>
      <point x="-921" y="434"/>
      <point x="-880" y="434" type="qcurve" smooth="yes"/>
      <point x="-857" y="434"/>
      <point x="-806" y="407"/>
      <point x="-750" y="364" type="qcurve" smooth="yes"/>
      <point x="-703" y="329"/>
      <point x="-659" y="303"/>
      <point x="-642" y="303" type="qcurve" smooth="yes"/>
      <point x="-625" y="303"/>
      <point x="-588" y="324"/>
      <point x="-545" y="356" type="qcurve" smooth="yes"/>
      <point x="-489" y="399"/>
      <point x="-433" y="430"/>
      <point x="-408" y="430" type="qcurve" smooth="yes"/>
      <point x="-386" y="430"/>
      <point x="-332" y="400"/>
      <point x="-280" y="361" type="qcurve" smooth="yes"/>
      <point x="-239" y="329"/>
      <point x="-195" y="303"/>
      <point x="-176" y="303" type="qcurve" smooth="yes"/>
      <point x="-160" y="303"/>
      <point x="-122" y="324"/>
      <point x="-80" y="356" type="qcurve" smooth="yes"/>
      <point x="-24" y="399"/>
      <point x="32" y="430"/>
      <point x="57" y="430" type="qcurve" smooth="yes"/>
      <point x="75" y="430"/>
      <point x="124" y="401"/>
    </contour>
  </outline>
</glyph>
<glyph name="asciitilde_at.liga" format="2">
  <advance width="614"/>
  <outline>
    <contour>
      <point x="92" y="612" type="qcurve" smooth="yes"/>
      <point x="72" y="587"/>
      <point x="33" y="505"/>
      <point x="3" y="424" type="qcurve" smooth="yes"/>
      <point x="-38" y="313"/>
      <point x="-102" y="223"/>
      <point x="-146" y="223" type="qcurve" smooth="yes"/>
      <point x="-170" y="223"/>
      <point x="-226" y="254"/>
      <point x="-279" y="294" type="qcurve" smooth="yes"/>
      <point x="-330" y="333"/>
      <point x="-370" y="357"/>
      <point x="-386" y="357" type="qcurve" smooth="yes"/>
      <point x="-401" y="357"/>
      <point x="-429" y="310"/>
      <point x="-467" y="215" type="qcurve"/>
      <point x="-534" y="238" type="line"/>
      <point x="-497" y="350"/>
      <point x="-433" y="441"/>
      <point x="-386" y="441" type="qcurve" smooth="yes"/>
      <point x="-364" y="441"/>
      <point x="-317" y="416"/>
      <point x="-255" y="369" type="qcurve" smooth="yes"/>
      <point x="-203" y="329"/>
      <point x="-157" y="302"/>
      <point x="-138" y="302" type="qcurve" smooth="yes"/>
      <point x="-118" y="302"/>
      <point x="-83" y="359"/>
      <point x="-48" y="447" type="qcurve" smooth="yes"/>
      <point x="-12" y="537"/>
      <point x="38" y="630"/>
      <point x="64" y="658" type="qcurve" smooth="yes"/>
      <point x="99" y="694"/>
      <point x="200" y="725"/>
      <point x="287" y="725" type="qcurve" smooth="yes"/>
      <point x="368" y="725"/>
      <point x="459" y="668"/>
      <point x="482" y="604" type="qcurve" smooth="yes"/>
      <point x="498" y="562"/>
      <point x="513" y="440"/>
      <point x="513" y="358" type="qcurve" smooth="yes"/>
      <point x="513" y="237"/>
      <point x="424" y="129"/>
      <point x="320" y="129" type="qcurve" smooth="yes"/>
      <point x="224" y="129"/>
      <point x="136" y="222"/>
      <point x="136" y="323" type="qcurve" smooth="yes"/>
      <point x="136" y="421"/>
      <point x="233" y="515"/>
      <point x="335" y="515" type="qcurve" smooth="yes"/>
      <point x="453" y="515" type="line"/>
      <point x="441" y="604"/>
      <point x="367" y="677"/>
      <point x="281" y="677" type="qcurve" smooth="yes"/>
      <point x="205" y="677"/>
      <point x="122" y="648"/>
    </contour>
    <contour>
      <point x="204" y="322" type="qcurve" smooth="yes"/>
      <point x="204" y="251"/>
      <point x="260" y="187"/>
      <point x="324" y="187" type="qcurve" smooth="yes"/>
      <point x="400" y="187"/>
      <point x="462" y="264"/>
      <point x="462" y="356" type="qcurve" smooth="yes"/>
      <point x="462" y="384"/>
      <point x="461" y="434"/>
      <point x="459" y="457" type="qcurve"/>
      <point x="333" y="457" type="line" smooth="yes"/>
      <point x="265" y="457"/>
      <point x="204" y="393"/>
    </contour>
  </outline>
</glyph>
<glyph name="asciitilde_greater.liga" format="2">
  <advance width="614"/>
  <outline>
    <contour>
      <point x="-251" y="364" type="qcurve" smooth="yes"/>
      <point x="-203" y="328"/>
      <point x="-160" y="303"/>
      <point x="-143" y="303" type="qcurve" smooth="yes"/>
      <point x="-127" y="303"/>
      <point x="-89" y="324"/>
      <point x="-47" y="356" type="qcurve" smooth="yes"/>
      <point x="8" y="398"/>
      <point x="66" y="430"/>
      <point x="90" y="430" type="qcurve" smooth="yes"/>
      <point x="106" y="430"/>
      <point x="149" y="407"/>
      <point x="191" y="374" type="qcurve" smooth="yes"/>
      <point x="226" y="346"/>
      <point x="254" y="328"/>
      <point x="266" y="328" type="qcurve" smooth="yes"/>
      <point x="277" y="328"/>
      <point x="320" y="338"/>
      <point x="389" y="357" type="qcurve"/>
      <point x="94" y="613" type="line"/>
      <point x="142" y="665" type="line"/>
      <point x="528" y="329" type="line"/>
      <point x="528" y="325" type="line"/>
      <point x="142" y="-11" type="line"/>
      <point x="94" y="41" type="line"/>
      <point x="380" y="290" type="line"/>
      <point x="318" y="269"/>
      <point x="272" y="256"/>
      <point x="259" y="256" type="qcurve" smooth="yes"/>
      <point x="239" y="256"/>
      <point x="198" y="278"/>
      <point x="159" y="309" type="qcurve" smooth="yes"/>
      <point x="132" y="330"/>
      <point x="100" y="346"/>
      <point x="85" y="346" type="qcurve" smooth="yes"/>
      <point x="68" y="346"/>
      <point x="32" y="326"/>
      <point x="-8" y="295" type="qcurve" smooth="yes"/>
      <point x="-65" y="251"/>
      <point x="-124" y="219"/>
      <point x="-149" y="219" type="qcurve" smooth="yes"/>
      <point x="-171" y="219"/>
      <point x="-226" y="250"/>
      <point x="-280" y="291" type="qcurve" smooth="yes"/>
      <point x="-326" y="327"/>
      <point x="-365" y="350"/>
      <point x="-380" y="350" type="qcurve" smooth="yes"/>
      <point x="-395" y="350"/>
      <point x="-425" y="304"/>
      <point x="-464" y="214" type="qcurve"/>
      <point x="-530" y="243" type="line"/>
      <point x="-488" y="347"/>
      <point x="-423" y="434"/>
      <point x="-382" y="434" type="qcurve" smooth="yes"/>
      <point x="-359" y="434"/>
      <point x="-308" y="407"/>
    </contour>
  </outline>
</glyph>
<glyph name="asciitilde_hyphen.liga" format="2">
  <advance width="614"/>
  <outline>
    <contour>
      <point x="-47" y="350" type="qcurve" smooth="yes"/>
      <point x="-17" y="358"/>
      <point x="21" y="363"/>
      <point x="39" y="363" type="qcurve" smooth="yes"/>
      <point x="467" y="363" type="line"/>
      <point x="467" y="292" type="line"/>
      <point x="44" y="292" type="line" smooth="yes"/>
      <point x="26" y="292"/>
      <point x="-8" y="285"/>
      <point x="-35" y="275" type="qcurve" smooth="yes"/>
      <point x="-58" y="266"/>
      <point x="-83" y="261"/>
      <point x="-96" y="261" type="qcurve" smooth="yes"/>
      <point x="-118" y="261"/>
      <point x="-172" y="289"/>
      <point x="-223" y="328" type="qcurve" smooth="yes"/>
      <point x="-271" y="365"/>
      <point x="-310" y="388"/>
      <point x="-326" y="388" type="qcurve" smooth="yes"/>
      <point x="-341" y="388"/>
      <point x="-369" y="341"/>
      <point x="-407" y="246" type="qcurve"/>
      <point x="-474" y="270" type="line"/>
      <point x="-437" y="381"/>
      <point x="-373" y="472"/>
      <point x="-326" y="472" type="qcurve" smooth="yes"/>
      <point x="-304" y="472"/>
      <point x="-257" y="447"/>
      <point x="-195" y="400" type="qcurve" smooth="yes"/>
      <point x="-149" y="365"/>
      <point x="-107" y="342"/>
      <point x="-88" y="342" type="qcurve" smooth="yes"/>
      <point x="-82" y="342"/>
      <point x="-65" y="345"/>
    </contour>
  </outline>
</glyph>
<glyph name="bar_bar_bar_greater.liga" format="2">
  <advance width="614"/>
  <outline>
    <contour>
      <point x="-921" y="783" type="line"/>
      <point x="-840" y="783" type="line"/>
      <point x="-840" y="-129" type="line"/>
      <point x="-921" y="-129" type="line"/>
    </contour>
    <contour>
      <point x="-1335" y="783" type="line"/>
      <point x="-1255" y="783" type="line"/>
      <point x="-1255" y="-129" type="line"/>
      <point x="-1335" y="-129" type="line"/>
    </contour>
    <contour>
      <point x="-506" y="-129" type="line"/>
      <point x="-506" y="783" type="line"/>
      <point x="-441" y="783" type="line"/>
      <point x="210" y="365" type="line"/>
      <point x="210" y="286" type="line"/>
      <point x="-441" y="-129" type="line"/>
    </contour>
    <contour>
      <point x="137" y="326" type="line"/>
      <point x="-426" y="681" type="line"/>
      <point x="-426" y="-27" type="line"/>
    </contour>
  </outline>
</glyph>
<glyph name="bar_bar_equal.liga" format="2">
  <advance width="614"/>
  <outline>
    <contour>
      <point x="521" y="266" type="line"/>
      <point x="521" y="194" type="line"/>
      <point x="-564" y="194" type="line"/>
      <point x="-564" y="-100" type="line"/>
      <point x="-644" y="-100" type="line"/>
      <point x="-644" y="755" type="line"/>
      <point x="-564" y="755" type="line"/>
      <point x="-564" y="461" type="line"/>
      <point x="521" y="461" type="line"/>
      <point x="521" y="390" type="line"/>
      <point x="-564" y="390" type="line"/>
      <point x="-564" y="266" type="line"/>
    </contour>
    <contour>
      <point x="-961" y="-100" type="line"/>
      <point x="-961" y="755" type="line"/>
      <point x="-881" y="755" type="line"/>
      <point x="-881" y="-100" type="line"/>
    </contour>
  </outline>
</glyph>
<glyph name="bar_bar_greater.liga" format="2">
  <advance width="614"/>
  <outline>
    <contour>
      <point x="-704" y="783" type="line"/>
      <point x="-704" y="-129" type="line"/>
      <point x="-784" y="-129" type="line"/>
      <point x="-784" y="783" type="line"/>
    </contour>
    <contour>
      <point x="-370" y="783" type="line"/>
      <point x="-305" y="783" type="line"/>
      <point x="346" y="364" type="line"/>
      <point x="346" y="286" type="line"/>
      <point x="-305" y="-129" type="line"/>
      <point x="-370" y="-129" type="line"/>
    </contour>
    <contour>
      <point x="273" y="325" type="line"/>
      <point x="-290" y="681" type="line"/>
      <point x="-290" y="-27" type="line"/>
    </contour>
  </outline>
</glyph>
<glyph name="bar_bar_hyphen.start" format="2">
  <advance width="614"/>
  <outline>
    <contour>
      <point x="-961" y="755" type="line"/>
      <point x="-881" y="755" type="line"/>
      <point x="-881" y="-100" type="line"/>
      <point x="-961" y="-100" type="line"/>
    </contour>
    <contour>
      <point x="624" y="363" type="line"/>
      <point x="624" y="292" type="line"/>
      <point x="-562" y="292" type="line"/>
      <point x="-562" y="-100" type="line"/>
      <point x="-642" y="-100" type="line"/>
      <point x="-642" y="755" type="line"/>
      <point x="-562" y="755" type="line"/>
      <point x="-562" y="363" type="line"/>
    </contour>
  </outline>
</glyph>
<glyph name="bar_braceright.liga" format="2">
  <advance width="614"/>
  <outline>
    <contour>
      <point x="345" y="-26" type="qcurve" smooth="yes"/>
      <point x="345" y="-69"/>
      <point x="289" y="-117"/>
      <point x="234" y="-120" type="qcurve" smooth="yes"/>
      <point x="-70" y="-132" type="line"/>
      <point x="-73" y="-59" type="line"/>
      <point x="214" y="-49" type="line" smooth="yes"/>
      <point x="233" y="-48"/>
      <point x="253" y="-32"/>
      <point x="253" y="-17" type="qcurve" smooth="yes"/>
      <point x="253" y="-10"/>
      <point x="242" y="8"/>
      <point x="222" y="33" type="qcurve" smooth="yes"/>
      <point x="173" y="91" type="line" smooth="yes"/>
      <point x="139" y="131"/>
      <point x="117" y="169"/>
      <point x="117" y="187" type="qcurve" smooth="yes"/>
      <point x="117" y="218"/>
      <point x="169" y="258"/>
      <point x="229" y="279" type="qcurve" smooth="yes"/>
      <point x="258" y="289"/>
      <point x="333" y="311"/>
      <point x="380" y="322" type="qcurve"/>
      <point x="380" y="334" type="line"/>
      <point x="333" y="346"/>
      <point x="258" y="367"/>
      <point x="229" y="377" type="qcurve" smooth="yes"/>
      <point x="169" y="398"/>
      <point x="117" y="439"/>
      <point x="117" y="470" type="qcurve" smooth="yes"/>
      <point x="117" y="488"/>
      <point x="140" y="526"/>
      <point x="173" y="565" type="qcurve" smooth="yes"/>
      <point x="222" y="623" type="line"/>
      <point x="244" y="652"/>
      <point x="253" y="667"/>
      <point x="253" y="673" type="qcurve" smooth="yes"/>
      <point x="253" y="689"/>
      <point x="233" y="705"/>
      <point x="214" y="706" type="qcurve" smooth="yes"/>
      <point x="-75" y="716" type="line"/>
      <point x="-72" y="789" type="line"/>
      <point x="234" y="776" type="line" smooth="yes"/>
      <point x="289" y="774"/>
      <point x="345" y="726"/>
      <point x="345" y="682" type="qcurve" smooth="yes"/>
      <point x="345" y="664"/>
      <point x="321" y="620"/>
      <point x="293" y="586" type="qcurve" smooth="yes"/>
      <point x="244" y="528" type="line" smooth="yes"/>
      <point x="224" y="504"/>
      <point x="211" y="483"/>
      <point x="211" y="474" type="qcurve" smooth="yes"/>
      <point x="211" y="455"/>
      <point x="265" y="425"/>
      <point x="328" y="406" type="qcurve" smooth="yes"/>
      <point x="355" y="398"/>
      <point x="424" y="379"/>
      <point x="466" y="368" type="qcurve"/>
      <point x="466" y="289" type="line"/>
      <point x="424" y="278"/>
      <point x="355" y="259"/>
      <point x="328" y="251" type="qcurve" smooth="yes"/>
      <point x="265" y="232"/>
      <point x="211" y="202"/>
      <point x="211" y="183" type="qcurve" smooth="yes"/>
      <point x="211" y="173"/>
      <point x="223" y="154"/>
      <point x="244" y="128" type="qcurve" smooth="yes"/>
      <point x="293" y="70" type="line" smooth="yes"/>
      <point x="322" y="36"/>
      <point x="345" y="-7"/>
    </contour>
    <contour>
      <point x="-266" y="-129" type="line"/>
      <point x="-346" y="-129" type="line"/>
      <point x="-346" y="783" type="line"/>
      <point x="-266" y="783" type="line"/>
    </contour>
  </outline>
</glyph>
<glyph name="braceleft_bar.liga" format="2">
  <advance width="614"/>
  <outline>
    <contour>
      <point x="-343" y="-26" type="qcurve" smooth="yes"/>
      <point x="-343" y="-7"/>
      <point x="-321" y="35"/>
      <point x="-292" y="70" type="qcurve" smooth="yes"/>
      <point x="-243" y="128" type="line" smooth="yes"/>
      <point x="-222" y="154"/>
      <point x="-210" y="173"/>
      <point x="-210" y="183" type="qcurve" smooth="yes"/>
      <point x="-210" y="202"/>
      <point x="-264" y="232"/>
      <point x="-327" y="251" type="qcurve" smooth="yes"/>
      <point x="-354" y="259"/>
      <point x="-423" y="278"/>
      <point x="-465" y="289" type="qcurve"/>
      <point x="-465" y="368" type="line"/>
      <point x="-423" y="379"/>
      <point x="-354" y="398"/>
      <point x="-327" y="406" type="qcurve" smooth="yes"/>
      <point x="-264" y="425"/>
      <point x="-210" y="455"/>
      <point x="-210" y="474" type="qcurve" smooth="yes"/>
      <point x="-210" y="483"/>
      <point x="-223" y="504"/>
      <point x="-243" y="528" type="qcurve" smooth="yes"/>
      <point x="-292" y="586" type="line" smooth="yes"/>
      <point x="-320" y="620"/>
      <point x="-343" y="664"/>
      <point x="-343" y="682" type="qcurve" smooth="yes"/>
      <point x="-343" y="726"/>
      <point x="-287" y="774"/>
      <point x="-233" y="776" type="qcurve" smooth="yes"/>
      <point x="71" y="789" type="line"/>
      <point x="74" y="716" type="line"/>
      <point x="-212" y="706" type="line" smooth="yes"/>
      <point x="-232" y="705"/>
      <point x="-251" y="689"/>
      <point x="-251" y="673" type="qcurve" smooth="yes"/>
      <point x="-251" y="666"/>
      <point x="-240" y="647"/>
      <point x="-220" y="623" type="qcurve" smooth="yes"/>
      <point x="-172" y="565" type="line" smooth="yes"/>
      <point x="-139" y="526"/>
      <point x="-116" y="488"/>
      <point x="-116" y="470" type="qcurve" smooth="yes"/>
      <point x="-116" y="439"/>
      <point x="-168" y="398"/>
      <point x="-228" y="377" type="qcurve" smooth="yes"/>
      <point x="-257" y="367"/>
      <point x="-332" y="345"/>
      <point x="-379" y="333" type="qcurve"/>
      <point x="-379" y="323" type="line"/>
      <point x="-332" y="311"/>
      <point x="-257" y="290"/>
      <point x="-228" y="280" type="qcurve" smooth="yes"/>
      <point x="-168" y="259"/>
      <point x="-116" y="218"/>
      <point x="-116" y="187" type="qcurve" smooth="yes"/>
      <point x="-116" y="169"/>
      <point x="-138" y="131"/>
      <point x="-172" y="91" type="qcurve" smooth="yes"/>
      <point x="-220" y="33" type="line" smooth="yes"/>
      <point x="-238" y="11"/>
      <point x="-251" y="-9"/>
      <point x="-251" y="-17" type="qcurve" smooth="yes"/>
      <point x="-251" y="-32"/>
      <point x="-231" y="-48"/>
      <point x="-212" y="-49" type="qcurve" smooth="yes"/>
      <point x="77" y="-59" type="line"/>
      <point x="73" y="-132" type="line"/>
      <point x="-233" y="-120" type="line" smooth="yes"/>
      <point x="-287" y="-117"/>
      <point x="-343" y="-70"/>
    </contour>
    <contour>
      <point x="267" y="783" type="line"/>
      <point x="347" y="783" type="line"/>
      <point x="347" y="-129" type="line"/>
      <point x="267" y="-129" type="line"/>
    </contour>
  </outline>
</glyph>
<glyph name="bracketright_numbersign.liga" format="2">
  <advance width="614"/>
  <outline>
    <contour>
      <point x="148" y="489" type="line"/>
      <point x="181" y="666" type="line"/>
      <point x="244" y="666" type="line"/>
      <point x="211" y="486" type="line"/>
      <point x="337" y="486" type="line"/>
      <point x="371" y="666" type="line"/>
      <point x="434" y="666" type="line"/>
      <point x="401" y="489" type="line"/>
      <point x="511" y="489" type="line"/>
      <point x="511" y="411" type="line"/>
      <point x="387" y="411" type="line"/>
      <point x="357" y="249" type="line"/>
      <point x="481" y="249" type="line"/>
      <point x="481" y="172" type="line"/>
      <point x="342" y="172" type="line"/>
      <point x="308" y="-12" type="line"/>
      <point x="245" y="-12" type="line"/>
      <point x="279" y="175" type="line"/>
      <point x="153" y="175" type="line"/>
      <point x="118" y="-12" type="line"/>
      <point x="56" y="-12" type="line"/>
      <point x="90" y="172" type="line"/>
      <point x="-165" y="172" type="line"/>
      <point x="-165" y="-135" type="line"/>
      <point x="-500" y="-135" type="line"/>
      <point x="-500" y="-63" type="line"/>
      <point x="-252" y="-63" type="line"/>
      <point x="-252" y="715" type="line"/>
      <point x="-500" y="715" type="line"/>
      <point x="-500" y="787" type="line"/>
      <point x="-165" y="787" type="line"/>
      <point x="-165" y="489" type="line"/>
    </contour>
    <contour>
      <point x="157" y="229" type="line"/>
      <point x="295" y="229" type="line"/>
      <point x="332" y="431" type="line"/>
      <point x="195" y="431" type="line"/>
    </contour>
    <contour>
      <point x="-165" y="414" type="line"/>
      <point x="-165" y="246" type="line"/>
      <point x="104" y="246" type="line"/>
      <point x="135" y="414" type="line"/>
    </contour>
  </outline>
</glyph>
<glyph name="brevegrave.cap" format="2">
  <outline>
    <contour>
      <point x="-161" y="1066" type="line"/>
      <point x="70" y="939" type="line"/>
      <point x="46" y="890" type="line"/>
      <point x="-193" y="1003" type="line"/>
    </contour>
    <contour>
      <point x="0" y="795" type="qcurve"/>
      <point x="48" y="795"/>
      <point x="111" y="846"/>
      <point x="130" y="900" type="qcurve"/>
      <point x="185" y="882" type="line"/>
      <point x="165" y="805"/>
      <point x="74" y="731"/>
      <point x="0" y="731" type="qcurve"/>
      <point x="-74" y="731"/>
      <point x="-164" y="804"/>
      <point x="-185" y="879" type="qcurve"/>
      <point x="-130" y="897" type="line"/>
      <point x="-112" y="845"/>
      <point x="-49" y="795"/>
    </contour>
  </outline>
</glyph>
<glyph name="brevegrave" format="2">
  <outline>
    <contour>
      <point x="-158" y="915" type="line"/>
      <point x="68" y="781" type="line"/>
      <point x="41" y="734" type="line"/>
      <point x="-192" y="852" type="line"/>
    </contour>
    <contour>
      <point x="0" y="605" type="qcurve"/>
      <point x="46" y="605"/>
      <point x="108" y="664"/>
      <point x="130" y="728" type="qcurve"/>
      <point x="185" y="710" type="line"/>
      <point x="162" y="623"/>
      <point x="72" y="541"/>
      <point x="0" y="541" type="qcurve"/>
      <point x="-72" y="541"/>
      <point x="-162" y="623"/>
      <point x="-185" y="710" type="qcurve"/>
      <point x="-130" y="728" type="line"/>
      <point x="-107" y="664"/>
      <point x="-45" y="605"/>
    </contour>
  </outline>
</glyph>
<glyph name="brevehook.cap" format="2">
  <outline>
    <contour>
      <point x="128" y="987" type="qcurve"/>
      <point x="128" y="953"/>
      <point x="39" y="906"/>
      <point x="-48" y="895" type="qcurve"/>
      <point x="-67" y="935" type="line"/>
      <point x="-67" y="937" type="line"/>
      <point x="-1" y="949"/>
      <point x="50" y="967"/>
      <point x="50" y="980" type="qcurve"/>
      <point x="50" y="995"/>
      <point x="-18" y="1015"/>
      <point x="-111" y="1030" type="qcurve"/>
      <point x="-111" y="1032" type="line"/>
      <point x="-72" y="1079" type="line"/>
      <point x="39" y="1063"/>
      <point x="128" y="1023"/>
    </contour>
    <contour>
      <point x="0" y="795" type="qcurve"/>
      <point x="48" y="795"/>
      <point x="112" y="845"/>
      <point x="130" y="897" type="qcurve"/>
      <point x="185" y="879" type="line"/>
      <point x="164" y="804"/>
      <point x="74" y="731"/>
      <point x="0" y="731" type="qcurve"/>
      <point x="-74" y="731"/>
      <point x="-165" y="805"/>
      <point x="-185" y="882" type="qcurve"/>
      <point x="-130" y="900" type="line"/>
      <point x="-111" y="846"/>
      <point x="-48" y="795"/>
    </contour>
  </outline>
</glyph>
<glyph name="brevehook" format="2">
  <outline>
    <contour>
      <point x="137" y="838" type="qcurve"/>
      <point x="137" y="800"/>
      <point x="44" y="746"/>
      <point x="-47" y="732" type="qcurve"/>
      <point x="-65" y="772" type="line"/>
      <point x="-65" y="774" type="line"/>
      <point x="6" y="790"/>
      <point x="59" y="814"/>
      <point x="59" y="831" type="qcurve"/>
      <point x="59" y="848"/>
      <point x="-7" y="869"/>
      <point x="-88" y="882" type="qcurve"/>
      <point x="-88" y="884" type="line"/>
      <point x="-49" y="929" type="line"/>
      <point x="55" y="913"/>
      <point x="137" y="874"/>
    </contour>
    <contour>
      <point x="0" y="605" type="qcurve"/>
      <point x="46" y="605"/>
      <point x="108" y="664"/>
      <point x="130" y="728" type="qcurve"/>
      <point x="185" y="710" type="line"/>
      <point x="162" y="623"/>
      <point x="72" y="541"/>
      <point x="0" y="541" type="qcurve"/>
      <point x="-72" y="541"/>
      <point x="-162" y="623"/>
      <point x="-185" y="710" type="qcurve"/>
      <point x="-130" y="728" type="line"/>
      <point x="-107" y="664"/>
      <point x="-45" y="605"/>
    </contour>
  </outline>
</glyph>
<glyph name="brevetilde" format="2">
  <outline>
    <contour>
      <point x="-72" y="917" type="qcurve"/>
      <point x="-56" y="917"/>
      <point x="-24" y="898"/>
      <point x="14" y="866" type="qcurve"/>
      <point x="44" y="841"/>
      <point x="65" y="828"/>
      <point x="74" y="828" type="qcurve"/>
      <point x="89" y="828"/>
      <point x="116" y="872"/>
      <point x="136" y="924" type="qcurve"/>
      <point x="189" y="906" type="line"/>
      <point x="160" y="827"/>
      <point x="112" y="762"/>
      <point x="78" y="762" type="qcurve"/>
      <point x="62" y="762"/>
      <point x="29" y="781"/>
      <point x="-8" y="812" type="qcurve"/>
      <point x="-45" y="842"/>
      <point x="-61" y="851"/>
      <point x="-68" y="851" type="qcurve"/>
      <point x="-82" y="851"/>
      <point x="-108" y="810"/>
      <point x="-126" y="763" type="qcurve"/>
      <point x="-180" y="782" type="line"/>
      <point x="-152" y="856"/>
      <point x="-105" y="917"/>
    </contour>
    <contour>
      <point x="0" y="605" type="qcurve"/>
      <point x="46" y="605"/>
      <point x="108" y="664"/>
      <point x="130" y="728" type="qcurve"/>
      <point x="185" y="710" type="line"/>
      <point x="162" y="623"/>
      <point x="72" y="541"/>
      <point x="0" y="541" type="qcurve"/>
      <point x="-72" y="541"/>
      <point x="-162" y="622"/>
      <point x="-184" y="706" type="qcurve"/>
      <point x="-129" y="724" type="line"/>
      <point x="-107" y="662"/>
      <point x="-46" y="605"/>
    </contour>
  </outline>
</glyph>
<glyph name="circumflexacute.cap" format="2">
  <outline>
    <contour>
      <point x="124" y="893" type="line"/>
      <point x="96" y="941" type="line"/>
      <point x="243" y="1039" type="line"/>
      <point x="280" y="977" type="line"/>
    </contour>
    <contour>
      <point x="-155" y="732" type="line"/>
      <point x="-188" y="774" type="line"/>
      <point x="-19" y="904" type="line"/>
      <point x="19" y="904" type="line"/>
      <point x="188" y="774" type="line"/>
      <point x="155" y="732" type="line"/>
      <point x="0" y="832" type="line"/>
    </contour>
  </outline>
</glyph>
<glyph name="circumflexgrave.cap" format="2">
  <outline>
    <contour>
      <point x="75" y="1046" type="line"/>
      <point x="233" y="943" type="line"/>
      <point x="206" y="894" type="line"/>
      <point x="38" y="984" type="line"/>
    </contour>
    <contour>
      <point x="-155" y="732" type="line"/>
      <point x="-188" y="774" type="line"/>
      <point x="-19" y="904" type="line"/>
      <point x="19" y="904" type="line"/>
      <point x="188" y="774" type="line"/>
      <point x="155" y="732" type="line"/>
      <point x="0" y="832" type="line"/>
    </contour>
  </outline>
</glyph>
<glyph name="circumflextilde.cap" format="2">
  <outline>
    <contour>
      <point x="-59" y="1088" type="qcurve"/>
      <point x="-42" y="1088"/>
      <point x="-9" y="1069"/>
      <point x="27" y="1040" type="qcurve"/>
      <point x="57" y="1016"/>
      <point x="80" y="1002"/>
      <point x="89" y="1002" type="qcurve"/>
      <point x="103" y="1002"/>
      <point x="128" y="1044"/>
      <point x="150" y="1098" type="qcurve"/>
      <point x="204" y="1078" type="line"/>
      <point x="177" y="1002"/>
      <point x="129" y="936"/>
      <point x="93" y="936" type="qcurve"/>
      <point x="76" y="936"/>
      <point x="42" y="955"/>
      <point x="6" y="984" type="qcurve"/>
      <point x="-23" y="1007"/>
      <point x="-46" y="1022"/>
      <point x="-55" y="1022" type="qcurve"/>
      <point x="-69" y="1022"/>
      <point x="-93" y="984"/>
      <point x="-112" y="935" type="qcurve"/>
      <point x="-166" y="955" type="line"/>
      <point x="-140" y="1027"/>
      <point x="-94" y="1088"/>
    </contour>
    <contour>
      <point x="-155" y="732" type="line"/>
      <point x="-188" y="774" type="line"/>
      <point x="-19" y="904" type="line"/>
      <point x="19" y="904" type="line"/>
      <point x="188" y="774" type="line"/>
      <point x="155" y="732" type="line"/>
      <point x="0" y="832" type="line"/>
    </contour>
  </outline>
</glyph>
<glyph name="colon_colon_equal.liga" format="2">
  <advance width="614"/>
  <outline>
    <contour>
      <point x="-777" y="495" type="qcurve" smooth="yes"/>
      <point x="-777" y="459"/>
      <point x="-823" y="418"/>
      <point x="-865" y="418" type="qcurve" smooth="yes"/>
      <point x="-905" y="418"/>
      <point x="-951" y="460"/>
      <point x="-951" y="497" type="qcurve" smooth="yes"/>
      <point x="-951" y="532"/>
      <point x="-903" y="574"/>
      <point x="-863" y="574" type="qcurve" smooth="yes"/>
      <point x="-820" y="574"/>
      <point x="-777" y="534"/>
    </contour>
    <contour>
      <point x="-321" y="495" type="qcurve" smooth="yes"/>
      <point x="-321" y="459"/>
      <point x="-368" y="418"/>
      <point x="-409" y="418" type="qcurve" smooth="yes"/>
      <point x="-450" y="418"/>
      <point x="-495" y="459"/>
      <point x="-495" y="497" type="qcurve" smooth="yes"/>
      <point x="-495" y="532"/>
      <point x="-448" y="574"/>
      <point x="-408" y="574" type="qcurve" smooth="yes"/>
      <point x="-365" y="574"/>
      <point x="-321" y="534"/>
    </contour>
    <contour>
      <point x="391" y="390" type="line"/>
      <point x="-38" y="390" type="line"/>
      <point x="-38" y="461" type="line"/>
      <point x="391" y="461" type="line"/>
    </contour>
    <contour>
      <point x="391" y="194" type="line"/>
      <point x="-38" y="194" type="line"/>
      <point x="-38" y="266" type="line"/>
      <point x="391" y="266" type="line"/>
    </contour>
    <contour>
      <point x="-777" y="159" type="qcurve" smooth="yes"/>
      <point x="-777" y="122"/>
      <point x="-823" y="82"/>
      <point x="-865" y="82" type="qcurve" smooth="yes"/>
      <point x="-905" y="82"/>
      <point x="-951" y="124"/>
      <point x="-951" y="161" type="qcurve" smooth="yes"/>
      <point x="-951" y="196"/>
      <point x="-903" y="238"/>
      <point x="-863" y="238" type="qcurve" smooth="yes"/>
      <point x="-821" y="238"/>
      <point x="-777" y="198"/>
    </contour>
    <contour>
      <point x="-321" y="159" type="qcurve" smooth="yes"/>
      <point x="-321" y="122"/>
      <point x="-367" y="82"/>
      <point x="-409" y="82" type="qcurve" smooth="yes"/>
      <point x="-450" y="82"/>
      <point x="-495" y="123"/>
      <point x="-495" y="161" type="qcurve" smooth="yes"/>
      <point x="-495" y="196"/>
      <point x="-448" y="238"/>
      <point x="-408" y="238" type="qcurve" smooth="yes"/>
      <point x="-365" y="238"/>
      <point x="-321" y="198"/>
    </contour>
  </outline>
</glyph>
<glyph name="colon_equal.liga" format="2">
  <advance width="614"/>
  <outline>
    <contour>
      <point x="-273" y="495" type="qcurve" smooth="yes"/>
      <point x="-273" y="459"/>
      <point x="-319" y="418"/>
      <point x="-361" y="418" type="qcurve" smooth="yes"/>
      <point x="-402" y="418"/>
      <point x="-447" y="459"/>
      <point x="-447" y="497" type="qcurve" smooth="yes"/>
      <point x="-447" y="532"/>
      <point x="-400" y="574"/>
      <point x="-360" y="574" type="qcurve" smooth="yes"/>
      <point x="-317" y="574"/>
      <point x="-273" y="534"/>
    </contour>
    <contour>
      <point x="401" y="390" type="line"/>
      <point x="-71" y="390" type="line"/>
      <point x="-71" y="461" type="line"/>
      <point x="401" y="461" type="line"/>
    </contour>
    <contour>
      <point x="401" y="194" type="line"/>
      <point x="-71" y="194" type="line"/>
      <point x="-71" y="266" type="line"/>
      <point x="401" y="266" type="line"/>
    </contour>
    <contour>
      <point x="-273" y="159" type="qcurve" smooth="yes"/>
      <point x="-273" y="122"/>
      <point x="-319" y="82"/>
      <point x="-361" y="82" type="qcurve" smooth="yes"/>
      <point x="-402" y="82"/>
      <point x="-447" y="123"/>
      <point x="-447" y="161" type="qcurve" smooth="yes"/>
      <point x="-447" y="196"/>
      <point x="-400" y="238"/>
      <point x="-360" y="238" type="qcurve" smooth="yes"/>
      <point x="-317" y="238"/>
      <point x="-273" y="198"/>
    </contour>
  </outline>
</glyph>
<glyph name="colon_greater.liga" format="2">
  <advance width="614"/>
  <outline>
    <contour>
      <point x="-211" y="495" type="qcurve" smooth="yes"/>
      <point x="-211" y="459"/>
      <point x="-257" y="418"/>
      <point x="-299" y="418" type="qcurve" smooth="yes"/>
      <point x="-339" y="418"/>
      <point x="-385" y="460"/>
      <point x="-385" y="497" type="qcurve" smooth="yes"/>
      <point x="-385" y="531"/>
      <point x="-337" y="574"/>
      <point x="-297" y="574" type="qcurve" smooth="yes"/>
      <point x="-254" y="574"/>
      <point x="-211" y="534"/>
    </contour>
    <contour>
      <point x="470" y="364" type="line"/>
      <point x="470" y="286" type="line"/>
      <point x="0" y="82" type="line"/>
      <point x="0" y="162" type="line"/>
      <point x="393" y="325" type="line"/>
      <point x="0" y="487" type="line"/>
      <point x="0" y="567" type="line"/>
    </contour>
    <contour>
      <point x="-211" y="159" type="qcurve" smooth="yes"/>
      <point x="-211" y="122"/>
      <point x="-257" y="82"/>
      <point x="-299" y="82" type="qcurve" smooth="yes"/>
      <point x="-339" y="82"/>
      <point x="-385" y="124"/>
      <point x="-385" y="161" type="qcurve" smooth="yes"/>
      <point x="-385" y="195"/>
      <point x="-337" y="238"/>
      <point x="-297" y="238" type="qcurve" smooth="yes"/>
      <point x="-254" y="238"/>
      <point x="-211" y="198"/>
    </contour>
  </outline>
</glyph>
<glyph name="colon_less.liga" format="2">
  <advance width="614"/>
  <outline>
    <contour>
      <point x="-211" y="495" type="qcurve" smooth="yes"/>
      <point x="-211" y="459"/>
      <point x="-258" y="418"/>
      <point x="-299" y="418" type="qcurve" smooth="yes"/>
      <point x="-340" y="418"/>
      <point x="-385" y="459"/>
      <point x="-385" y="497" type="qcurve" smooth="yes"/>
      <point x="-385" y="532"/>
      <point x="-338" y="574"/>
      <point x="-298" y="574" type="qcurve" smooth="yes"/>
      <point x="-255" y="574"/>
      <point x="-211" y="534"/>
    </contour>
    <contour>
      <point x="408" y="162" type="line"/>
      <point x="408" y="82" type="line"/>
      <point x="-62" y="286" type="line"/>
      <point x="-62" y="364" type="line"/>
      <point x="408" y="567" type="line"/>
      <point x="408" y="487" type="line"/>
      <point x="15" y="325" type="line"/>
    </contour>
    <contour>
      <point x="-211" y="159" type="qcurve" smooth="yes"/>
      <point x="-211" y="122"/>
      <point x="-257" y="82"/>
      <point x="-299" y="82" type="qcurve" smooth="yes"/>
      <point x="-340" y="82"/>
      <point x="-385" y="123"/>
      <point x="-385" y="161" type="qcurve" smooth="yes"/>
      <point x="-385" y="196"/>
      <point x="-338" y="238"/>
      <point x="-298" y="238" type="qcurve" smooth="yes"/>
      <point x="-255" y="238"/>
      <point x="-211" y="198"/>
    </contour>
  </outline>
</glyph>
<glyph name="dieresiscaron.cap" format="2">
  <outline>
    <contour>
      <point x="155" y="1074" type="line"/>
      <point x="187" y="1034" type="line"/>
      <point x="19" y="893" type="line"/>
      <point x="-19" y="893" type="line"/>
      <point x="-186" y="1034" type="line"/>
      <point x="-155" y="1074" type="line"/>
      <point x="0" y="963" type="line"/>
    </contour>
    <contour>
      <point x="-72" y="806" type="qcurve"/>
      <point x="-72" y="779"/>
      <point x="-103" y="751"/>
      <point x="-132" y="751" type="qcurve"/>
      <point x="-160" y="751"/>
      <point x="-191" y="780"/>
      <point x="-191" y="806" type="qcurve"/>
      <point x="-191" y="831"/>
      <point x="-158" y="862"/>
      <point x="-131" y="862" type="qcurve"/>
      <point x="-102" y="862"/>
      <point x="-72" y="833"/>
    </contour>
    <contour>
      <point x="190" y="806" type="qcurve"/>
      <point x="190" y="780"/>
      <point x="159" y="751"/>
      <point x="130" y="751" type="qcurve"/>
      <point x="102" y="751"/>
      <point x="71" y="780"/>
      <point x="71" y="806" type="qcurve"/>
      <point x="71" y="831"/>
      <point x="104" y="862"/>
      <point x="131" y="862" type="qcurve"/>
      <point x="160" y="862"/>
      <point x="190" y="833"/>
    </contour>
  </outline>
</glyph>
<glyph name="dieresiscaron" format="2">
  <outline>
    <contour>
      <point x="149" y="899" type="line"/>
      <point x="185" y="861" type="line"/>
      <point x="19" y="707" type="line"/>
      <point x="-19" y="707" type="line"/>
      <point x="-185" y="861" type="line"/>
      <point x="-149" y="899" type="line"/>
      <point x="0" y="779" type="line"/>
    </contour>
    <contour>
      <point x="-60" y="612" type="qcurve"/>
      <point x="-60" y="588"/>
      <point x="-90" y="561"/>
      <point x="-118" y="561" type="qcurve"/>
      <point x="-144" y="561"/>
      <point x="-173" y="587"/>
      <point x="-173" y="612" type="qcurve"/>
      <point x="-173" y="635"/>
      <point x="-142" y="664"/>
      <point x="-117" y="664" type="qcurve"/>
      <point x="-90" y="664"/>
      <point x="-60" y="637"/>
    </contour>
    <contour>
      <point x="174" y="612" type="qcurve"/>
      <point x="174" y="588"/>
      <point x="144" y="561"/>
      <point x="116" y="561" type="qcurve"/>
      <point x="89" y="561"/>
      <point x="60" y="588"/>
      <point x="60" y="612" type="qcurve"/>
      <point x="60" y="635"/>
      <point x="91" y="664"/>
      <point x="117" y="664" type="qcurve"/>
      <point x="144" y="664"/>
      <point x="174" y="637"/>
    </contour>
  </outline>
</glyph>
<glyph name="dieresiscmb.cap" format="2">
  <outline>
    <contour>
      <point x="-70" y="809" type="qcurve"/>
      <point x="-70" y="781"/>
      <point x="-103" y="751"/>
      <point x="-132" y="751" type="qcurve"/>
      <point x="-161" y="751"/>
      <point x="-192" y="781"/>
      <point x="-192" y="809" type="qcurve"/>
      <point x="-192" y="836"/>
      <point x="-159" y="868"/>
      <point x="-131" y="868" type="qcurve"/>
      <point x="-101" y="868"/>
      <point x="-70" y="838"/>
    </contour>
    <contour>
      <point x="191" y="809" type="qcurve"/>
      <point x="191" y="781"/>
      <point x="159" y="751"/>
      <point x="130" y="751" type="qcurve"/>
      <point x="101" y="751"/>
      <point x="70" y="781"/>
      <point x="70" y="809" type="qcurve"/>
      <point x="70" y="836"/>
      <point x="103" y="868"/>
      <point x="131" y="868" type="qcurve"/>
      <point x="160" y="868"/>
      <point x="191" y="838"/>
    </contour>
  </outline>
</glyph>
<glyph name="dieresismacron" format="2">
  <outline>
    <contour>
      <point x="152" y="737" type="line"/>
      <point x="-152" y="737" type="line"/>
      <point x="-152" y="802" type="line"/>
      <point x="152" y="802" type="line"/>
    </contour>
    <contour>
      <point x="-60" y="612" type="qcurve"/>
      <point x="-60" y="588"/>
      <point x="-90" y="561"/>
      <point x="-118" y="561" type="qcurve"/>
      <point x="-144" y="561"/>
      <point x="-173" y="587"/>
      <point x="-173" y="612" type="qcurve"/>
      <point x="-173" y="635"/>
      <point x="-142" y="664"/>
      <point x="-117" y="664" type="qcurve"/>
      <point x="-90" y="664"/>
      <point x="-60" y="637"/>
    </contour>
    <contour>
      <point x="174" y="612" type="qcurve"/>
      <point x="174" y="588"/>
      <point x="144" y="561"/>
      <point x="116" y="561" type="qcurve"/>
      <point x="89" y="561"/>
      <point x="60" y="588"/>
      <point x="60" y="612" type="qcurve"/>
      <point x="60" y="635"/>
      <point x="91" y="664"/>
      <point x="117" y="664" type="qcurve"/>
      <point x="144" y="664"/>
      <point x="174" y="637"/>
    </contour>
  </outline>
</glyph>
<glyph name="dollar_greater.liga" format="2">
  <advance width="614"/>
  <outline>
    <contour>
      <point x="-267" y="2" type="qcurve"/>
      <point x="-267" y="-142" type="line"/>
      <point x="-331" y="-142" type="line"/>
      <point x="-331" y="0" type="line"/>
      <point x="-378" y="2"/>
      <point x="-483" y="25"/>
      <point x="-546" y="47" type="qcurve"/>
      <point x="-524" y="121" type="line"/>
      <point x="-468" y="100"/>
      <point x="-368" y="75"/>
      <point x="-331" y="72" type="qcurve"/>
      <point x="-331" y="299" type="line"/>
      <point x="-428" y="327"/>
      <point x="-520" y="419"/>
      <point x="-520" y="490" type="qcurve" smooth="yes"/>
      <point x="-520" y="556"/>
      <point x="-418" y="645"/>
      <point x="-331" y="653" type="qcurve"/>
      <point x="-331" y="797" type="line"/>
      <point x="-267" y="797" type="line"/>
      <point x="-267" y="655" type="line"/>
      <point x="-190" y="652"/>
      <point x="-43" y="611"/>
      <point x="50" y="567" type="qcurve" smooth="yes"/>
      <point x="512" y="361" type="line"/>
      <point x="512" y="282" type="line"/>
      <point x="76" y="79" type="line"/>
      <point x="76" y="159" type="line"/>
      <point x="438" y="321" type="line"/>
      <point x="19" y="502" type="line" smooth="yes"/>
      <point x="-68" y="542"/>
      <point x="-204" y="580"/>
      <point x="-267" y="583" type="qcurve"/>
      <point x="-267" y="374" type="line"/>
      <point x="-161" y="341"/>
      <point x="-75" y="258"/>
      <point x="-75" y="183" type="qcurve" smooth="yes"/>
      <point x="-75" y="106"/>
      <point x="-176" y="11"/>
    </contour>
    <contour>
      <point x="-432" y="496" type="qcurve" smooth="yes"/>
      <point x="-432" y="454"/>
      <point x="-379" y="402"/>
      <point x="-319" y="382" type="qcurve"/>
      <point x="-319" y="583" type="line"/>
      <point x="-374" y="580"/>
      <point x="-432" y="534"/>
    </contour>
    <contour>
      <point x="-164" y="179" type="qcurve" smooth="yes"/>
      <point x="-164" y="220"/>
      <point x="-217" y="269"/>
      <point x="-279" y="290" type="qcurve"/>
      <point x="-279" y="72" type="line"/>
      <point x="-223" y="78"/>
      <point x="-164" y="132"/>
    </contour>
  </outline>
</glyph>
<glyph name="dotaccentcmb.cap" format="2">
  <outline>
    <contour>
      <point x="64" y="812" type="qcurve"/>
      <point x="64" y="783"/>
      <point x="30" y="751"/>
      <point x="-1" y="751" type="qcurve"/>
      <point x="-31" y="751"/>
      <point x="-63" y="783"/>
      <point x="-63" y="812" type="qcurve"/>
      <point x="-63" y="840"/>
      <point x="-29" y="874"/>
      <point x="0" y="874" type="qcurve"/>
      <point x="31" y="874"/>
      <point x="64" y="842"/>
    </contour>
  </outline>
</glyph>
<glyph name="eight.den" format="2">
  <advance width="614"/>
  <outline>
    <contour>
      <point x="455" y="98" type="qcurve"/>
      <point x="455" y="48"/>
      <point x="372" y="-14"/>
      <point x="306" y="-14" type="qcurve"/>
      <point x="241" y="-14"/>
      <point x="159" y="47"/>
      <point x="159" y="97" type="qcurve"/>
      <point x="159" y="131"/>
      <point x="208" y="185"/>
      <point x="249" y="196" type="qcurve"/>
      <point x="249" y="198" type="line"/>
      <point x="212" y="209"/>
      <point x="170" y="257"/>
      <point x="170" y="287" type="qcurve"/>
      <point x="170" y="335"/>
      <point x="247" y="395"/>
      <point x="308" y="395" type="qcurve"/>
      <point x="369" y="395"/>
      <point x="444" y="336"/>
      <point x="444" y="288" type="qcurve"/>
      <point x="444" y="257"/>
      <point x="402" y="210"/>
      <point x="365" y="198" type="qcurve"/>
      <point x="365" y="196" type="line"/>
      <point x="406" y="185"/>
      <point x="455" y="133"/>
    </contour>
    <contour>
      <point x="232" y="282" type="qcurve"/>
      <point x="232" y="255"/>
      <point x="276" y="218"/>
      <point x="308" y="218" type="qcurve"/>
      <point x="339" y="218"/>
      <point x="382" y="256"/>
      <point x="382" y="284" type="qcurve"/>
      <point x="382" y="312"/>
      <point x="341" y="346"/>
      <point x="307" y="346" type="qcurve"/>
      <point x="273" y="346"/>
      <point x="232" y="311"/>
    </contour>
    <contour>
      <point x="221" y="103" type="qcurve"/>
      <point x="221" y="72"/>
      <point x="269" y="35"/>
      <point x="308" y="35" type="qcurve"/>
      <point x="346" y="35"/>
      <point x="393" y="73"/>
      <point x="393" y="104" type="qcurve"/>
      <point x="393" y="135"/>
      <point x="345" y="173"/>
      <point x="307" y="173" type="qcurve"/>
      <point x="269" y="173"/>
      <point x="221" y="134"/>
    </contour>
  </outline>
</glyph>
<glyph name="equal.middle" format="2">
  <advance width="614"/>
  <outline>
    <contour>
      <point x="624" y="390" type="line"/>
      <point x="-10" y="390" type="line"/>
      <point x="-10" y="461" type="line"/>
      <point x="624" y="461" type="line"/>
    </contour>
    <contour>
      <point x="624" y="194" type="line"/>
      <point x="-10" y="194" type="line"/>
      <point x="-10" y="266" type="line"/>
      <point x="624" y="266" type="line"/>
    </contour>
  </outline>
</glyph>
<glyph name="equal_asciitilde.liga" format="2">
  <advance width="614"/>
  <outline>
    <contour>
      <point x="138" y="434" type="qcurve" smooth="yes"/>
      <point x="158" y="434"/>
      <point x="194" y="487"/>
      <point x="235" y="572" type="qcurve"/>
      <point x="300" y="544" type="line"/>
      <point x="256" y="439"/>
      <point x="186" y="354"/>
      <point x="138" y="354" type="qcurve" smooth="yes"/>
      <point x="114" y="354"/>
      <point x="49" y="385"/>
      <point x="-10" y="425" type="qcurve" smooth="yes"/>
      <point x="-65" y="462"/>
      <point x="-116" y="489"/>
      <point x="-136" y="489" type="qcurve" smooth="yes"/>
      <point x="-156" y="489"/>
      <point x="-192" y="437"/>
      <point x="-232" y="354" type="qcurve"/>
      <point x="-297" y="383" type="line"/>
      <point x="-253" y="485"/>
      <point x="-184" y="569"/>
      <point x="-136" y="569" type="qcurve" smooth="yes"/>
      <point x="-112" y="569"/>
      <point x="-50" y="539"/>
      <point x="10" y="499" type="qcurve" smooth="yes"/>
      <point x="64" y="462"/>
      <point x="118" y="434"/>
    </contour>
    <contour>
      <point x="138" y="169" type="qcurve" smooth="yes"/>
      <point x="158" y="169"/>
      <point x="193" y="222"/>
      <point x="232" y="304" type="qcurve"/>
      <point x="297" y="276" type="line"/>
      <point x="253" y="173"/>
      <point x="185" y="89"/>
      <point x="138" y="89" type="qcurve" smooth="yes"/>
      <point x="114" y="89"/>
      <point x="49" y="120"/>
      <point x="-10" y="160" type="qcurve" smooth="yes"/>
      <point x="-65" y="197"/>
      <point x="-116" y="224"/>
      <point x="-136" y="224" type="qcurve" smooth="yes"/>
      <point x="-157" y="224"/>
      <point x="-195" y="169"/>
      <point x="-235" y="86" type="qcurve"/>
      <point x="-301" y="115" type="line"/>
      <point x="-256" y="219"/>
      <point x="-184" y="304"/>
      <point x="-136" y="304" type="qcurve" smooth="yes"/>
      <point x="-112" y="304"/>
      <point x="-50" y="274"/>
      <point x="10" y="234" type="qcurve" smooth="yes"/>
      <point x="64" y="197"/>
      <point x="118" y="169"/>
    </contour>
  </outline>
</glyph>
<glyph name="equal_bar.end" format="2">
  <advance width="614"/>
  <outline>
    <contour>
      <point x="267" y="194" type="line"/>
      <point x="-624" y="194" type="line"/>
      <point x="-624" y="266" type="line"/>
      <point x="267" y="266" type="line"/>
      <point x="267" y="390" type="line"/>
      <point x="-624" y="390" type="line"/>
      <point x="-624" y="461" type="line"/>
      <point x="267" y="461" type="line"/>
      <point x="267" y="755" type="line"/>
      <point x="347" y="755" type="line"/>
      <point x="347" y="-100" type="line"/>
      <point x="267" y="-100" type="line"/>
    </contour>
  </outline>
</glyph>
<glyph name="equal_bar_bar.end" format="2">
  <advance width="614"/>
  <outline>
    <contour>
      <point x="-52" y="755" type="line"/>
      <point x="28" y="755" type="line"/>
      <point x="28" y="-100" type="line"/>
      <point x="-52" y="-100" type="line"/>
      <point x="-52" y="194" type="line"/>
      <point x="-1238" y="194" type="line"/>
      <point x="-1238" y="266" type="line"/>
      <point x="-52" y="266" type="line"/>
      <point x="-52" y="390" type="line"/>
      <point x="-1238" y="390" type="line"/>
      <point x="-1238" y="461" type="line"/>
      <point x="-52" y="461" type="line"/>
    </contour>
    <contour>
      <point x="267" y="755" type="line"/>
      <point x="347" y="755" type="line"/>
      <point x="347" y="-100" type="line"/>
      <point x="267" y="-100" type="line"/>
    </contour>
  </outline>
</glyph>
<glyph name="equal_colon_equal.middle" format="2">
  <advance width="614"/>
  <outline>
    <contour>
      <point x="394" y="495" type="qcurve" smooth="yes"/>
      <point x="394" y="459"/>
      <point x="348" y="418"/>
      <point x="306" y="418" type="qcurve" smooth="yes"/>
      <point x="265" y="418"/>
      <point x="220" y="459"/>
      <point x="220" y="497" type="qcurve" smooth="yes"/>
      <point x="220" y="532"/>
      <point x="268" y="574"/>
      <point x="308" y="574" type="qcurve" smooth="yes"/>
      <point x="351" y="574"/>
      <point x="394" y="534"/>
    </contour>
    <contour>
      <point x="17" y="390" type="line"/>
      <point x="-7" y="390" type="line"/>
      <point x="-7" y="461" type="line"/>
      <point x="17" y="461" type="line"/>
    </contour>
    <contour>
      <point x="621" y="390" type="line"/>
      <point x="597" y="390" type="line"/>
      <point x="597" y="461" type="line"/>
      <point x="621" y="461" type="line"/>
    </contour>
    <contour>
      <point x="17" y="194" type="line"/>
      <point x="-7" y="194" type="line"/>
      <point x="-7" y="266" type="line"/>
      <point x="17" y="266" type="line"/>
    </contour>
    <contour>
      <point x="621" y="194" type="line"/>
      <point x="597" y="194" type="line"/>
      <point x="597" y="266" type="line"/>
      <point x="621" y="266" type="line"/>
    </contour>
    <contour>
      <point x="394" y="159" type="qcurve" smooth="yes"/>
      <point x="394" y="122"/>
      <point x="348" y="82"/>
      <point x="306" y="82" type="qcurve" smooth="yes"/>
      <point x="265" y="82"/>
      <point x="220" y="123"/>
      <point x="220" y="161" type="qcurve" smooth="yes"/>
      <point x="220" y="196"/>
      <point x="268" y="238"/>
      <point x="308" y="238" type="qcurve" smooth="yes"/>
      <point x="350" y="238"/>
      <point x="394" y="198"/>
    </contour>
  </outline>
</glyph>
<glyph name="equal_exclam_equal.middle" format="2">
  <advance width="614"/>
  <outline>
    <contour>
      <point x="334" y="242" type="line"/>
      <point x="280" y="242" type="line"/>
      <point x="225" y="710" type="line"/>
      <point x="390" y="710" type="line"/>
    </contour>
    <contour>
      <point x="34" y="390" type="line"/>
      <point x="-7" y="390" type="line"/>
      <point x="-7" y="461" type="line"/>
      <point x="34" y="461" type="line"/>
    </contour>
    <contour>
      <point x="621" y="390" type="line"/>
      <point x="580" y="390" type="line"/>
      <point x="580" y="461" type="line"/>
      <point x="621" y="461" type="line"/>
    </contour>
    <contour>
      <point x="34" y="194" type="line"/>
      <point x="-7" y="194" type="line"/>
      <point x="-7" y="266" type="line"/>
      <point x="34" y="266" type="line"/>
    </contour>
    <contour>
      <point x="621" y="194" type="line"/>
      <point x="580" y="194" type="line"/>
      <point x="580" y="266" type="line"/>
      <point x="621" y="266" type="line"/>
    </contour>
    <contour>
      <point x="384" y="48" type="qcurve" smooth="yes"/>
      <point x="384" y="17"/>
      <point x="343" y="-15"/>
      <point x="304" y="-15" type="qcurve" smooth="yes"/>
      <point x="265" y="-15"/>
      <point x="225" y="18"/>
      <point x="225" y="50" type="qcurve" smooth="yes"/>
      <point x="225" y="80"/>
      <point x="267" y="113"/>
      <point x="306" y="113" type="qcurve" smooth="yes"/>
      <point x="346" y="113"/>
      <point x="384" y="81"/>
    </contour>
  </outline>
</glyph>
<glyph name="equal_less.liga" format="2">
  <advance width="614"/>
  <outline>
    <contour>
      <point x="479" y="613" type="line"/>
      <point x="222" y="390" type="line"/>
      <point x="-521" y="390" type="line"/>
      <point x="-521" y="461" type="line"/>
      <point x="198" y="461" type="line"/>
      <point x="430" y="665" type="line"/>
    </contour>
    <contour>
      <point x="197" y="194" type="line"/>
      <point x="-521" y="194" type="line"/>
      <point x="-521" y="266" type="line"/>
      <point x="221" y="266" type="line"/>
      <point x="479" y="41" type="line"/>
      <point x="430" y="-11" type="line"/>
    </contour>
  </outline>
</glyph>
<glyph name="equal_less_equal.middle" format="2">
  <advance width="614"/>
  <outline>
    <contour>
      <point x="236" y="194" type="line"/>
      <point x="-10" y="194" type="line"/>
      <point x="-10" y="266" type="line"/>
      <point x="154" y="266" type="line"/>
      <point x="86" y="325" type="line"/>
      <point x="86" y="329" type="line"/>
      <point x="156" y="390" type="line"/>
      <point x="-10" y="390" type="line"/>
      <point x="-10" y="461" type="line"/>
      <point x="238" y="461" type="line"/>
      <point x="472" y="665" type="line"/>
      <point x="520" y="613" type="line"/>
      <point x="345" y="461" type="line"/>
      <point x="624" y="461" type="line"/>
      <point x="624" y="390" type="line"/>
      <point x="263" y="390" type="line"/>
      <point x="190" y="327" type="line"/>
      <point x="261" y="266" type="line"/>
      <point x="624" y="266" type="line"/>
      <point x="624" y="194" type="line"/>
      <point x="344" y="194" type="line"/>
      <point x="520" y="41" type="line"/>
      <point x="472" y="-11" type="line"/>
    </contour>
  </outline>
</glyph>
<glyph name="equal_slash.liga" format="2">
  <advance width="614"/>
  <outline>
    <contour>
      <point x="94" y="194" type="line"/>
      <point x="-521" y="194" type="line"/>
      <point x="-521" y="266" type="line"/>
      <point x="131" y="266" type="line"/>
      <point x="196" y="390" type="line"/>
      <point x="-521" y="390" type="line"/>
      <point x="-521" y="461" type="line"/>
      <point x="233" y="461" type="line"/>
      <point x="386" y="755" type="line"/>
      <point x="473" y="755" type="line"/>
      <point x="30" y="-100" type="line"/>
      <point x="-59" y="-100" type="line"/>
    </contour>
  </outline>
</glyph>
<glyph name="equal_slash_slash_equal.middle" format="2">
  <advance width="614"/>
  <outline>
    <contour>
      <point x="8" y="755" type="line"/>
      <point x="94" y="755" type="line"/>
      <point x="-348" y="-100" type="line"/>
      <point x="-437" y="-100" type="line"/>
      <point x="-284" y="194" type="line"/>
      <point x="-624" y="194" type="line"/>
      <point x="-624" y="266" type="line"/>
      <point x="-247" y="266" type="line"/>
      <point x="-182" y="390" type="line"/>
      <point x="-624" y="390" type="line"/>
      <point x="-624" y="461" type="line"/>
      <point x="-145" y="461" type="line"/>
    </contour>
    <contour>
      <point x="350" y="755" type="line"/>
      <point x="437" y="755" type="line"/>
      <point x="285" y="461" type="line"/>
      <point x="624" y="461" type="line"/>
      <point x="624" y="390" type="line"/>
      <point x="248" y="390" type="line"/>
      <point x="184" y="266" type="line"/>
      <point x="624" y="266" type="line"/>
      <point x="624" y="194" type="line"/>
      <point x="146" y="194" type="line"/>
      <point x="-6" y="-100" type="line"/>
      <point x="-94" y="-100" type="line"/>
    </contour>
  </outline>
</glyph>
<glyph name="exclam_asciitilde.liga" format="2">
  <advance width="614"/>
  <outline>
    <contour>
      <point x="138" y="169" type="qcurve" smooth="yes"/>
      <point x="158" y="169"/>
      <point x="193" y="222"/>
      <point x="232" y="304" type="qcurve"/>
      <point x="297" y="276" type="line"/>
      <point x="253" y="174"/>
      <point x="186" y="89"/>
      <point x="141" y="89" type="qcurve" smooth="yes"/>
      <point x="117" y="89"/>
      <point x="48" y="125"/>
      <point x="-22" y="171" type="qcurve"/>
      <point x="-111" y="-100" type="line"/>
      <point x="-191" y="-100" type="line"/>
      <point x="-75" y="204" type="line"/>
      <point x="-96" y="216"/>
      <point x="-123" y="226"/>
      <point x="-139" y="226" type="qcurve" smooth="yes"/>
      <point x="-160" y="226"/>
      <point x="-200" y="170"/>
      <point x="-241" y="86" type="qcurve"/>
      <point x="-307" y="115" type="line"/>
      <point x="-262" y="219"/>
      <point x="-190" y="304"/>
      <point x="-141" y="304" type="qcurve" smooth="yes"/>
      <point x="-121" y="304"/>
      <point x="-80" y="289"/>
      <point x="-50" y="271" type="qcurve"/>
      <point x="-24" y="339" type="line"/>
      <point x="2" y="418" type="line"/>
      <point x="-78" y="467"/>
      <point x="-121" y="489"/>
      <point x="-136" y="489" type="qcurve" smooth="yes"/>
      <point x="-156" y="489"/>
      <point x="-192" y="438"/>
      <point x="-232" y="354" type="qcurve"/>
      <point x="-297" y="383" type="line"/>
      <point x="-253" y="484"/>
      <point x="-184" y="569"/>
      <point x="-139" y="569" type="qcurve" smooth="yes"/>
      <point x="-116" y="569"/>
      <point x="-46" y="532"/>
      <point x="24" y="486" type="qcurve"/>
      <point x="113" y="755" type="line"/>
      <point x="191" y="755" type="line"/>
      <point x="77" y="454" type="line"/>
      <point x="97" y="443"/>
      <point x="125" y="433"/>
      <point x="142" y="433" type="qcurve" smooth="yes"/>
      <point x="163" y="433"/>
      <point x="201" y="489"/>
      <point x="241" y="572" type="qcurve"/>
      <point x="306" y="543" type="line"/>
      <point x="262" y="439"/>
      <point x="192" y="354"/>
      <point x="143" y="354" type="qcurve" smooth="yes"/>
      <point x="124" y="354"/>
      <point x="82" y="369"/>
      <point x="52" y="387" type="qcurve"/>
      <point x="26" y="317" type="line"/>
      <point x="0" y="239" type="line"/>
      <point x="54" y="204"/>
      <point x="122" y="169"/>
    </contour>
  </outline>
</glyph>
<glyph name="exclam_equal.liga" format="2">
  <advance width="614"/>
  <outline>
    <contour>
      <point x="-110" y="194" type="line"/>
      <point x="-486" y="194" type="line"/>
      <point x="-486" y="266" type="line"/>
      <point x="-71" y="266" type="line"/>
      <point x="-39" y="327" type="line"/>
      <point x="-7" y="390" type="line"/>
      <point x="-486" y="390" type="line"/>
      <point x="-486" y="461" type="line"/>
      <point x="29" y="461" type="line"/>
      <point x="179" y="755" type="line"/>
      <point x="266" y="755" type="line"/>
      <point x="110" y="461" type="line"/>
      <point x="486" y="461" type="line"/>
      <point x="486" y="390" type="line"/>
      <point x="72" y="390" type="line"/>
      <point x="39" y="327" type="line"/>
      <point x="8" y="266" type="line"/>
      <point x="486" y="266" type="line"/>
      <point x="486" y="194" type="line"/>
      <point x="-28" y="194" type="line"/>
      <point x="-177" y="-100" type="line"/>
      <point x="-266" y="-100" type="line"/>
    </contour>
  </outline>
</glyph>
<glyph name="five.den" format="2">
  <advance width="614"/>
  <outline>
    <contour>
      <point x="176" y="175" type="line"/>
      <point x="190" y="380" type="line"/>
      <point x="430" y="380" type="line"/>
      <point x="430" y="328" type="line"/>
      <point x="243" y="328" type="line"/>
      <point x="234" y="216" type="line"/>
      <point x="256" y="230"/>
      <point x="303" y="244"/>
      <point x="331" y="244" type="qcurve"/>
      <point x="387" y="244"/>
      <point x="452" y="184"/>
      <point x="452" y="132" type="qcurve"/>
      <point x="452" y="71"/>
      <point x="349" y="5"/>
      <point x="241" y="-4" type="qcurve"/>
      <point x="172" y="-10" type="line"/>
      <point x="166" y="45" type="line"/>
      <point x="238" y="52" type="line"/>
      <point x="317" y="59"/>
      <point x="390" y="96"/>
      <point x="390" y="131" type="qcurve"/>
      <point x="390" y="161"/>
      <point x="353" y="193"/>
      <point x="318" y="193" type="qcurve"/>
      <point x="294" y="193"/>
      <point x="246" y="179"/>
      <point x="221" y="165" type="qcurve"/>
      <point x="178" y="172" type="line"/>
    </contour>
  </outline>
</glyph>
<glyph name="four.den" format="2">
  <advance width="614"/>
  <outline>
    <contour>
      <point x="342" y="95" type="line"/>
      <point x="153" y="95" type="line"/>
      <point x="153" y="139" type="line"/>
      <point x="326" y="380" type="line"/>
      <point x="402" y="380" type="line"/>
      <point x="402" y="146" type="line"/>
      <point x="476" y="146" type="line"/>
      <point x="476" y="95" type="line"/>
      <point x="402" y="95" type="line"/>
      <point x="402" y="0" type="line"/>
      <point x="342" y="0" type="line"/>
    </contour>
    <contour>
      <point x="347" y="141" type="line"/>
      <point x="347" y="338" type="line"/>
      <point x="212" y="146" type="line"/>
      <point x="212" y="141" type="line"/>
    </contour>
  </outline>
</glyph>
<glyph name="fracbar" format="2">
  <advance width="614"/>
  <outline>
    <contour>
      <point x="614" y="427" type="line"/>
      <point x="317" y="202" type="line"/>
      <point x="50" y="-61" type="line"/>
      <point x="0" y="-1" type="line"/>
      <point x="299" y="224" type="line"/>
      <point x="564" y="487" type="line"/>
    </contour>
  </outline>
</glyph>
<glyph name="greater_colon.liga" format="2">
  <advance width="614"/>
  <outline>
    <contour>
      <point x="392" y="495" type="qcurve" smooth="yes"/>
      <point x="392" y="459"/>
      <point x="346" y="418"/>
      <point x="304" y="418" type="qcurve" smooth="yes"/>
      <point x="263" y="418"/>
      <point x="218" y="459"/>
      <point x="218" y="497" type="qcurve" smooth="yes"/>
      <point x="218" y="532"/>
      <point x="266" y="574"/>
      <point x="306" y="574" type="qcurve" smooth="yes"/>
      <point x="349" y="574"/>
      <point x="392" y="534"/>
    </contour>
    <contour>
      <point x="65" y="364" type="line"/>
      <point x="65" y="286" type="line"/>
      <point x="-406" y="82" type="line"/>
      <point x="-406" y="162" type="line"/>
      <point x="-12" y="325" type="line"/>
      <point x="-406" y="487" type="line"/>
      <point x="-406" y="567" type="line"/>
    </contour>
    <contour>
      <point x="392" y="159" type="qcurve" smooth="yes"/>
      <point x="392" y="122"/>
      <point x="346" y="82"/>
      <point x="304" y="82" type="qcurve" smooth="yes"/>
      <point x="263" y="82"/>
      <point x="218" y="123"/>
      <point x="218" y="161" type="qcurve" smooth="yes"/>
      <point x="218" y="196"/>
      <point x="266" y="238"/>
      <point x="306" y="238" type="qcurve" smooth="yes"/>
      <point x="348" y="238"/>
      <point x="392" y="198"/>
    </contour>
  </outline>
</glyph>
<glyph name="greater_equal" format="2">
  <advance width="614"/>
  <outline>
    <contour>
      <point x="269" y="398" type="line"/>
      <point x="-254" y="204" type="line"/>
      <point x="-254" y="284" type="line"/>
      <point x="179" y="437" type="line"/>
      <point x="-254" y="590" type="line"/>
      <point x="-254" y="670" type="line"/>
      <point x="269" y="476" type="line"/>
    </contour>
    <contour>
      <point x="269" y="71" type="line"/>
      <point x="269" y="0" type="line"/>
      <point x="-254" y="0" type="line"/>
      <point x="-254" y="71" type="line"/>
    </contour>
  </outline>
</glyph>
<glyph name="greater_equal.start" format="2">
  <advance width="614"/>
  <outline>
    <contour>
      <point x="-196" y="461" type="line"/>
      <point x="624" y="461" type="line"/>
      <point x="624" y="390" type="line"/>
      <point x="-220" y="390" type="line"/>
      <point x="-479" y="613" type="line"/>
      <point x="-430" y="665" type="line"/>
    </contour>
    <contour>
      <point x="-430" y="-11" type="line"/>
      <point x="-479" y="41" type="line"/>
      <point x="-220" y="266" type="line"/>
      <point x="624" y="266" type="line"/>
      <point x="624" y="194" type="line"/>
      <point x="-195" y="194" type="line"/>
    </contour>
  </outline>
</glyph>
<glyph name="greater_greater_equal.liga" format="2">
  <advance width="614"/>
  <outline>
    <contour>
      <point x="-524" y="461" type="line"/>
      <point x="521" y="461" type="line"/>
      <point x="521" y="390" type="line"/>
      <point x="-551" y="390" type="line"/>
      <point x="-795" y="613" type="line"/>
      <point x="-747" y="665" type="line"/>
    </contour>
    <contour>
      <point x="-700" y="329" type="line"/>
      <point x="-700" y="325" type="line"/>
      <point x="-1086" y="-11" type="line"/>
      <point x="-1134" y="41" type="line"/>
      <point x="-804" y="327" type="line"/>
      <point x="-1134" y="613" type="line"/>
      <point x="-1086" y="665" type="line"/>
    </contour>
    <contour>
      <point x="-795" y="41" type="line"/>
      <point x="-550" y="266" type="line"/>
      <point x="521" y="266" type="line"/>
      <point x="521" y="194" type="line"/>
      <point x="-524" y="194" type="line"/>
      <point x="-747" y="-11" type="line"/>
    </contour>
  </outline>
</glyph>
<glyph name="greater_greater_equal.start" format="2">
  <advance width="614"/>
  <outline>
    <contour>
      <point x="-476" y="461" type="line"/>
      <point x="624" y="461" type="line"/>
      <point x="624" y="390" type="line"/>
      <point x="-503" y="390" type="line"/>
      <point x="-750" y="613" type="line"/>
      <point x="-702" y="665" type="line"/>
    </contour>
    <contour>
      <point x="-700" y="329" type="line"/>
      <point x="-700" y="325" type="line"/>
      <point x="-1086" y="-11" type="line"/>
      <point x="-1134" y="41" type="line"/>
      <point x="-804" y="327" type="line"/>
      <point x="-1134" y="613" type="line"/>
      <point x="-1086" y="665" type="line"/>
    </contour>
    <contour>
      <point x="-750" y="41" type="line"/>
      <point x="-502" y="266" type="line"/>
      <point x="624" y="266" type="line"/>
      <point x="624" y="194" type="line"/>
      <point x="-476" y="194" type="line"/>
      <point x="-702" y="-11" type="line"/>
    </contour>
  </outline>
</glyph>
<glyph name="hookcmb.cap" format="2">
  <outline>
    <contour>
      <point x="140" y="837" type="qcurve"/>
      <point x="140" y="798"/>
      <point x="31" y="743"/>
      <point x="-74" y="731" type="qcurve"/>
      <point x="-93" y="771" type="line"/>
      <point x="-93" y="773" type="line"/>
      <point x="-4" y="788"/>
      <point x="62" y="812"/>
      <point x="62" y="830" type="qcurve"/>
      <point x="62" y="848"/>
      <point x="-10" y="872"/>
      <point x="-99" y="886" type="qcurve"/>
      <point x="-99" y="889" type="line"/>
      <point x="-60" y="935" type="line"/>
      <point x="50" y="919"/>
      <point x="140" y="876"/>
    </contour>
  </outline>
</glyph>
<glyph name="hyphen_asciitilde.liga" format="2">
  <advance width="614"/>
  <outline>
    <contour>
      <point x="47" y="306" type="qcurve" smooth="yes"/>
      <point x="17" y="298"/>
      <point x="-21" y="292"/>
      <point x="-39" y="292" type="qcurve" smooth="yes"/>
      <point x="-467" y="292" type="line"/>
      <point x="-467" y="363" type="line"/>
      <point x="-44" y="363" type="line" smooth="yes"/>
      <point x="-26" y="363"/>
      <point x="8" y="370"/>
      <point x="35" y="380" type="qcurve" smooth="yes"/>
      <point x="58" y="389"/>
      <point x="83" y="394"/>
      <point x="96" y="394" type="qcurve" smooth="yes"/>
      <point x="119" y="394"/>
      <point x="174" y="365"/>
      <point x="223" y="327" type="qcurve" smooth="yes"/>
      <point x="271" y="290"/>
      <point x="310" y="267"/>
      <point x="326" y="267" type="qcurve" smooth="yes"/>
      <point x="341" y="267"/>
      <point x="369" y="314"/>
      <point x="407" y="409" type="qcurve"/>
      <point x="474" y="386" type="line"/>
      <point x="437" y="274"/>
      <point x="373" y="183"/>
      <point x="326" y="183" type="qcurve" smooth="yes"/>
      <point x="304" y="183"/>
      <point x="256" y="209"/>
      <point x="195" y="256" type="qcurve" smooth="yes"/>
      <point x="146" y="292"/>
      <point x="106" y="314"/>
      <point x="88" y="314" type="qcurve" smooth="yes"/>
      <point x="82" y="314"/>
      <point x="65" y="311"/>
    </contour>
  </outline>
</glyph>
<glyph name="hyphen_greater.liga" format="2">
  <advance width="614"/>
  <outline>
    <contour>
      <point x="383" y="292" type="line"/>
      <point x="-544" y="292" type="line"/>
      <point x="-544" y="363" type="line"/>
      <point x="382" y="363" type="line"/>
      <point x="94" y="613" type="line"/>
      <point x="142" y="665" type="line"/>
      <point x="528" y="329" type="line"/>
      <point x="528" y="325" type="line"/>
      <point x="142" y="-11" type="line"/>
      <point x="94" y="41" type="line"/>
    </contour>
  </outline>
</glyph>
<glyph name="hyphen_greater_greater_hyphen.m" format="2">
  <advance width="614"/>
  <outline>
    <contour>
      <point x="18" y="329" type="line"/>
      <point x="18" y="325" type="line"/>
      <point x="-367" y="-11" type="line"/>
      <point x="-416" y="41" type="line"/>
      <point x="-127" y="292" type="line"/>
      <point x="-689" y="292" type="line"/>
      <point x="-689" y="363" type="line"/>
      <point x="-128" y="363" type="line"/>
      <point x="-416" y="613" type="line"/>
      <point x="-367" y="665" type="line"/>
    </contour>
    <contour>
      <point x="329" y="292" type="line"/>
      <point x="-4" y="-11" type="line"/>
      <point x="-53" y="41" type="line"/>
      <point x="262" y="327" type="line"/>
      <point x="-53" y="613" type="line"/>
      <point x="-4" y="665" type="line"/>
      <point x="328" y="363" type="line"/>
      <point x="689" y="363" type="line"/>
      <point x="689" y="292" type="line"/>
    </contour>
  </outline>
</glyph>
<glyph name="hyphen_greater_hyphen.middle" format="2">
  <advance width="614"/>
  <outline>
    <contour>
      <point x="383" y="292" type="line"/>
      <point x="-10" y="292" type="line"/>
      <point x="-10" y="363" type="line"/>
      <point x="382" y="363" type="line"/>
      <point x="94" y="613" type="line"/>
      <point x="142" y="665" type="line"/>
      <point x="489" y="363" type="line"/>
      <point x="624" y="363" type="line"/>
      <point x="624" y="292" type="line"/>
      <point x="490" y="292" type="line"/>
      <point x="142" y="-11" type="line"/>
      <point x="94" y="41" type="line"/>
    </contour>
  </outline>
</glyph>
